<svg width="18" height="23" viewBox="0 0 18 23" fill="none" xmlns="http://www.w3.org/2000/svg">
<g id="Vector">
<path d="M18 9.51465C18 14.4852 13.9706 18.5146 9 18.5146C4.02944 18.5146 0 14.4852 0 9.51465C0 4.54409 4.02944 0.514648 9 0.514648C13.9706 0.514648 18 4.54409 18 9.51465Z" fill="#FDEFAA"/>
<path d="M9.38037 15.5465C8.85771 15.5465 8.45238 15.3865 8.16438 15.0665C7.87638 14.7465 7.73238 14.3518 7.73238 13.8825V8.15451H7.41238C7.33771 8.39984 7.17771 8.61851 6.93237 8.81051C6.68704 9.00251 6.37771 9.09851 6.00437 9.09851C5.59904 9.09851 5.24171 8.96517 4.93237 8.69851C4.63371 8.42118 4.48438 8.03717 4.48438 7.54651C4.48438 7.17317 4.56971 6.85851 4.74038 6.60251C4.91104 6.34651 5.12971 6.09584 5.39638 5.85051L6.56437 4.81051C6.96971 4.44784 7.34838 4.18651 7.70038 4.02651C8.05237 3.85584 8.45771 3.77051 8.91638 3.77051C9.28971 3.77051 9.63638 3.85051 9.95638 4.01051C10.2764 4.17051 10.5324 4.42117 10.7244 4.76251C10.927 5.09317 11.0284 5.53051 11.0284 6.07451V13.8825C11.0284 14.3518 10.8897 14.7465 10.6124 15.0665C10.335 15.3865 9.92437 15.5465 9.38037 15.5465Z" fill="#2692FF"/>
<path d="M4.04213 22.3616L4.97357 18.6359C4.98909 18.5738 5.05863 18.5424 5.11623 18.5702C8.02336 19.9757 10.9188 19.5204 12.8923 18.5697C12.9499 18.5419 13.0185 18.5738 13.034 18.6359L13.9655 22.3616C13.9833 22.4329 13.9208 22.4984 13.8489 22.484L9.02342 21.5189C9.01047 21.5163 8.99714 21.5163 8.98419 21.5189L4.15876 22.484C4.08677 22.4984 4.02432 22.4329 4.04213 22.3616Z" fill="#2692FF"/>
</g>
</svg>
