<svg width="18" height="23" viewBox="0 0 18 23" fill="none" xmlns="http://www.w3.org/2000/svg">
<g id="Vector">
<path d="M18 9.51465C18 14.4852 13.9706 18.5146 9 18.5146C4.02944 18.5146 0 14.4852 0 9.51465C0 4.54409 4.02944 0.514648 9 0.514648C13.9706 0.514648 18 4.54409 18 9.51465Z" fill="#D7D7D7"/>
<path d="M7.14969 15.5145C6.66969 15.5145 6.22169 15.4612 5.80569 15.3545C5.40035 15.2478 5.06969 15.0452 4.81369 14.7465C4.55769 14.4478 4.42969 14.0052 4.42969 13.4185C4.42969 12.9278 4.54169 12.5172 4.76569 12.1865C4.98969 11.8558 5.26702 11.5732 5.59769 11.3385C5.92835 11.1038 6.24835 10.8905 6.55769 10.6985L9.03769 9.14651C9.44302 8.89051 9.70969 8.67717 9.83769 8.50651C9.96569 8.33584 10.0297 8.14917 10.0297 7.94651C10.0297 7.76517 9.97102 7.61051 9.85369 7.48251C9.74702 7.35451 9.49102 7.29051 9.08569 7.29051C8.69102 7.29051 8.27502 7.33317 7.83769 7.41851C7.40035 7.50384 6.97902 7.54651 6.57369 7.54651C5.98702 7.54651 5.50702 7.40784 5.13369 7.13051C4.77102 6.84251 4.58969 6.42117 4.58969 5.86651C4.58969 5.33317 4.78169 4.91717 5.16569 4.61851C5.54969 4.30917 6.06702 4.09051 6.71769 3.96251C7.37902 3.83451 8.11502 3.77051 8.92569 3.77051C10.2377 3.77051 11.251 4.01584 11.9657 4.50651C12.691 4.99717 13.0537 5.75984 13.0537 6.79451C13.0537 7.50917 12.8457 8.11718 12.4297 8.61851C12.0244 9.11984 11.459 9.61051 10.7337 10.0905L7.77369 12.0425H11.4377C12.035 12.0425 12.5044 12.1918 12.8457 12.4905C13.1977 12.7785 13.3737 13.2105 13.3737 13.7865C13.3737 14.3625 13.1977 14.7945 12.8457 15.0825C12.5044 15.3705 12.035 15.5145 11.4377 15.5145H7.14969Z" fill="#2692FF"/>
<path d="M4.04213 22.3616L4.97357 18.6359C4.98909 18.5738 5.05863 18.5424 5.11623 18.5702C8.02336 19.9757 10.9188 19.5204 12.8923 18.5697C12.9499 18.5419 13.0185 18.5738 13.034 18.6359L13.9655 22.3616C13.9833 22.4329 13.9208 22.4984 13.8489 22.484L9.02342 21.5189C9.01047 21.5163 8.99714 21.5163 8.98419 21.5189L4.15876 22.484C4.08677 22.4984 4.02432 22.4329 4.04213 22.3616Z" fill="#2692FF"/>
</g>
</svg>
