<svg width="18" height="23" viewBox="0 0 18 23" fill="none" xmlns="http://www.w3.org/2000/svg">
<g id="Vector">
<path d="M18 9.51465C18 14.4852 13.9706 18.5146 9 18.5146C4.02944 18.5146 0 14.4852 0 9.51465C0 4.54409 4.02944 0.514648 9 0.514648C13.9706 0.514648 18 4.54409 18 9.51465Z" fill="#E1C69D"/>
<path d="M8.92937 15.4985C8.16138 15.4878 7.44671 15.4238 6.78538 15.3065C6.13471 15.1892 5.60671 14.9758 5.20138 14.6665C4.80671 14.3572 4.60938 13.9252 4.60938 13.3705C4.60938 12.8052 4.75871 12.3732 5.05737 12.0745C5.36671 11.7652 5.75071 11.6105 6.20937 11.6105C6.78538 11.6105 7.29204 11.6478 7.72938 11.7225C8.17737 11.7972 8.66271 11.8345 9.18538 11.8345C9.63338 11.8345 9.93204 11.7652 10.0814 11.6265C10.2414 11.4878 10.3214 11.2958 10.3214 11.0505C10.3214 10.5278 9.90004 10.2665 9.05737 10.2665H8.14538C7.78271 10.2665 7.52138 10.1812 7.36138 10.0105C7.20138 9.82917 7.12138 9.61584 7.12138 9.37051C7.12138 9.11451 7.20138 8.90117 7.36138 8.73051C7.52138 8.55984 7.78271 8.47451 8.14538 8.47451H9.05737C9.45204 8.47451 9.71338 8.39984 9.84138 8.25051C9.96938 8.09051 10.0334 7.89317 10.0334 7.65851C10.0334 7.46651 9.96404 7.31717 9.82537 7.21051C9.68671 7.10384 9.44137 7.05051 9.08937 7.05051C8.66271 7.05051 8.23071 7.10384 7.79338 7.21051C7.35604 7.31717 6.90271 7.37051 6.43337 7.37051C5.93204 7.37051 5.50537 7.26384 5.15338 7.05051C4.81204 6.82651 4.64138 6.40517 4.64138 5.78651C4.64138 5.35984 4.76404 5.01851 5.00938 4.76251C5.26538 4.49584 5.60671 4.29317 6.03337 4.15451C6.46004 4.00517 6.92938 3.90384 7.44138 3.85051C7.96404 3.79717 8.49738 3.77051 9.04138 3.77051C9.80937 3.77051 10.508 3.86651 11.1374 4.05851C11.7667 4.23984 12.268 4.53851 12.6414 4.95451C13.0254 5.37051 13.2174 5.93584 13.2174 6.65051C13.2174 7.42917 12.9667 8.05851 12.4654 8.53851C11.9747 9.00784 11.324 9.24251 10.5134 9.24251V9.59451C11.0574 9.59451 11.5427 9.68517 11.9694 9.86651C12.4067 10.0372 12.7534 10.3145 13.0094 10.6985C13.2654 11.0825 13.3934 11.5945 13.3934 12.2345C13.3934 12.9598 13.1907 13.5678 12.7854 14.0585C12.38 14.5385 11.8414 14.9012 11.1694 15.1465C10.4974 15.3812 9.75071 15.4985 8.92937 15.4985Z" fill="#2692FF"/>
<path d="M4.04213 22.3616L4.97357 18.6359C4.98909 18.5738 5.05863 18.5424 5.11623 18.5702C8.02336 19.9757 10.9188 19.5204 12.8923 18.5697C12.9499 18.5419 13.0185 18.5738 13.034 18.6359L13.9655 22.3616C13.9833 22.4329 13.9208 22.4984 13.8489 22.484L9.02342 21.5189C9.01047 21.5163 8.99714 21.5163 8.98419 21.5189L4.15876 22.484C4.08677 22.4984 4.02432 22.4329 4.04213 22.3616Z" fill="#2692FF"/>
</g>
</svg>
