
<svg width="48" height="49" viewBox="0 0 48 49" fill="none" xmlns="http://www.w3.org/2000/svg">
<g id="arrow_right_FILL1_wght400_GRAD0_opsz24 1">
<path id="Vector" d="M21 33.0984C20.7333 33.0984 20.5 33.0068 20.3 32.8234C20.1 32.6401 20 32.3984 20 32.0984V16.8984C20 16.5984 20.1 16.3568 20.3 16.1734C20.5 15.9901 20.7333 15.8984 21 15.8984C21.0667 15.8984 21.3 15.9984 21.7 16.1984L28.95 23.4484C29.1167 23.6151 29.2333 23.7818 29.3 23.9484C29.3667 24.1151 29.4 24.2984 29.4 24.4984C29.4 24.6984 29.3667 24.8818 29.3 25.0484C29.2333 25.2151 29.1167 25.3818 28.95 25.5484L21.7 32.7984C21.6 32.8984 21.4917 32.9734 21.375 33.0234C21.2583 33.0734 21.1333 33.0984 21 33.0984Z" fill="#2692FF"/>
</g>
</svg>
