<svg width="52" height="52" viewBox="0 0 52 52" fill="none" xmlns="http://www.w3.org/2000/svg">
<circle cx="26" cy="26" r="26" fill="#F7F7F7"/>
<path d="M21.825 27L26.725 31.9C26.925 32.1 27.0209 32.3334 27.0125 32.6C27.0042 32.8667 26.9 33.1 26.7 33.3C26.5 33.4834 26.2667 33.5792 26 33.5875C25.7334 33.5959 25.5 33.5 25.3 33.3L18.7 26.7C18.6 26.6 18.5292 26.4917 18.4875 26.375C18.4459 26.2584 18.425 26.1334 18.425 26C18.425 25.8667 18.4459 25.7417 18.4875 25.625C18.5292 25.5084 18.6 25.4 18.7 25.3L25.3 18.7C25.4834 18.5167 25.7125 18.425 25.9875 18.425C26.2625 18.425 26.5 18.5167 26.7 18.7C26.9 18.9 27 19.1375 27 19.4125C27 19.6875 26.9 19.925 26.7 20.125L21.825 25H33C33.2834 25 33.5209 25.0959 33.7125 25.2875C33.9042 25.4792 34 25.7167 34 26C34 26.2834 33.9042 26.5209 33.7125 26.7125C33.5209 26.9042 33.2834 27 33 27H21.825Z" fill="#999999"/>
</svg>
