<svg width="73" height="72" viewBox="0 0 73 72" fill="none" xmlns="http://www.w3.org/2000/svg">
<g id="bot">
<path id="Vector" d="M15.5 63C14.65 63 13.9375 62.7125 13.3625 62.1375C12.7875 61.5625 12.5 60.85 12.5 60V48C12.5 46.35 13.0875 44.9375 14.2625 43.7625C15.4375 42.5875 16.85 42 18.5 42H54.5C56.15 42 57.5625 42.5875 58.7375 43.7625C59.9125 44.9375 60.5 46.35 60.5 48V60C60.5 60.85 60.2125 61.5625 59.6375 62.1375C59.0625 62.7125 58.35 63 57.5 63H15.5ZM27.5 39C23.35 39 19.8125 37.5375 16.8875 34.6125C13.9625 31.6875 12.5 28.15 12.5 24C12.5 19.85 13.9625 16.3125 16.8875 13.3875C19.8125 10.4625 23.35 9 27.5 9H45.5C49.65 9 53.1875 10.4625 56.1125 13.3875C59.0375 16.3125 60.5 19.85 60.5 24C60.5 28.15 59.0375 31.6875 56.1125 34.6125C53.1875 37.5375 49.65 39 45.5 39H27.5ZM18.5 57H54.5V48H18.5V57ZM27.5 33H45.5C48 33 50.125 32.125 51.875 30.375C53.625 28.625 54.5 26.5 54.5 24C54.5 21.5 53.625 19.375 51.875 17.625C50.125 15.875 48 15 45.5 15H27.5C25 15 22.875 15.875 21.125 17.625C19.375 19.375 18.5 21.5 18.5 24C18.5 26.5 19.375 28.625 21.125 30.375C22.875 32.125 25 33 27.5 33ZM27.5 27C28.35 27 29.0625 26.7125 29.6375 26.1375C30.2125 25.5625 30.5 24.85 30.5 24C30.5 23.15 30.2125 22.4375 29.6375 21.8625C29.0625 21.2875 28.35 21 27.5 21C26.65 21 25.9375 21.2875 25.3625 21.8625C24.7875 22.4375 24.5 23.15 24.5 24C24.5 24.85 24.7875 25.5625 25.3625 26.1375C25.9375 26.7125 26.65 27 27.5 27ZM45.5 27C46.35 27 47.0625 26.7125 47.6375 26.1375C48.2125 25.5625 48.5 24.85 48.5 24C48.5 23.15 48.2125 22.4375 47.6375 21.8625C47.0625 21.2875 46.35 21 45.5 21C44.65 21 43.9375 21.2875 43.3625 21.8625C42.7875 22.4375 42.5 23.15 42.5 24C42.5 24.85 42.7875 25.5625 43.3625 26.1375C43.9375 26.7125 44.65 27 45.5 27Z" fill="#FFA800"/>
</g>
</svg>
