<svg width="32" height="32" viewBox="0 0 32 32" fill="none" xmlns="http://www.w3.org/2000/svg">
<path fill-rule="evenodd" clip-rule="evenodd" d="M28 16C28 22.6274 22.6274 28 16 28C9.37258 28 4 22.6274 4 16C4 9.37258 9.37258 4 16 4C22.6274 4 28 9.37258 28 16ZM21.5614 19.6777C22.2599 18.6235 22.6667 17.3593 22.6667 16C22.6667 12.3181 19.6819 9.33333 16 9.33333C14.6407 9.33333 13.3765 9.74014 12.3223 10.4386L21.5614 19.6777ZM10.4371 12.3247L19.6753 21.5629C18.6217 22.2605 17.3583 22.6667 16 22.6667C12.3181 22.6667 9.33333 19.6819 9.33333 16C9.33333 14.6417 9.73953 13.3783 10.4371 12.3247ZM16 6.66667C10.8453 6.66667 6.66667 10.8453 6.66667 16C6.66667 21.1547 10.8453 25.3333 16 25.3333C21.1547 25.3333 25.3333 21.1547 25.3333 16C25.3333 10.8453 21.1547 6.66667 16 6.66667Z" fill="#FF0C0C"/>
</svg>
