<svg width="129" height="33" viewBox="0 0 129 33" fill="none" xmlns="http://www.w3.org/2000/svg">
<path d="M16.028 7.108C16.028 6.604 15.812 6.172 15.38 5.812C14.972 5.452 14.48 5.272 13.904 5.272C12.752 5.272 11.804 5.932 11.06 7.252C10.316 8.548 9.944 10.024 9.944 11.68C9.944 12.952 10.184 14.104 10.664 15.136C11.144 16.144 11.84 16.948 12.752 17.548C13.664 18.148 14.72 18.448 15.92 18.448C16.808 18.448 17.66 18.28 18.476 17.944C19.292 17.584 19.952 17.2 20.456 16.792C20.96 16.36 21.476 15.976 22.004 15.64C22.556 15.28 23.036 15.1 23.444 15.1C23.972 15.1 24.428 15.316 24.812 15.748C25.196 16.156 25.388 16.588 25.388 17.044C25.388 17.548 25.232 18.136 24.92 18.808C24.632 19.48 24.164 20.2 23.516 20.968C22.868 21.712 22.112 22.408 21.248 23.056C20.384 23.68 19.304 24.208 18.008 24.64C16.736 25.048 15.392 25.252 13.976 25.252C12.104 25.252 10.364 24.976 8.756 24.424C7.172 23.848 5.792 23.044 4.616 22.012C3.44 20.956 2.516 19.636 1.844 18.052C1.172 16.468 0.836 14.692 0.836 12.724C0.836 8.836 2 5.764 4.328 3.508C6.656 1.252 9.704 0.123998 13.472 0.123998C15.392 0.123998 17.168 0.447999 18.8 1.096C20.432 1.744 21.728 2.644 22.688 3.796C23.648 4.948 24.128 6.208 24.128 7.576C24.128 9.16 23.6 10.6 22.544 11.896C21.488 13.168 20.12 13.804 18.44 13.804C17.48 13.804 16.616 13.54 15.848 13.012C15.08 12.484 14.696 11.728 14.696 10.744C14.696 10.288 14.912 9.652 15.344 8.836C15.8 8.02 16.028 7.444 16.028 7.108ZM40.1193 15.352C40.1193 13.984 39.5913 13.3 38.5353 13.3C38.3433 13.3 38.1633 13.324 37.9953 13.372C37.8513 13.42 37.7073 13.48 37.5633 13.552C37.4433 13.624 37.3233 13.732 37.2033 13.876C37.1073 13.996 37.0113 14.14 36.9153 14.308C36.8433 14.452 36.7833 14.632 36.7353 14.848C36.7113 15.064 36.6993 15.304 36.6993 15.568V19.528C36.6993 21.496 36.3753 22.9 35.7273 23.74C35.1033 24.556 34.1433 24.964 32.8473 24.964C31.5033 24.964 30.5193 24.592 29.8953 23.848C29.2713 23.08 28.9593 21.736 28.9593 19.816L28.8873 4.48C28.8873 2.992 29.2473 1.9 29.9673 1.204C30.6873 0.507998 31.6473 0.159998 32.8473 0.159998C34.1193 0.159998 35.0793 0.423998 35.7273 0.951998C36.3753 1.48 36.6993 2.548 36.6993 4.156V9.376C38.4753 8.296 40.6353 7.756 43.1793 7.756C44.3313 7.756 45.2553 8.056 45.9513 8.656C46.6473 9.232 47.1633 10.156 47.4993 11.428C47.8353 12.7 48.0033 14.368 48.0033 16.432C48.0033 17.488 47.9793 18.4 47.9313 19.168C47.9073 19.936 47.8593 20.644 47.7873 21.292C47.7153 21.916 47.6073 22.432 47.4633 22.84C47.3193 23.248 47.1513 23.596 46.9593 23.884C46.7673 24.172 46.5153 24.4 46.2033 24.568C45.9153 24.712 45.5913 24.82 45.2313 24.892C44.8713 24.964 44.4393 25 43.9353 25C42.5913 25 41.6193 24.76 41.0193 24.28C40.4433 23.776 40.1553 23.02 40.1553 22.012L40.1193 15.352ZM57.7602 25.216C55.8642 25.216 54.2922 24.448 53.0442 22.912C51.7962 21.352 51.1722 19.228 51.1722 16.54C51.1722 13.804 51.7842 11.632 53.0082 10.024C54.2562 8.392 55.8402 7.576 57.7602 7.576C59.7042 7.576 61.5042 8.26 63.1602 9.628C63.8082 8.428 64.8522 7.828 66.2922 7.828C67.5882 7.828 68.5962 8.116 69.3162 8.692C70.0362 9.244 70.3962 10.276 70.3962 11.788V21.148C70.3962 22.588 70.0962 23.596 69.4962 24.172C68.8962 24.724 67.8402 25 66.3282 25C64.7442 25 63.7002 24.556 63.1962 23.668C61.6602 24.7 59.8482 25.216 57.7602 25.216ZM62.6562 13.084C62.2482 12.388 61.7202 12.04 61.0722 12.04C60.4482 12.04 59.9442 12.496 59.5602 13.408C59.1762 14.32 58.9842 15.364 58.9842 16.54C58.9842 17.644 59.1642 18.628 59.5242 19.492C59.8842 20.356 60.3882 20.788 61.0362 20.788C61.7082 20.788 62.2482 20.464 62.6562 19.816V13.084ZM75.581 17.296V13.048C74.981 13.024 74.501 12.928 74.141 12.76C73.781 12.568 73.517 12.328 73.349 12.04C73.205 11.752 73.133 11.392 73.133 10.96C73.133 9.592 73.961 8.848 75.617 8.728V5.38C75.617 4.468 76.277 3.652 77.597 2.932C78.917 2.188 80.225 1.816 81.521 1.816C82.313 1.816 82.829 2.044 83.069 2.5C83.309 2.956 83.429 3.64 83.429 4.552L83.465 8.692H84.437C85.757 8.692 86.657 8.872 87.137 9.232C87.641 9.568 87.893 10.192 87.893 11.104C87.893 11.488 87.821 11.812 87.677 12.076C87.533 12.34 87.293 12.544 86.957 12.688C86.645 12.832 86.261 12.94 85.805 13.012C85.349 13.06 84.785 13.084 84.113 13.084H83.465V17.044C83.465 17.428 83.477 17.752 83.501 18.016C83.549 18.256 83.609 18.448 83.681 18.592C83.753 18.736 83.849 18.832 83.969 18.88C84.113 18.928 84.281 18.952 84.473 18.952C84.761 18.952 85.001 18.856 85.193 18.664C85.385 18.448 85.529 18.22 85.625 17.98C85.745 17.716 85.889 17.488 86.057 17.296C86.249 17.08 86.465 16.972 86.705 16.972C87.257 16.972 87.677 17.104 87.965 17.368C88.277 17.632 88.433 17.956 88.433 18.34C88.433 18.988 88.301 19.684 88.037 20.428C87.797 21.172 87.437 21.892 86.957 22.588C86.477 23.284 85.805 23.86 84.941 24.316C84.101 24.772 83.153 25 82.097 25C79.721 25 78.041 24.4 77.057 23.2C76.073 22 75.581 20.032 75.581 17.296ZM93.6162 17.296V13.048C93.0162 13.024 92.5362 12.928 92.1762 12.76C91.8162 12.568 91.5522 12.328 91.3842 12.04C91.2402 11.752 91.1682 11.392 91.1682 10.96C91.1682 9.592 91.9962 8.848 93.6522 8.728V5.38C93.6522 4.468 94.3122 3.652 95.6322 2.932C96.9522 2.188 98.2602 1.816 99.5562 1.816C100.348 1.816 100.864 2.044 101.104 2.5C101.344 2.956 101.464 3.64 101.464 4.552L101.5 8.692H102.472C103.792 8.692 104.692 8.872 105.172 9.232C105.676 9.568 105.928 10.192 105.928 11.104C105.928 11.488 105.856 11.812 105.712 12.076C105.568 12.34 105.328 12.544 104.992 12.688C104.68 12.832 104.296 12.94 103.84 13.012C103.384 13.06 102.82 13.084 102.148 13.084H101.5V17.044C101.5 17.428 101.512 17.752 101.536 18.016C101.584 18.256 101.644 18.448 101.716 18.592C101.788 18.736 101.884 18.832 102.004 18.88C102.148 18.928 102.316 18.952 102.508 18.952C102.796 18.952 103.036 18.856 103.228 18.664C103.42 18.448 103.564 18.22 103.66 17.98C103.78 17.716 103.924 17.488 104.092 17.296C104.284 17.08 104.5 16.972 104.74 16.972C105.292 16.972 105.712 17.104 106 17.368C106.312 17.632 106.468 17.956 106.468 18.34C106.468 18.988 106.336 19.684 106.072 20.428C105.832 21.172 105.472 21.892 104.992 22.588C104.512 23.284 103.84 23.86 102.976 24.316C102.136 24.772 101.188 25 100.132 25C97.7562 25 96.0762 24.4 95.0922 23.2C94.1082 22 93.6162 20.032 93.6162 17.296ZM128.499 14.848C128.499 18.952 128.379 21.82 128.139 23.452C127.947 24.916 127.647 26.176 127.239 27.232C126.831 28.312 126.255 29.26 125.511 30.076C124.767 30.916 123.819 31.54 122.667 31.948C121.515 32.356 120.147 32.56 118.563 32.56C117.291 32.56 116.103 32.368 114.999 31.984C113.919 31.624 113.055 31.168 112.407 30.616C111.783 30.088 111.291 29.56 110.931 29.032C110.571 28.504 110.391 28.048 110.391 27.664C110.391 27.28 110.511 26.92 110.751 26.584C111.015 26.272 111.363 26.116 111.795 26.116C112.107 26.116 112.467 26.212 112.875 26.404C113.307 26.596 113.715 26.812 114.099 27.052C114.483 27.292 114.939 27.508 115.467 27.7C115.995 27.892 116.511 27.988 117.015 27.988C118.311 27.988 119.223 27.664 119.751 27.016C120.303 26.368 120.579 25.444 120.579 24.244C120.171 24.412 119.775 24.556 119.391 24.676C119.007 24.796 118.635 24.892 118.275 24.964C117.915 25.036 117.567 25.084 117.231 25.108C116.919 25.132 116.607 25.144 116.295 25.144C114.879 25.144 113.667 24.748 112.659 23.956C111.651 23.164 110.919 22.192 110.463 21.04C110.031 19.864 109.815 18.604 109.815 17.26C109.815 15.916 109.827 14.776 109.851 13.84C109.899 12.904 109.983 12.076 110.103 11.356C110.223 10.612 110.355 10.024 110.499 9.592C110.667 9.16 110.895 8.812 111.183 8.548C111.471 8.26 111.795 8.068 112.155 7.972C112.515 7.876 112.947 7.828 113.451 7.828C114.963 7.828 116.019 8.092 116.619 8.62C117.243 9.124 117.555 9.928 117.555 11.032L117.591 16.828C117.591 17.212 117.591 17.5 117.591 17.692C117.591 17.86 117.603 18.076 117.627 18.34C117.675 18.604 117.723 18.796 117.771 18.916C117.843 19.036 117.927 19.168 118.023 19.312C118.143 19.432 118.287 19.516 118.455 19.564C118.647 19.612 118.875 19.636 119.139 19.636C119.859 19.636 120.303 19.444 120.471 19.06C120.663 18.652 120.759 17.92 120.759 16.864L120.795 11.032C120.795 10.288 120.915 9.688 121.155 9.232C121.419 8.776 121.851 8.428 122.451 8.188C123.051 7.948 123.867 7.828 124.899 7.828C125.523 7.828 126.051 7.936 126.483 8.152C126.939 8.344 127.299 8.608 127.563 8.944C127.827 9.256 128.019 9.736 128.139 10.384C128.283 11.008 128.379 11.644 128.427 12.292C128.475 12.94 128.499 13.792 128.499 14.848Z" fill="#FFA800"/>
</svg>
