<svg width="92" height="88" viewBox="0 0 92 88" fill="none" xmlns="http://www.w3.org/2000/svg">
<path d="M66.5102 58.0947C65.0508 57.3968 64.0202 56.4944 63.4184 55.3874C62.8483 54.2955 62.8663 53.1143 63.4724 51.8437C64.6999 49.2709 66.7552 47.6986 69.6385 47.1269C71.7703 46.7419 73.7712 46.509 75.6411 46.4279C77.5579 46.3303 79.367 45.9276 81.0684 45.2198C81.8653 44.9377 82.4319 44.526 82.7681 43.9846C83.1195 43.4114 83.1647 42.8674 82.9038 42.3525C82.6746 41.8528 82.2442 41.5299 81.6125 41.3839C80.996 41.2061 80.2893 41.2583 79.4923 41.5403C78.6471 41.7603 77.9129 42.0334 77.2897 42.3595C76.6666 42.6857 75.9973 43.0678 75.2818 43.5058C74.1458 44.1719 72.8346 44.7152 71.3482 45.1357C69.9087 45.5396 68.5385 45.4305 67.2378 44.8085C65.5881 44.0196 64.4994 42.9528 63.972 41.6083C63.4914 40.2472 63.6223 38.7884 64.3648 37.2319C64.9861 35.9296 66.0219 34.9426 67.4724 34.2708C68.9697 33.5825 70.7257 33.2909 72.7405 33.3962C74.7871 33.5167 76.9366 34.1155 79.1892 35.1927C83.0914 37.0588 85.5355 39.1638 86.5213 41.5077C87.554 43.8351 87.5173 46.1581 86.4111 48.4769C85.5625 50.2557 84.4847 51.5348 83.1778 52.3142C81.886 53.0618 80.0397 53.5833 77.639 53.8786C76.431 54.0421 75.4769 54.327 74.7765 54.7333C74.1231 55.123 73.6069 55.7149 73.2281 56.509C72.622 57.7796 71.7156 58.536 70.5091 58.7782C69.3025 59.0205 67.9696 58.7926 66.5102 58.0947ZM56.4681 63.7083C57.2712 62.0248 58.4622 60.9169 60.0409 60.3845C61.6196 59.8521 63.329 60.0259 65.1691 60.9058C66.9458 61.7555 68.1075 62.9547 68.6544 64.5036C69.2165 66.0207 69.0959 67.621 68.2928 69.3045C67.5048 70.9562 66.3608 72.0476 64.8607 72.5785C63.3605 73.1095 61.6904 72.935 59.8503 72.055C57.9468 71.1447 56.7064 69.9469 56.1292 68.4615C55.5672 66.9444 55.6802 65.36 56.4681 63.7083Z" fill="white"/>
<path fill-rule="evenodd" clip-rule="evenodd" d="M34.8947 66.3591C34.8184 66.3555 34.7423 66.3517 34.6664 66.3475C34.6415 66.3462 34.6167 66.3448 34.5919 66.3434C30.1066 66.0897 26.297 64.937 23.163 62.8854C23.0212 62.7912 22.881 62.6956 22.7422 62.5985C22.7382 62.5957 22.7343 62.5929 22.7303 62.5901C19.7838 60.5245 17.522 57.7913 15.9447 54.3903C15.8362 54.1564 15.7313 53.9202 15.6299 53.6817C14.1854 50.2853 13.4583 46.4277 13.4483 42.109C13.4479 41.9151 13.4489 41.722 13.4514 41.5299C13.5097 37.0517 14.3674 33.0556 16.0248 29.5414C16.0702 29.4451 16.1162 29.3492 16.1628 29.254C17.888 25.7251 20.3949 22.9321 23.6836 20.8748C23.7706 20.8204 23.8581 20.7666 23.9462 20.7136C27.2745 18.708 31.321 17.6997 36.0856 17.6887C36.1222 17.6887 36.1588 17.6886 36.1954 17.6887C41.0161 17.6931 45.0806 18.7269 48.389 20.79C48.3918 20.7918 48.3946 20.7935 48.3975 20.7953C48.4095 20.8028 48.4215 20.8103 48.4335 20.8179C51.8194 22.9143 54.3849 25.7901 56.1301 29.4451C56.1307 29.4464 56.1314 29.4478 56.132 29.4491C57.8524 33.0539 58.7301 37.1719 58.7651 41.8033C58.7656 41.8703 58.766 41.9374 58.7661 42.0047C58.7754 46.0397 58.1616 49.6894 56.9246 52.9539C56.9234 52.957 56.9222 52.9602 56.921 52.9633C56.8825 53.0648 56.8434 53.1659 56.8038 53.2666C55.492 56.5491 53.545 59.2891 50.9628 61.4864C50.9619 61.4873 50.9609 61.4881 50.96 61.4889C50.9488 61.4984 50.9377 61.5078 50.9266 61.5173C49.7196 62.5362 48.3744 63.3972 46.8912 64.1001C46.7992 64.1438 46.7066 64.1868 46.6135 64.2292C46.2369 64.4007 45.8517 64.5622 45.4577 64.7138C45.0326 64.8774 44.5973 65.0294 44.1519 65.1698C44.1475 65.1712 44.143 65.1726 44.1385 65.174C43.2667 65.4483 42.3561 65.6781 41.4067 65.8636C41.5992 66.6269 41.998 67.1985 42.6033 67.5785C42.7234 67.6538 42.8516 67.7217 42.988 67.782C43.8116 68.1462 45.0232 68.3265 46.6229 68.3228C46.9904 68.3219 47.3492 68.3356 47.6994 68.3636C48.7432 68.4473 49.7103 68.6594 50.6009 69.0001C51.1613 69.2064 51.6701 69.4741 52.1273 69.8031C52.1711 69.8346 52.2144 69.8668 52.2573 69.8994C52.2776 69.9149 52.2978 69.9305 52.3179 69.9462C52.7883 70.3143 53.2004 70.7517 53.5542 71.2585C53.9873 71.8677 54.3008 72.5974 54.4946 73.4474C54.6496 74.1271 54.728 74.8838 54.7299 75.7175C54.7341 77.548 54.349 79.0133 53.5745 80.1133C52.8457 81.2133 51.8648 81.9935 50.6318 82.4539C49.4445 82.9143 48.1195 83.1462 46.6569 83.1495C44.006 83.1556 41.8108 82.5887 40.0713 81.4486C38.3319 80.3543 37.0258 78.8472 36.153 76.9272C35.3259 75.0071 34.9097 72.903 34.9044 70.615L34.8947 66.3591ZM37.7938 85.0046C35.3532 83.4604 33.513 81.3169 32.313 78.6771L32.2956 78.6388L32.2789 78.6001C31.205 76.1071 30.6918 73.4305 30.6854 70.6247L30.6843 70.155C27.0654 69.5456 23.7639 68.3257 20.8541 66.4208L20.8424 66.4132L20.8307 66.4054C16.999 63.8606 14.0873 60.4156 12.118 56.1693C10.166 51.9603 9.24106 47.2455 9.22929 42.1187C9.21727 36.88 10.1736 32.055 12.2096 27.7378C14.2774 23.3534 17.3727 19.8418 21.4479 17.2925C25.6305 14.676 30.5777 13.4772 36.0759 13.4646C41.5667 13.452 46.5047 14.625 50.6635 17.232C54.745 19.762 57.8528 23.257 59.9388 27.628C60.7921 29.4159 61.4598 31.2922 61.9498 33.2501C62.965 32.0477 64.2425 31.1125 65.701 30.437L65.7064 30.4345L65.7118 30.432C67.953 29.4016 70.4154 29.0448 72.9604 29.1778L72.9743 29.1785L72.9881 29.1793C75.6841 29.338 78.3668 30.1182 81.0076 31.381C85.2241 33.3974 88.7979 36.0769 90.393 39.8289C91.9154 43.2859 91.8449 46.8875 90.2181 50.2975C89.1152 52.6095 87.5428 54.6278 85.3368 55.9433L85.3131 55.9575L85.2892 55.9713C83.3024 57.1212 80.8278 57.74 78.1822 58.0677C77.5747 58.1513 77.2181 58.2571 77.0376 58.3246C77.0368 58.3262 77.036 58.3279 77.0352 58.3296C76.1048 60.2798 74.5725 61.8605 72.4483 62.6143C72.5092 62.762 72.5668 62.9122 72.6213 63.0649C73.6284 65.8099 73.3086 68.5914 72.0999 71.1251C70.9076 73.6243 68.9811 75.6004 66.2669 76.5611C63.7684 77.4455 61.2522 77.1783 58.941 76.2639C58.872 78.4554 58.352 80.6335 57.0581 82.4968C55.8453 84.3063 54.1709 85.635 52.1312 86.4024C50.4019 87.0691 48.5622 87.3693 46.6666 87.3737C43.4307 87.3811 40.3828 86.6903 37.7938 85.0046ZM58.1754 71.0546C58.6608 71.4197 59.2191 71.7532 59.8503 72.055C61.6904 72.935 63.3605 73.1095 64.8607 72.5785C66.3608 72.0476 67.5048 70.9562 68.2928 69.3045C69.0959 67.621 69.2165 66.0207 68.6544 64.5036C68.4533 63.9339 68.169 63.4116 67.8016 62.9366C67.1699 62.1199 66.2924 61.443 65.1691 60.9058C64.0205 60.3565 62.9227 60.0824 61.8759 60.0835C61.2458 60.0841 60.6341 60.1844 60.0409 60.3845C58.4622 60.9169 57.2712 62.0248 56.4681 63.7083C55.853 64.9977 55.6492 66.246 55.8568 67.4534C55.9151 67.7927 56.0059 68.1287 56.1292 68.4615C56.2252 68.7086 56.3396 68.9477 56.4723 69.1789C56.4774 69.1877 56.4825 69.1965 56.4876 69.2053C56.8872 69.8924 57.4499 70.5088 58.1754 71.0546ZM63.8452 56.0459C64.4633 56.8577 65.3516 57.5407 66.5102 58.0947C67.6626 58.6458 68.7362 58.9038 69.731 58.8687C69.9959 58.8593 70.2553 58.8292 70.5091 58.7782C71.7156 58.536 72.622 57.7796 73.2281 56.509C73.6069 55.7149 74.1231 55.123 74.7765 54.7333C75.4769 54.327 76.431 54.0421 77.639 53.8786C80.0397 53.5833 81.886 53.0618 83.1778 52.3142C84.4847 51.5348 85.5625 50.2557 86.4111 48.4769C87.13 46.97 87.3972 45.4612 87.2127 43.9506C87.1133 43.1368 86.8828 42.3226 86.5213 41.5077C86.4266 41.2825 86.3184 41.0595 86.1967 40.8386C86.174 40.7974 86.1508 40.7563 86.1271 40.7152C85.4468 39.5337 84.378 38.4158 82.9209 37.3615C81.8765 36.6059 80.6326 35.8829 79.1892 35.1927C76.9366 34.1155 74.7871 33.5167 72.7405 33.3962C70.7257 33.2909 68.9697 33.5825 67.4724 34.2708C66.0219 34.9426 64.9861 35.9296 64.3648 37.2319C63.6223 38.7884 63.4914 40.2472 63.972 41.6083C64.3259 42.5105 64.9325 43.2876 65.7918 43.9397C66.213 44.2593 66.695 44.549 67.2378 44.8085C67.9034 45.1268 68.5872 45.3108 69.2891 45.3604C69.2996 45.3612 69.3102 45.3619 69.3207 45.3626C69.9805 45.4054 70.6563 45.3298 71.3482 45.1357C72.8346 44.7152 74.1458 44.1719 75.2818 43.5058C75.3504 43.4638 75.4185 43.4223 75.4863 43.3814C75.4938 43.3768 75.5013 43.3723 75.5088 43.3678C76.1393 42.987 76.7329 42.6509 77.2897 42.3595C77.8645 42.0587 78.5338 41.803 79.2975 41.5925C79.3618 41.5748 79.4267 41.5574 79.4923 41.5403C79.5066 41.5353 79.5209 41.5303 79.5352 41.5254C79.6043 41.5015 79.6727 41.4794 79.7405 41.459C80.2294 41.3121 80.6827 41.256 81.1004 41.2908C81.2775 41.3055 81.4482 41.3365 81.6125 41.3839C82.2442 41.5299 82.6746 41.8528 82.9038 42.3525C83.0047 42.5517 83.0599 42.7552 83.0692 42.9632C83.0703 42.9896 83.0708 43.0161 83.0705 43.0427C83.0678 43.2845 83.0037 43.5322 82.8783 43.7857C82.8457 43.8516 82.809 43.9179 82.7681 43.9846C82.4319 44.526 81.8653 44.9377 81.0684 45.2198C80.9879 45.2533 80.9072 45.2861 80.8262 45.3182C80.782 45.3357 80.7376 45.3531 80.6932 45.3703C80.6306 45.3944 80.568 45.4182 80.5051 45.4415C80.4994 45.4436 80.4936 45.4458 80.4878 45.4479C80.4842 45.4493 80.4805 45.4506 80.4769 45.452L80.4764 45.4522C80.0343 45.6154 79.5852 45.7587 79.129 45.882C78.4331 46.0699 77.7208 46.2114 76.9921 46.3063C76.9697 46.3092 76.9473 46.3121 76.9249 46.3149C76.5024 46.3682 76.0745 46.4058 75.6411 46.4279C74.4207 46.4808 73.1444 46.5984 71.8124 46.7808C71.8112 46.7809 71.81 46.7811 71.8088 46.7813C71.1011 46.8782 70.3777 46.9934 69.6385 47.1269C68.1517 47.4217 66.8851 47.9825 65.8386 48.8094C64.8556 49.5862 64.0669 50.5976 63.4724 51.8437C62.8663 53.1143 62.8483 54.2955 63.4184 55.3874C63.5424 55.6156 63.6847 55.8351 63.8452 56.0459Z" fill="#2692FF"/>
<path fill-rule="evenodd" clip-rule="evenodd" d="M16.0248 29.5414C14.2963 33.2064 13.4375 37.3955 13.4483 42.109C13.4589 46.7309 14.2911 50.8247 15.9447 54.3903C17.5983 57.9559 20.0044 60.7876 23.163 62.8854C26.3672 64.983 30.2778 66.141 34.8947 66.3591L34.9044 70.615C34.9097 72.903 35.3259 75.0071 36.153 76.9272C37.0258 78.8472 38.3319 80.3543 40.0713 81.4486C41.8108 82.5887 44.006 83.1556 46.6569 83.1495C48.1195 83.1462 49.4445 82.9143 50.6318 82.4539C51.8648 81.9935 52.8457 81.2133 53.5745 80.1133C54.349 79.0133 54.7341 77.548 54.7299 75.7175C54.7256 73.8413 54.3337 72.3549 53.5542 71.2585C52.8205 70.2076 51.8361 69.4548 50.6009 69.0001C49.4115 68.5452 48.0855 68.3194 46.6229 68.3228C45.0232 68.3265 43.8116 68.1462 42.988 67.782C42.1644 67.4178 41.6373 66.7784 41.4067 65.8636C45.1987 65.1227 48.3719 63.6739 50.9266 61.5173C53.5268 59.3147 55.4858 56.5645 56.8038 53.2666C58.1216 49.923 58.7757 46.169 58.7661 42.0047C58.7553 37.2912 57.8773 33.1061 56.132 29.4491C54.3868 25.7922 51.8206 22.9151 48.4335 20.8179C45.0921 18.7205 40.9761 17.6775 36.0856 17.6887C31.195 17.7 27.061 18.762 23.6836 20.8748C20.3061 22.9877 17.7532 25.8765 16.0248 29.5414Z" fill="white"/>
<path d="M5.33269 34.536C3.42331 38.8796 3.64377 43.1763 4.72985 46.5561C4.82856 46.8632 4.51191 47.0315 4.38554 46.7347C2.71102 42.8015 2.83561 37.6782 4.99866 34.3145C5.16399 34.0574 5.45572 34.2562 5.33269 34.536Z" fill="#2692FF"/>
<path d="M0.719786 35.405C0.300458 38.3704 0.64222 40.4352 1.50957 42.1245C1.64878 42.3956 1.39636 42.6141 1.22116 42.3648C-0.219949 40.3139 -0.225394 37.3921 0.382969 35.3005C0.466555 35.0131 0.761691 35.1086 0.719786 35.405Z" fill="#2692FF"/>
<path d="M69.3363 2.90631C68.9383 2.71862 68.5202 2.54726 68.0949 2.39185C67.889 2.54963 67.6869 2.70962 67.4884 2.8715C67.9309 3.06437 68.3046 3.24523 68.6241 3.41629C68.8644 3.23894 69.1022 3.06883 69.3363 2.90631Z" fill="#2692FF"/>
<path fill-rule="evenodd" clip-rule="evenodd" d="M71.4839 0.218653C70.2618 0.858874 69.1316 1.59727 68.0949 2.39185C66.5269 1.81895 64.86 1.4629 63.7345 1.30475C62.7771 1.19086 63.332 1.37148 64.1613 1.64143L64.1619 1.64164L64.163 1.64201L64.1654 1.64278L64.1667 1.6432C64.2973 1.68573 64.4347 1.73046 64.574 1.77658C65.7906 2.18321 66.7384 2.5446 67.4884 2.8715C66.0802 4.02013 64.8584 5.26377 63.8278 6.48498C62.8738 6.29193 61.9852 6.14554 61.3498 6.05693C60.5151 5.92489 59.3283 6.18881 61.8231 6.62267C62.3583 6.71575 62.8912 6.84231 63.4104 6.99097C61.6532 9.17098 60.5161 11.226 60.0271 12.474C60.0163 12.5053 60.005 12.5377 59.9934 12.571L59.9545 12.6823C59.5725 13.7747 58.9708 15.4957 61.3238 11.3074C62.1358 9.862 63.1729 8.50405 64.306 7.27245C65.3812 7.63977 66.3624 8.07854 67.1369 8.47505C67.7995 8.81423 68.8794 8.78644 68.9697 8.43906C69.0337 8.1927 68.7277 8.02793 68.4959 7.90317L68.4634 7.88563C67.6156 7.42683 66.2302 7.02238 64.8441 6.70406C66.0704 5.44478 67.3813 4.33353 68.6241 3.41629C69.7722 4.031 70.2202 4.51922 70.6462 4.98341C70.7764 5.12526 70.9046 5.26488 71.05 5.40518C71.6055 5.84231 71.9198 5.94083 72.086 5.8776C72.3271 5.78585 72.2201 5.42167 72.1071 5.18949C71.6536 4.25704 70.5953 3.49997 69.3363 2.90631C70.2635 2.26268 71.1335 1.73805 71.8776 1.35307C72.2954 1.13695 72.8291 0.849348 72.7736 0.381856C72.7515 0.195362 72.6087 0.089008 72.4308 0.0341802C72.1133 -0.0636848 71.7782 0.0644284 71.4839 0.218653ZM69.3363 2.90631C69.1022 3.06883 68.8644 3.23894 68.6241 3.41629C68.3046 3.24523 67.9309 3.06437 67.4884 2.8715C67.6869 2.70962 67.889 2.54963 68.0949 2.39185C68.5202 2.54726 68.9383 2.71862 69.3363 2.90631ZM64.8441 6.70406C64.6627 6.89034 64.4832 7.07985 64.306 7.27245C64.0137 7.17258 63.7144 7.07799 63.4104 6.99097C63.5459 6.82295 63.685 6.65418 63.8278 6.48498C64.1612 6.55247 64.5027 6.62565 64.8441 6.70406Z" fill="#2692FF"/>
<path d="M64.306 7.27245C64.4832 7.07985 64.6627 6.89034 64.8441 6.70406C64.5027 6.62565 64.1612 6.55247 63.8278 6.48498C63.685 6.65418 63.5459 6.82295 63.4104 6.99097C63.7144 7.07799 64.0137 7.17258 64.306 7.27245Z" fill="#2692FF"/>
<path fill-rule="evenodd" clip-rule="evenodd" d="M80.9 19.7911C79.4181 18.336 78.2898 17.3498 77.3375 16.6096C77.5867 16.5102 77.8337 16.4152 78.0782 16.3253C79.0632 17.0876 79.9737 17.8603 80.7253 18.5292C81.5374 19.2517 81.7868 20.553 80.9618 19.8454C80.9405 19.8271 80.9198 19.809 80.9 19.7911ZM77.2371 15.6913C78.4448 15.1196 79.6108 14.6204 80.6873 14.2355C81.1282 14.0961 81.5446 14.0319 81.82 14.0986C82.2739 14.2086 81.9882 14.816 81.5856 15.053C81.5221 15.0904 81.4509 15.1316 81.3709 15.1771C80.921 15.433 80.4305 15.6014 79.9301 15.7335C79.3365 15.8901 78.7162 16.0906 78.0782 16.3253C77.8031 16.1123 77.5221 15.9002 77.2371 15.6913ZM76.5493 16.0224C75.7589 15.4592 75.0725 15.0474 74.3548 14.6168L74.3546 14.6167L74.354 14.6163L74.3521 14.6152C74.0144 14.4126 73.6697 14.2058 73.304 13.9771C72.2492 13.3174 71.3769 12.289 73.9121 13.5868C75.0105 14.1491 76.1526 14.8963 77.2371 15.6913C77.0092 15.7992 76.7799 15.9096 76.5493 16.0224ZM73.4623 17.6226C74.4957 17.0604 75.5339 16.5191 76.5493 16.0224C76.8001 16.2011 77.0614 16.395 77.3375 16.6096C76.3135 17.0184 75.2543 17.5029 74.1956 18.0255C73.9642 17.8892 73.7199 17.7546 73.4623 17.6226ZM72.5229 18.1397C70.9073 17.2646 69.2994 16.6961 68.2711 16.4245C68.1208 16.3848 67.974 16.3365 67.8325 16.2722C66.5244 15.6777 65.4217 14.9824 70.2385 16.3675C71.4911 16.7277 72.5588 17.1594 73.4623 17.6226C73.1485 17.7933 72.8351 17.9659 72.5229 18.1397ZM73.2022 18.5264C73.5325 18.3565 73.864 18.1891 74.1956 18.0255C76.1089 19.1519 77.1429 20.389 77.57 21.2104C77.7007 21.4618 77.7783 21.7406 77.7861 22.0239C77.8134 23.0089 76.953 21.9618 76.4701 21.2344C75.5864 20.1535 74.415 19.2522 73.2022 18.5264ZM73.2022 18.5264C72.9767 18.3915 72.7497 18.2626 72.5229 18.1397C70.6964 19.1569 68.9107 20.2166 67.3192 21.1848C65.4483 22.3229 65.6357 22.7486 67.535 21.6589L67.5498 21.6504C69.2291 20.6869 71.1948 19.5591 73.2022 18.5264Z" fill="#2692FF"/>
<path d="M74.1956 18.0255C73.9642 17.8892 73.7199 17.7546 73.4623 17.6226C73.1485 17.7933 72.8351 17.9659 72.5229 18.1397C72.7497 18.2626 72.9767 18.3915 73.2022 18.5264C73.5325 18.3565 73.864 18.1891 74.1956 18.0255Z" fill="#2692FF"/>
<path d="M77.3375 16.6096C77.5867 16.5102 77.8337 16.4152 78.0782 16.3253C77.8031 16.1123 77.5221 15.9002 77.2371 15.6913C77.0092 15.7992 76.7799 15.9096 76.5493 16.0224C76.8001 16.2011 77.0614 16.395 77.3375 16.6096Z" fill="#2692FF"/>
<path fill-rule="evenodd" clip-rule="evenodd" d="M39.7675 30.6058C34.8899 33.6972 28.5574 36.4958 24.9998 37.9043C25.4943 39.9735 26.1607 41.9414 26.8838 43.7222C29.6743 41.8836 34.8657 38.8353 40.129 37.0434C40.0262 34.6677 39.8973 32.4627 39.7675 30.6058ZM40.2332 39.8053C35.2591 41.6169 30.3926 44.5405 27.9638 46.1733C29.162 48.6919 30.3623 50.6283 31.0975 51.6338C33.8201 55.3033 36.5497 56.796 38.4479 57.3141C38.8159 57.4145 39.1183 57.3263 39.3783 57.0989C39.6645 56.8486 39.9088 56.4071 39.9631 55.8508C40.41 51.2765 40.4089 45.2881 40.2332 39.8053ZM39.4213 27.6783C40.5511 26.9126 42.1851 27.5927 42.2978 29.0559C42.7932 35.4857 43.3885 47.9091 42.5875 56.1078C42.475 57.2592 41.9589 58.3475 41.1131 59.0873C40.241 59.8499 39.0398 60.2121 37.7543 59.8612C35.2194 59.1693 32.0103 57.293 28.9779 53.2044L28.9729 53.1975C27.3344 50.9582 23.8201 44.8952 22.2707 37.7994C22.0753 36.9042 22.5679 36.0156 23.4065 35.6928C26.9903 34.3131 34.3903 31.0879 39.4213 27.6783Z" fill="#2692FF"/>
<path d="M22.8478 25.7049C17.5775 26.321 11.9596 23.736 9.45169 22.1576C9.19459 21.9958 8.92989 21.8444 8.64705 21.7337C6.13048 20.7488 5.3988 21.6135 5.32567 22.5228C5.29098 22.9543 5.52265 23.3525 5.82984 23.6571C9.47861 27.2753 15.3902 28.1782 18.1903 28.4156C18.4342 28.4363 18.5189 28.7611 18.3159 28.8981C13.8683 31.9009 9.83206 35.8655 8.10739 38.0376C7.63603 38.6313 7.33497 39.3734 7.45368 40.1224C7.8066 42.3494 10.3282 40.7997 11.7067 39.5831C15.2845 35.5065 19.925 31.7601 21.798 30.3965C26.7567 26.4997 24.564 25.6451 22.8478 25.7049Z" fill="#2692FF"/>
<path d="M49.0433 12.6439C44.6219 17.3345 39.7367 20.5274 37.3682 21.6615C35.6883 22.5365 35.7824 23.4953 35.882 23.9717C36.3737 25.739 39.7957 25.3686 41.3355 25.3684C47.4697 25.5496 51.4176 26.7411 53.717 27.4797C57.4074 28.8536 59.1227 28.7767 59.6847 28.4844C61.5056 27.2802 59.4866 25.7234 58.4182 25.2137C54.7758 23.2798 46.9131 22.809 42.7864 22.7096C42.2986 22.6979 42.1048 22.0771 42.5097 21.8043C45.023 20.111 46.9583 19.1777 51.2682 15.0565C53.4537 12.7579 53.0692 11.6836 52.4376 11.1901C51.6139 10.6843 50.3184 11.2912 49.0433 12.6439Z" fill="#2692FF"/>
<path fill-rule="evenodd" clip-rule="evenodd" d="M22.7681 24.6512L22.811 24.6497C23.3145 24.6322 23.92 24.6767 24.461 24.8709C24.9931 25.0619 25.6808 25.4896 25.8589 26.3538C26.023 27.15 25.6632 27.9378 25.1422 28.6407C24.597 29.3762 23.7217 30.2274 22.4492 31.2274C22.444 31.2314 22.4389 31.2354 22.4337 31.2394C22.4286 31.2432 22.4234 31.247 22.4182 31.2508C20.584 32.5862 16.0089 36.2811 12.499 40.2804C12.4694 40.3141 12.4377 40.3459 12.4041 40.3756C11.6798 41.0147 10.5691 41.8257 9.50596 42.1535C8.97961 42.3158 8.27397 42.4191 7.61408 42.0997C6.8914 41.7499 6.5331 41.0531 6.41186 40.2881C6.23153 39.1502 6.69728 38.1167 7.28164 37.3807C8.84956 35.4059 12.1905 32.0743 16.0331 29.223C14.8393 29.0409 13.45 28.7574 12.0164 28.3132C9.64259 27.5777 7.07677 26.3802 5.08752 24.4076C4.67217 23.9957 4.20415 23.3097 4.27423 22.4382C4.33097 21.7326 4.678 20.8457 5.67191 20.4402C6.56033 20.0777 7.69485 20.2274 9.03098 20.7503C9.4053 20.8968 9.73534 21.0891 10.0129 21.2638C12.4438 22.7937 17.8091 25.2309 22.7254 24.6562L22.7681 24.6512ZM17.2842 28.3251C17.339 28.3314 17.3932 28.3375 17.4467 28.3434C17.6329 28.3639 17.8103 28.3816 17.9782 28.3971C18.0507 28.4037 18.1215 28.4098 18.1903 28.4156C18.4342 28.4363 18.5189 28.7611 18.3159 28.8981C18.257 28.9379 18.198 28.9781 18.1393 29.0182C17.9922 29.1186 17.8455 29.22 17.6995 29.3223C17.6542 29.3541 17.6089 29.3859 17.5637 29.4178C13.418 32.3448 9.73429 35.9886 8.10739 38.0376C7.63603 38.6313 7.33497 39.3734 7.45368 40.1224C7.8066 42.3494 10.3282 40.7997 11.7067 39.5831C15.2845 35.5065 19.925 31.7601 21.798 30.3965C26.7567 26.4997 24.564 25.6451 22.8478 25.7049C17.5775 26.321 11.9596 23.736 9.45169 22.1576C9.19459 21.9958 8.92989 21.8444 8.64705 21.7337C6.13048 20.7488 5.3988 21.6135 5.32567 22.5228C5.29098 22.9543 5.52265 23.3525 5.82984 23.6571C9.12168 26.9213 14.2552 27.9758 17.2842 28.3251ZM36.8971 20.7166L36.9131 20.709C39.1586 19.6338 43.9393 16.5202 48.2761 11.9193C48.9709 11.1822 49.7258 10.5872 50.4858 10.2532C51.2379 9.92279 52.1658 9.78467 52.989 10.2901L53.0396 10.3212L53.0865 10.3578C53.6517 10.7994 54.1192 11.553 53.9509 12.6125C53.8021 13.5489 53.1731 14.5847 52.0321 15.7848L52.0148 15.803L51.9966 15.8204C48.4988 19.1651 46.4995 20.475 44.5786 21.7133C46.4429 21.7931 48.6935 21.9448 50.9162 22.2262C53.8523 22.598 56.8875 23.2124 58.8928 24.2706C59.5097 24.5685 60.4537 25.1819 61.0065 25.9941C61.2953 26.4184 61.5538 27.0128 61.4475 27.6991C61.3376 28.4079 60.8798 28.9598 60.2659 29.3657L60.2198 29.3962L60.1709 29.4217C59.6015 29.7178 58.7688 29.7788 57.7476 29.6555C56.6841 29.5271 55.2561 29.1781 53.3721 28.4781C51.1219 27.7559 47.289 26.6028 41.3205 26.4246C41.163 26.425 40.9633 26.4306 40.7346 26.437C40.0091 26.4573 38.9908 26.4858 38.0947 26.3821C37.4844 26.3116 36.8184 26.1722 36.2415 25.8743C35.6419 25.5647 35.0877 25.0527 34.8659 24.2553L34.8566 24.2221L34.8495 24.1883C34.7821 23.8655 34.6892 23.2526 34.9874 22.5521C35.2851 21.853 35.8973 21.2374 36.8813 20.7248L36.8971 20.7166ZM41.3355 25.3684C47.4697 25.5496 51.4176 26.7411 53.717 27.4797C57.4074 28.8536 59.1227 28.7767 59.6847 28.4844C61.5056 27.2802 59.4866 25.7234 58.4182 25.2137C54.7758 23.2798 46.9131 22.809 42.7864 22.7096C42.2986 22.6979 42.1048 22.0771 42.5097 21.8043C42.9859 21.4835 43.4412 21.1902 43.896 20.8971L43.8963 20.8969C45.8417 19.643 47.7751 18.3967 51.2682 15.0565C53.4537 12.7579 53.0692 11.6836 52.4376 11.1901C51.6139 10.6843 50.3184 11.2912 49.0433 12.6439C44.6219 17.3345 39.7367 20.5274 37.3682 21.6615C35.6883 22.5365 35.7824 23.4953 35.882 23.9717C36.3079 25.5025 38.9321 25.4297 40.6275 25.3826C40.8895 25.3753 41.1295 25.3684 41.3355 25.3684Z" fill="white"/>
</svg>
