<svg width="28" height="28" viewBox="0 0 28 28" fill="none" xmlns="http://www.w3.org/2000/svg">
<g id="edit_photo">
<path d="M28 14C28 21.732 21.732 28 14 28C6.26801 28 0 21.732 0 14C0 6.26801 6.26801 0 14 0C21.732 0 28 6.26801 28 14Z" fill="#7DBEFF"/>
<path fill-rule="evenodd" clip-rule="evenodd" d="M14 27C21.1797 27 27 21.1797 27 14C27 6.8203 21.1797 1 14 1C6.8203 1 1 6.8203 1 14C1 21.1797 6.8203 27 14 27ZM14 28C21.732 28 28 21.732 28 14C28 6.26801 21.732 0 14 0C6.26801 0 0 6.26801 0 14C0 21.732 6.26801 28 14 28Z" fill="white"/>
<path fill-rule="evenodd" clip-rule="evenodd" d="M6.8541 10C5.83011 10 5 10.8301 5 11.8541V16.8571C5 18.8619 5 19.8643 5.45983 20.5961C5.69961 20.9777 6.02229 21.3004 6.4039 21.5402C7.13572 22 8.1381 22 10.1429 22H17.8571C19.8619 22 20.8643 22 21.5961 21.5402C21.9777 21.3004 22.3004 20.9777 22.5402 20.5961C23 19.8643 23 18.8619 23 16.8571V11.8541C23 10.8301 22.1699 10 21.1459 10C20.4436 10 19.8016 9.60322 19.4875 8.97508L18.6667 7.33333C18.5567 7.11345 18.5017 7.00345 18.4394 6.90782C18.1141 6.40882 17.5833 6.08078 16.9915 6.01299C16.8781 6 16.7552 6 16.5093 6H11.4907C11.2448 6 11.1219 6 11.0085 6.01299C10.4167 6.08078 9.8859 6.40882 9.56062 6.90782C9.49827 7.00346 9.44329 7.11342 9.33333 7.33333L8.51246 8.97508C8.19839 9.60322 7.55638 10 6.8541 10ZM16 15C16 16.1046 15.1046 17 14 17C12.8954 17 12 16.1046 12 15C12 13.8954 12.8954 13 14 13C15.1046 13 16 13.8954 16 15ZM18 15C18 17.2091 16.2091 19 14 19C11.7909 19 10 17.2091 10 15C10 12.7909 11.7909 11 14 11C16.2091 11 18 12.7909 18 15Z" fill="white"/>
</g>
</svg>
