<svg width="24" height="25" viewBox="0 0 24 25" fill="none" xmlns="http://www.w3.org/2000/svg">
<g id="Foled_up_fill">
<path id="Subtract" fill-rule="evenodd" clip-rule="evenodd" d="M2 7.5C2 5.61438 2 4.67157 2.58579 4.08579C3.17157 3.5 4.11438 3.5 6 3.5H7C7.98142 3.5 8.47214 3.5 8.89443 3.71115C9.31672 3.92229 9.61115 4.31486 10.2 5.1L12 7.5H18.8C19.9201 7.5 20.4802 7.5 20.908 7.71799C21.2843 7.90973 21.5903 8.21569 21.782 8.59202C22 9.01984 22 9.5799 22 10.7V18.3C22 19.4201 22 19.9802 21.782 20.408C21.5903 20.7843 21.2843 21.0903 20.908 21.282C20.4802 21.5 19.9201 21.5 18.8 21.5H5.2C4.0799 21.5 3.51984 21.5 3.09202 21.282C2.71569 21.0903 2.40973 20.7843 2.21799 20.408C2 19.9802 2 19.4201 2 18.3V7.5ZM11.2929 11.7929L8.29289 14.7929L9.70711 16.2071L11 14.9142V18.5H13V14.9142L14.2929 16.2071L15.7071 14.7929L12.7071 11.7929L12 11.0858L11.2929 11.7929Z" fill="#51A8FF"/>
</g>
</svg>
