<svg width="212" height="98" viewBox="0 0 212 98" fill="none" xmlns="http://www.w3.org/2000/svg">
<g id="Vector">
<path d="M33.3975 92.7774C31.4586 93.7248 29.6986 93.9962 28.1176 93.5916C26.5365 93.187 25.0062 92.326 23.5265 91.0086C22.063 89.6441 20.5219 88.0429 18.9033 86.2048L5.84437 71.3974C4.83874 70.2408 4.30906 68.9693 4.25534 67.583C4.186 66.1651 4.80457 64.9015 6.11104 63.7923C7.32216 62.7297 8.60864 62.2188 9.97047 62.2596C11.3323 62.3005 12.5554 62.9389 13.6396 64.1748L25.6386 77.6756C26.6916 78.8483 27.5809 79.6497 28.3065 80.08C29.0639 80.4947 29.8647 80.3584 30.7089 79.6712C31.4896 79.0151 31.7242 78.2923 31.4129 77.5027C31.1017 76.7131 30.4117 75.7161 29.343 74.5118L20.5986 64.4824C19.4044 63.104 18.7805 61.7217 18.7267 60.3354C18.6892 58.9019 19.3632 57.6309 20.7489 56.5222C22.1507 55.3664 23.5237 54.9506 24.8677 55.2748C26.2279 55.5519 27.4264 56.3003 28.4633 57.5202L39.7988 70.7566C40.9774 72.1034 41.9378 72.9289 42.6801 73.2333C43.4542 73.5221 44.1839 73.3617 44.8692 72.7522C45.6342 72.0645 45.8212 71.3649 45.4302 70.6535C45.0235 69.9105 44.3734 68.8745 43.4799 67.5454C42.1005 65.4728 40.9481 63.7797 40.0228 62.4661C39.1292 61.137 38.3846 60.0295 37.7889 59.1434C37.2249 58.2418 36.7477 57.396 36.3573 56.6058C35.4826 54.8359 35.2652 53.0783 35.7049 51.3332C36.1291 49.5564 37.247 48.2254 39.0588 47.3402C40.9023 46.4394 42.582 46.3249 44.0978 46.9968C45.5981 47.6371 46.8323 48.937 47.8007 50.8966C48.4255 52.1608 48.8908 53.5815 49.1966 55.1585C49.5342 56.72 49.8327 58.2025 50.0922 59.6059L51.944 70.0605C52.3709 72.4415 52.6963 74.6172 52.9202 76.5874C53.1603 78.5104 53.0297 80.2026 52.5285 81.6638C52.0118 83.0935 50.8475 84.2509 49.0358 85.1362C46.8426 86.2078 44.7904 86.367 42.8792 85.6136C40.9679 84.8603 38.9132 83.098 36.7151 80.3267L36.3813 80.4898C37.2763 83.8978 37.5351 86.5376 37.1578 88.4092C36.7805 90.2808 35.5271 91.7368 33.3975 92.7774Z" fill="white"/>
<path d="M54.6582 74.3773C54.2215 71.9114 54.3239 69.6569 54.9654 67.6137C55.6382 65.5649 56.791 63.8506 58.4238 62.4705C60.0879 61.0849 62.1913 60.1696 64.734 59.7244C66.7116 59.3781 68.5487 59.4265 70.2454 59.8696C71.9735 60.3073 73.4005 61.055 74.5264 62.113C75.6467 63.1397 76.3341 64.371 76.5883 65.8069C76.8536 67.3051 76.6021 68.4433 75.8337 69.2215C75.0653 69.9997 73.8179 70.5399 72.0914 70.8422L62.2032 72.5735C62.347 73.3851 62.7797 74.0012 63.5015 74.4219C64.2547 74.8372 65.4003 74.9101 66.9385 74.6408C67.7232 74.5034 68.4314 74.2989 69.063 74.0274C69.726 73.7505 70.3917 73.4891 71.0602 73.2433C71.7545 72.9608 72.5412 72.7426 73.4201 72.5887C74.6757 72.3689 75.7918 72.6401 76.7682 73.4024C77.7392 74.1335 78.3628 75.2794 78.6392 76.8401C78.9653 78.6817 78.2622 80.2852 76.5297 81.6505C74.8287 83.0103 72.44 83.9596 69.3637 84.4982C67.1977 84.8774 65.0827 84.8133 63.0186 84.3058C60.9859 83.7928 59.2128 82.7355 57.6994 81.134C56.1804 79.5012 55.1667 77.249 54.6582 74.3773ZM69.5576 69.6929C70.0285 69.6104 70.1467 69.3644 69.9124 68.9549C69.7095 68.5399 69.2526 68.1533 68.5419 67.795C67.8312 67.4367 66.8794 67.362 65.6865 67.5708C64.3053 67.8127 63.3219 68.2906 62.7363 69.0046C62.1822 69.713 61.9603 70.3794 62.0709 71.0037L69.5576 69.6929Z" fill="white"/>
<path d="M125.258 73.7025C123.064 73.2951 121.434 72.1377 120.365 70.2304C119.297 68.3231 119.028 65.8711 119.559 62.8744L121.54 52.0704C121.791 50.7307 122.395 49.7627 123.35 49.1663C124.342 48.5446 125.559 48.3676 127 48.6353C128.379 48.8914 129.418 49.4875 130.118 50.4235C130.823 51.3284 131.05 52.4507 130.798 53.7904L128.963 63.5575C128.524 65.8941 129.229 67.2341 131.078 67.5775C131.986 67.7463 132.659 67.5327 133.095 66.9367C133.537 66.3095 133.857 65.4662 134.057 64.4069L135.874 54.7333C136.102 53.5182 136.716 52.5843 137.714 51.9314C138.718 51.2474 139.893 51.0305 141.241 51.2808C142.651 51.5427 143.652 52.1641 144.246 53.145C144.877 54.1005 145.079 55.1858 144.851 56.4009L141.971 71.7292C141.69 73.2246 141.12 74.3601 140.261 75.1355C139.439 75.8856 138.276 76.121 136.772 75.8416C135.299 75.568 134.222 74.9165 133.54 73.887C132.895 72.8322 132.713 71.557 132.994 70.0616L133.143 69.2671L132.297 69.11C131.958 70.917 131.146 72.2171 129.862 73.0103C128.61 73.8094 127.075 74.0401 125.258 73.7025Z" fill="white"/>
<path d="M151.961 42.3646C152.38 41.0672 153.112 40.1524 154.154 39.6203C155.237 39.0676 156.491 39.0194 157.918 39.4755C159.435 39.9607 160.43 40.712 160.905 41.7294C161.41 42.7565 161.452 43.9187 161.033 45.2161C160.623 46.4833 159.912 47.3879 158.899 47.9297C157.927 48.4511 156.682 48.4692 155.165 47.9839C153.679 47.5084 152.663 46.7674 152.118 45.7607C151.613 44.7337 151.561 43.6016 151.961 42.3646ZM147.158 72.7399C145.731 72.2838 144.796 71.5519 144.352 70.5443C143.908 69.5366 143.876 68.4444 144.257 67.2677L149.264 51.7896C149.683 50.4922 150.364 49.5779 151.306 49.0468C152.248 48.5157 153.432 48.4782 154.858 48.9344C156.284 49.3905 157.224 50.1073 157.678 51.0848C158.162 52.072 158.204 53.1841 157.804 54.4212L152.768 69.9898C152.388 71.1665 151.691 72.0258 150.679 72.5676C149.697 73.1192 148.523 73.1766 147.158 72.7399Z" fill="white"/>
<path d="M154.634 86.3254C152.745 85.6489 151.383 84.6392 150.548 83.296C149.713 81.9528 149.587 80.4761 150.17 78.8658C150.764 77.2257 151.627 76.1534 152.758 75.6489C153.889 75.1444 155.015 74.8904 156.134 74.8869L167.918 74.7604L167.983 74.5815L158.851 71.3121C157.502 70.8289 156.506 70.0685 155.866 69.0307C155.266 67.9738 155.231 66.7148 155.76 65.2536C156.3 63.7626 157.134 62.8149 158.263 62.4106C159.422 62.017 160.676 62.0618 162.026 62.545L173.047 66.4908C174.486 67.0062 175.576 67.7839 176.318 68.8241C177.089 69.875 177.156 71.2802 176.519 73.0396C176.033 74.3815 175.203 75.3643 174.029 75.9881C172.884 76.6226 171.424 76.9589 169.649 76.997L159.936 77.1576L159.871 77.3365L169.048 80.622C170.517 81.1481 171.586 81.9855 172.254 83.1342C172.922 84.283 172.965 85.6625 172.382 87.2727C171.788 88.9128 170.871 89.9488 169.63 90.3805C168.39 90.8122 167.035 90.7651 165.565 90.239L154.634 86.3254Z" fill="white"/>
<path d="M186.84 72.6022C185.37 71.904 184.332 71.0012 183.725 69.8937C183.151 68.8014 183.169 67.6198 183.78 66.3487C185.016 63.7747 187.087 62.2018 189.991 61.6299C192.138 61.2448 194.154 61.0117 196.037 60.9306C197.968 60.833 199.79 60.4301 201.504 59.722C202.307 59.4398 202.878 59.0279 203.216 58.4863C203.57 57.9129 203.616 57.3686 203.353 56.8535C203.122 56.3536 202.689 56.0306 202.052 55.8846C201.431 55.7067 200.719 55.7588 199.917 56.041C199.065 56.2611 198.326 56.5343 197.698 56.8606C197.07 57.1869 196.396 57.5691 195.675 58.0074C194.531 58.6737 193.21 59.2172 191.713 59.6379C190.263 60.0419 188.883 59.9328 187.573 59.3105C185.911 58.5213 184.814 57.4541 184.283 56.109C183.799 54.7474 183.931 53.288 184.679 51.7309C185.304 50.428 186.348 49.4406 187.809 48.7685C189.317 48.0799 191.086 47.7883 193.116 47.8936C195.177 48.0141 197.342 48.6132 199.611 49.6908C203.542 51.5577 206.004 53.6635 206.997 56.0084C208.037 58.3367 208 60.6607 206.886 62.9805C206.031 64.76 204.945 66.0396 203.629 66.8193C202.328 67.5672 200.468 68.0889 198.05 68.3843C196.833 68.5479 195.872 68.833 195.166 69.2394C194.508 69.6293 193.988 70.2214 193.607 71.0158C192.996 72.2869 192.083 73.0436 190.868 73.286C189.652 73.5283 188.31 73.3004 186.84 72.6022ZM176.724 78.2181C177.533 76.5339 178.733 75.4255 180.323 74.8929C181.913 74.3603 183.635 74.5342 185.489 75.4145C187.278 76.2644 188.449 77.4642 189 79.0137C189.566 80.5314 189.444 82.1324 188.635 83.8166C187.842 85.469 186.689 86.5608 185.178 87.0919C183.667 87.6231 181.985 87.4485 180.131 86.5682C178.214 85.6575 176.964 84.4592 176.383 82.9733C175.817 81.4555 175.931 79.8705 176.724 78.2181Z" fill="white"/>
<path fill-rule="evenodd" clip-rule="evenodd" d="M20.6552 94.1246L20.6196 94.0914C19.0348 92.6139 17.3969 90.9089 15.706 88.9888L2.63919 74.1725L2.6294 74.1612C1.06586 72.3629 0.108691 70.2017 0.00940733 67.7664C-0.128582 64.7937 1.2646 62.3609 3.32486 60.6011C5.18128 58.9813 7.47399 57.9569 10.0986 58.0357C11.7598 58.0855 13.2367 58.587 14.5156 59.3903C14.7675 56.8336 16.175 54.7658 18.0601 53.2495C20.1175 51.5616 22.794 50.4561 25.7924 51.1498C27.9907 51.6141 29.8305 52.7632 31.3038 54.3378C31.1569 53.0224 31.2393 51.6805 31.5762 50.3312C32.3298 47.2086 34.3701 44.9226 37.1844 43.5474C39.8578 42.2412 42.8727 41.8378 45.8009 43.1251C48.4983 44.2856 50.3587 46.4909 51.6149 49.0329C52.421 50.6642 52.9926 52.4342 53.3605 54.3124C53.7023 55.895 54.0063 57.4051 54.2719 58.8418L54.2748 58.8574L54.5324 60.3118C54.8913 59.9429 55.271 59.589 55.6712 59.2507L55.6833 59.2405L55.6954 59.2304C58.0302 57.2865 60.8602 56.1117 63.9969 55.5625C66.4858 55.1267 68.9446 55.1633 71.3097 55.7784C72.363 56.0462 73.3711 56.4106 74.3193 56.8807C74.2054 56.6536 74.0943 56.4241 73.986 56.1922C72.0198 51.9815 71.088 47.2648 71.0762 42.1359C71.0641 36.8951 72.0274 32.0681 74.0783 27.7492C76.1611 23.363 79.279 19.8499 83.384 17.2995C87.5971 14.682 92.5803 13.4828 98.1187 13.4701C103.65 13.4575 108.624 14.6309 112.813 17.239C116.924 19.77 120.055 23.2665 122.156 27.6393C124.227 31.9488 125.212 36.7714 125.224 42.0122C125.226 42.7862 125.207 43.5513 125.167 44.307C126.045 44.2543 126.924 44.3221 127.781 44.4813C129.981 44.89 132.045 45.9379 133.503 47.8687C133.834 48.2979 134.11 48.7433 134.335 49.2002C134.646 48.9214 134.983 48.6616 135.345 48.4228C137.391 47.0419 139.731 46.7013 142.021 47.1268C143.411 47.3849 144.772 47.9118 145.933 48.7926C146.405 47.9024 147.02 47.0753 147.806 46.3737C147.265 44.6065 147.359 42.7877 147.915 41.0706C148.617 38.9013 149.999 36.9911 152.214 35.8607C154.521 34.6832 156.983 34.7374 159.219 35.4526C161.376 36.1424 163.585 37.4683 164.742 39.9115C165.8 42.0928 165.761 44.3982 165.078 46.51C164.528 48.2105 163.559 49.7506 162.097 50.8843C162.493 52.5149 162.35 54.169 161.85 55.7151L161.111 57.998C161.911 58.099 162.699 58.2947 163.465 58.569L174.486 62.5148C176.394 63.1978 178.114 64.2892 179.413 65.8922C179.553 65.4273 179.732 64.9712 179.945 64.5273C180.618 63.1266 181.476 61.9169 182.498 60.9059C181.583 60.0087 180.832 58.9323 180.327 57.654L180.3 57.5862L180.276 57.5175C179.345 54.8973 179.711 52.2669 180.844 49.9096C181.943 47.6206 183.769 45.9707 186.025 44.9332L186.03 44.9307L186.035 44.9282C188.293 43.8974 190.773 43.5404 193.337 43.6735L193.351 43.6742L193.365 43.675C196.081 43.8337 198.783 44.6142 201.443 45.8775C205.691 47.895 209.291 50.5759 210.897 54.33C212.43 57.7881 212.359 61.3908 210.721 64.8018C209.61 67.1148 208.026 69.1339 205.804 70.4499L205.78 70.4641L205.756 70.4779C203.754 71.6283 201.262 72.2473 198.597 72.5751C197.985 72.6588 197.626 72.7646 197.444 72.8321L197.441 72.8372C196.504 74.7881 194.961 76.3695 192.821 77.1237C192.883 77.2718 192.941 77.4224 192.996 77.5756C194.01 80.3214 193.687 83.1036 192.47 85.6379C191.269 88.1381 189.329 90.1151 186.595 91.0762C183.744 92.0783 180.87 91.6023 178.3 90.3814C177.566 90.0329 176.86 89.6307 176.201 89.169C175.289 91.4023 173.674 93.4503 171.034 94.3691C168.707 95.1792 166.333 95.0053 164.126 94.215L153.195 90.3014C150.645 89.3886 148.394 87.868 146.933 85.5177C145.354 82.9773 145.192 80.1401 146.172 77.4342C146.235 77.2606 146.301 77.0871 146.372 76.9143C146.198 76.8679 146.026 76.8173 145.856 76.7628C145.476 76.6412 145.095 76.4985 144.721 76.3325C144.292 77.0282 143.765 77.6781 143.124 78.2582C140.982 80.2056 138.282 80.4212 135.991 79.9956C134.054 79.6357 132.22 78.7832 130.825 77.2751C128.801 78.1508 126.61 78.2528 124.477 77.8565C123.27 77.6323 122.15 77.2486 121.132 76.7122C121.012 78.7628 120.475 80.7849 119.254 82.5307C118.032 84.3408 116.346 85.67 114.291 86.4377C112.549 87.1047 110.696 87.4051 108.787 87.4094C105.527 87.4169 102.457 86.7257 99.8492 85.0394C97.3907 83.4946 95.5371 81.3502 94.3283 78.7093L94.3108 78.671L94.294 78.6323C93.2122 76.1382 92.6953 73.4606 92.6889 70.6536L92.6878 70.1837C89.0424 69.574 85.7168 68.3537 82.7858 66.448L82.774 66.4403L82.7623 66.4326C82.0618 65.9706 81.3918 65.4788 80.7525 64.9581C80.7598 64.9966 80.7668 65.0353 80.7737 65.074C81.0821 66.8156 81.0168 68.8295 80.0333 70.6222C81.6344 72.1265 82.4697 74.1031 82.8246 76.1073C83.4731 79.7694 81.8712 82.8278 79.1811 84.9531C76.7345 86.9047 73.5914 88.0489 70.1006 88.6601C67.3717 89.1379 64.6575 89.062 61.9984 88.4081L61.9857 88.405L61.9731 88.4018C59.5576 87.7922 57.4187 86.6305 55.5854 84.9864C54.4447 86.7391 52.7698 88.0202 50.91 88.9289C47.862 90.4182 44.5493 90.8177 41.313 89.5421C41.2965 89.5356 41.28 89.529 41.2635 89.5225C40.4971 92.8337 38.1942 95.1421 35.2717 96.5701C32.7204 97.8167 29.9017 98.4117 27.0583 97.6841C24.6899 97.078 22.57 95.8293 20.6916 94.157L20.6552 94.1246ZM37.3135 87.0832C37.3921 85.3743 37.0885 83.2038 36.4027 80.5717C36.3956 80.5444 36.3885 80.5172 36.3813 80.4898L36.7151 80.3267C36.7319 80.3479 36.7486 80.369 36.7654 80.3901C38.4269 82.4751 40.0062 83.9826 41.5034 84.9126C41.97 85.2023 42.4286 85.436 42.8792 85.6136C44.7904 86.367 46.8426 86.2078 49.0358 85.1362C50.8475 84.2509 52.0118 83.0935 52.5285 81.6638C52.5647 81.5584 52.5989 81.4517 52.6312 81.3438C53.0466 79.9571 53.1429 78.3716 52.9202 76.5874C52.8517 75.985 52.7737 75.3634 52.6863 74.7226C52.4878 73.2676 52.2404 71.7135 51.944 70.0605L50.0922 59.6059C49.8327 58.2025 49.5342 56.72 49.1966 55.1585C48.8908 53.5815 48.4255 52.1608 47.8007 50.8966C46.8323 48.937 45.5981 47.6371 44.0978 46.9968C42.582 46.3249 40.9023 46.4394 39.0588 47.3402C37.247 48.2254 36.1291 49.5564 35.7049 51.3332C35.2652 53.0783 35.4826 54.8359 36.3573 56.6058C36.7477 57.396 37.2249 58.2418 37.7889 59.1434L40.0228 62.4661C40.9481 63.7797 42.1005 65.4728 43.4799 67.5454C44.3734 68.8745 45.0235 69.9105 45.4302 70.6535C45.8212 71.3649 45.6342 72.0645 44.8692 72.7522C44.1839 73.3617 43.4542 73.5221 42.6801 73.2333C42.3978 73.1175 42.0838 72.9264 41.7384 72.6599C41.7362 72.6582 41.734 72.6565 41.7319 72.6548C41.7071 72.6356 41.6821 72.616 41.657 72.5961L41.6524 72.5925C41.1101 72.1609 40.4922 71.549 39.7988 70.7566L28.4633 57.5202C27.4264 56.3003 26.2279 55.5519 24.8677 55.2748C23.5237 54.9506 22.1507 55.3664 20.7489 56.5222C19.3632 57.6309 18.6892 58.9019 18.7267 60.3354C18.7805 61.7217 19.4044 63.104 20.5986 64.4824L29.343 74.5118C30.4117 75.7161 31.1017 76.7131 31.4129 77.5027C31.4992 77.7216 31.5435 77.9353 31.5459 78.144C31.5476 78.292 31.5281 78.4376 31.4875 78.5805C31.379 78.9625 31.1195 79.3261 30.7089 79.6712C29.8647 80.3584 29.0639 80.4947 28.3065 80.08C27.5809 79.6497 26.6916 78.8483 25.6386 77.6756L13.6396 64.1748C12.5554 62.9389 11.3323 62.3005 9.97047 62.2596C8.60864 62.2188 7.32216 62.7297 6.11104 63.7923C4.80457 64.9015 4.186 66.1651 4.25534 67.583C4.30906 68.9693 4.83874 70.2408 5.84437 71.3974L18.9033 86.2048C20.5219 88.0429 22.063 89.6441 23.5265 91.0086C25.0062 92.326 26.5365 93.187 28.1176 93.5916C29.6986 93.9962 31.4586 93.7248 33.3975 92.7774C35.5271 91.7368 36.7805 90.2808 37.1578 88.4092C37.2397 88.0033 37.2915 87.5613 37.3135 87.0832ZM54.5201 69.6037L54.5193 69.6094C54.3129 71.0996 54.3592 72.6889 54.6582 74.3773C54.7789 75.059 54.928 75.7058 55.1056 76.3176C55.1079 76.3254 55.1102 76.3332 55.1125 76.341C55.5883 77.971 56.2668 79.3525 57.1479 80.4856C57.3237 80.7116 57.5075 80.9278 57.6994 81.134C59.2128 82.7355 60.9859 83.7928 63.0186 84.3058C65.0827 84.8133 67.1977 84.8774 69.3637 84.4982C72.44 83.9596 74.8287 83.0103 76.5297 81.6505C78.2622 80.2852 78.9653 78.6817 78.6392 76.8401C78.386 75.4102 77.8412 74.3285 77.005 73.595C76.9285 73.5279 76.8496 73.4637 76.7682 73.4024C75.7918 72.6401 74.6757 72.3689 73.4201 72.5887C73.1821 72.6304 72.9509 72.6768 72.7265 72.7279C72.6289 72.7501 72.5325 72.7732 72.4375 72.7972C71.9438 72.9219 71.4848 73.0706 71.0602 73.2433C70.7867 73.3438 70.5136 73.447 70.2411 73.5528C69.8474 73.7055 69.4547 73.8638 69.063 74.0274C69.0041 74.0528 68.9445 74.0775 68.8843 74.1016C68.2986 74.3365 67.6501 74.5162 66.9385 74.6408C66.1821 74.7732 65.5205 74.8229 64.9539 74.7898C64.3684 74.7556 63.8843 74.633 63.5015 74.4219C63.0592 74.1642 62.7254 73.833 62.5002 73.4285C62.3578 73.1728 62.2589 72.8878 62.2032 72.5735L72.0914 70.8422C72.4381 70.7815 72.7654 70.7112 73.0734 70.6313C73.4756 70.527 73.8449 70.4064 74.1812 70.2694C74.8702 69.9887 75.4211 69.6394 75.8337 69.2215C76.0309 69.0218 76.194 68.7983 76.3232 68.5511C76.6971 67.8353 76.7855 66.9205 76.5883 65.8069C76.3341 64.371 75.6467 63.1397 74.5264 62.113C73.4005 61.055 71.9735 60.3073 70.2454 59.8696C68.5487 59.4265 66.7116 59.3781 64.734 59.7244C62.1913 60.1696 60.0879 61.0849 58.4238 62.4705C57.2013 63.5038 56.2478 64.7245 55.5634 66.1326C55.3338 66.6052 55.1345 67.0989 54.9654 67.6137C54.7637 68.2561 54.6152 68.9195 54.5201 69.6037ZM62.0709 71.0037L69.5576 69.6929C69.5708 69.6906 69.5836 69.6881 69.5962 69.6855C69.6428 69.6761 69.6856 69.6649 69.7247 69.6519C69.9977 69.5615 70.0871 69.3859 69.9929 69.1251C69.9737 69.0719 69.9469 69.0152 69.9124 68.9549C69.7949 68.7146 69.5921 68.4837 69.3042 68.2624C69.0951 68.1016 68.841 67.9458 68.5419 67.795C68.0978 67.5711 67.5595 67.4579 66.9272 67.4555C66.7065 67.4547 66.4743 67.4673 66.2307 67.4934C66.0552 67.5122 65.8739 67.538 65.6865 67.5708C65.2261 67.6514 64.8098 67.7583 64.4379 67.8914C63.6939 68.1575 63.1267 68.5286 62.7363 69.0046C62.1822 69.713 61.9603 70.3794 62.0709 71.0037ZM96.9388 70.6438C96.944 72.9329 97.3633 75.0378 98.1964 76.9587C99.0756 78.8795 100.391 80.3872 102.143 81.4819C103.895 82.6224 106.107 83.1896 108.777 83.1835C110.25 83.1802 111.585 82.9482 112.781 82.4877C114.023 82.027 115.011 81.2465 115.745 80.1461C116.525 79.0456 116.913 77.5797 116.909 75.7485C116.905 73.8715 116.51 72.3846 115.725 71.2876C114.986 70.2364 113.994 69.4832 112.75 69.0283C111.853 68.6875 110.878 68.4753 109.827 68.3916C109.474 68.3635 109.113 68.3499 108.743 68.3507C107.131 68.3544 105.911 68.1741 105.081 67.8097C104.944 67.7494 104.815 67.6815 104.694 67.6061C104.084 67.226 103.682 66.6542 103.488 65.8906C104.445 65.705 105.362 65.475 106.24 65.2007C106.245 65.1993 106.249 65.1979 106.254 65.1965C106.702 65.056 107.141 64.9039 107.569 64.7403C107.966 64.5886 108.354 64.427 108.733 64.2554C108.827 64.213 108.92 64.17 109.013 64.1264C110.507 63.4231 111.862 62.5618 113.078 61.5424C113.089 61.533 113.1 61.5235 113.111 61.5141L113.114 61.5116C114.205 60.5901 115.182 59.5733 116.048 58.461C117.247 56.9199 118.23 55.1957 118.998 53.2884C119.038 53.1876 119.077 53.0865 119.116 52.985C119.117 52.9818 119.118 52.9787 119.12 52.9756C119.278 52.5607 119.426 52.1395 119.564 51.7122C119.565 51.7094 119.566 51.7066 119.567 51.7039C120.166 49.8479 120.573 47.8746 120.79 45.784C120.916 44.5696 120.978 43.3155 120.975 42.0219C120.974 41.9546 120.974 41.8875 120.973 41.8204C120.938 37.1872 120.054 33.0674 118.321 29.4612L118.319 29.4571C116.561 25.8006 113.977 22.9237 110.567 20.8264C110.554 20.8189 110.542 20.8113 110.53 20.8038C110.527 20.802 110.524 20.8003 110.522 20.7985C107.189 18.7346 103.095 17.7004 98.239 17.6959C98.2022 17.6959 98.1654 17.6959 98.1285 17.696C93.3292 17.7069 89.2531 18.7156 85.9004 20.7221C85.8117 20.7751 85.7236 20.8289 85.636 20.8834C82.3234 22.9415 79.7981 25.7357 78.0603 29.2659C78.0134 29.3613 77.9671 29.4571 77.9213 29.5535C76.2519 33.0691 75.3878 37.0669 75.3291 41.5469C75.3266 41.7391 75.3256 41.9322 75.3261 42.1262C75.3361 46.4467 76.0685 50.3058 77.5235 53.7037C77.6256 53.9422 77.7314 54.1785 77.8406 54.4125C79.4294 57.8149 81.7077 60.5493 84.6757 62.6157C84.6797 62.6185 84.6837 62.6213 84.6877 62.6241C84.8275 62.7212 84.9688 62.8169 85.1116 62.9111C88.2685 64.9636 92.1058 66.1167 96.6239 66.3706C96.6488 66.372 96.6739 66.3733 96.6989 66.3747C96.7753 66.3788 96.8521 66.3827 96.9289 66.3863L96.9388 70.6438ZM122.247 50.2377C121.91 50.742 121.675 51.3529 121.54 52.0704L119.559 62.8744C119.028 65.8711 119.297 68.3231 120.365 70.2304C121.434 72.1377 123.064 73.2951 125.258 73.7025C126.615 73.9546 127.814 73.8898 128.856 73.508C129.21 73.3786 129.545 73.2127 129.862 73.0103C130.366 72.699 130.797 72.3095 131.156 71.8419C131.572 71.299 131.89 70.6509 132.11 69.8974C132.183 69.6466 132.246 69.3841 132.297 69.11L133.143 69.2671L132.994 70.0616C132.882 70.6567 132.844 71.217 132.879 71.7424C132.931 72.5371 133.152 73.252 133.54 73.887C133.749 74.2024 133.995 74.4823 134.278 74.7267C134.919 75.2802 135.75 75.6518 136.772 75.8416C138.276 76.121 139.439 75.8856 140.261 75.1355C140.686 74.7514 141.041 74.2791 141.324 73.7184C141.613 73.147 141.829 72.484 141.971 71.7292L144.851 56.4009C145.069 55.236 144.893 54.1904 144.322 53.2641C144.298 53.2242 144.272 53.1845 144.246 53.145C143.652 52.1641 142.651 51.5427 141.241 51.2808C139.893 51.0305 138.718 51.2474 137.714 51.9314C136.716 52.5843 136.102 53.5182 135.874 54.7333L134.057 64.4069C134.01 64.6524 133.958 64.8862 133.899 65.1084C133.702 65.8454 133.435 66.4548 133.095 66.9367C132.96 67.1209 132.802 67.2687 132.622 67.3799C132.22 67.6283 131.705 67.6941 131.078 67.5775C129.483 67.2813 128.739 66.2431 128.847 64.4631C128.864 64.18 128.903 63.8781 128.963 63.5575L130.798 53.7904C131.05 52.4507 130.823 51.3284 130.118 50.4235C129.418 49.4875 128.379 48.8914 127 48.6353C126.151 48.4775 125.379 48.4742 124.685 48.6255C124.202 48.7309 123.757 48.9111 123.35 49.1663C122.906 49.4433 122.539 49.8004 122.247 50.2377ZM144.257 67.2677C143.876 68.4444 143.908 69.5366 144.352 70.5443C144.685 71.2995 145.294 71.8998 146.178 72.3452C146.474 72.4941 146.8 72.6257 147.158 72.7399C147.844 72.9594 148.482 73.0541 149.071 73.0239C149.655 72.994 150.19 72.8419 150.679 72.5676C150.869 72.4659 151.048 72.353 151.215 72.2289C151.543 71.9865 151.828 71.7015 152.071 71.3738C152.118 71.3108 152.163 71.2463 152.206 71.1803C152.238 71.1315 152.27 71.0819 152.3 71.0315C152.489 70.7175 152.645 70.3702 152.768 69.9898L157.804 54.4212C158.021 53.7492 158.108 53.1141 158.065 52.5159C158.028 52.0128 157.899 51.5357 157.678 51.0848C157.224 50.1073 156.284 49.3905 154.858 48.9344C153.432 48.4782 152.248 48.5157 151.306 49.0468C150.878 49.2883 150.503 49.609 150.183 50.0088C149.799 50.4885 149.492 51.082 149.264 51.7896L144.257 67.2677ZM159.969 47.1059C160.432 46.6066 160.787 45.9767 161.033 45.2161C161.452 43.9187 161.41 42.7565 160.905 41.7294C160.43 40.712 159.435 39.9607 157.918 39.4755C156.491 39.0194 155.237 39.0676 154.154 39.6203C153.112 40.1524 152.38 41.0672 151.961 42.3646C151.719 43.1124 151.642 43.8219 151.731 44.493C151.789 44.932 151.918 45.3546 152.118 45.7607C152.663 46.7674 153.679 47.5084 155.165 47.9839C156.682 48.4692 157.927 48.4511 158.899 47.9297C159.304 47.7131 159.661 47.4384 159.969 47.1059ZM154.396 75.0926C153.851 75.2194 153.305 75.4048 152.758 75.6489C152.671 75.6878 152.585 75.7301 152.501 75.7758C152.479 75.7878 152.457 75.8 152.435 75.8124C151.972 76.0765 151.558 76.4451 151.194 76.9184C150.793 77.4403 150.452 78.0894 150.17 78.8658C149.587 80.4761 149.713 81.9528 150.548 83.296C151.383 84.6392 152.745 85.6489 154.634 86.3254L165.565 90.239C167.035 90.7651 168.39 90.8122 169.63 90.3805C170.871 89.9488 171.788 88.9128 172.382 87.2727C172.632 86.5798 172.767 85.9296 172.787 85.3222C172.797 84.9996 172.774 84.6891 172.719 84.3906C172.715 84.37 172.712 84.3494 172.707 84.3289C172.622 83.9062 172.471 83.508 172.254 83.1342C172.149 82.9532 172.033 82.7799 171.908 82.6143C171.486 82.0554 170.949 81.5845 170.3 81.2018C170.12 81.0957 169.931 80.9963 169.733 80.9037C169.727 80.9007 169.72 80.8976 169.714 80.8946C169.502 80.796 169.28 80.7051 169.048 80.622L159.871 77.3365L159.936 77.1576L169.649 76.997C169.896 76.9917 170.137 76.9806 170.372 76.9638C170.626 76.9455 170.873 76.9206 171.112 76.8889C171.312 76.8624 171.508 76.8311 171.698 76.7952C172.101 76.7191 172.481 76.622 172.839 76.5037C172.893 76.4859 172.946 76.4676 172.999 76.4488C173.367 76.3184 173.71 76.1648 174.029 75.9881C175.203 75.3643 176.033 74.3815 176.519 73.0396C176.666 72.6337 176.775 72.2468 176.847 71.8786C177.088 70.6508 176.911 69.6326 176.318 68.8241C175.576 67.7839 174.486 67.0062 173.047 66.4908L162.026 62.545C161.241 62.2642 160.489 62.1315 159.769 62.1468C159.25 62.1578 158.748 62.2458 158.263 62.4106C157.134 62.8149 156.3 63.7626 155.76 65.2536C155.231 66.7148 155.266 67.9738 155.866 69.0307C156.189 69.5534 156.601 70.0058 157.104 70.3878C157.222 70.4779 157.346 70.5641 157.474 70.6463C157.883 70.9078 158.342 71.1297 158.851 71.3121L167.983 74.5815L167.918 74.7604L156.134 74.8869C155.556 74.8887 154.977 74.9572 154.396 75.0926ZM180.36 74.8808C180.348 74.8848 180.335 74.8888 180.323 74.8929C178.733 75.4255 177.533 76.5339 176.724 78.2181C176.498 78.6901 176.326 79.1566 176.211 79.6177C176.077 80.1501 176.017 80.6752 176.031 81.1929C176.048 81.7963 176.165 82.3898 176.383 82.9733C176.534 83.3588 176.73 83.7249 176.97 84.0717C177.658 85.0616 178.711 85.8938 180.131 86.5682C181.985 87.4485 183.667 87.6231 185.178 87.0919C186.689 86.5608 187.842 85.469 188.635 83.8166C189.444 82.1324 189.566 80.5314 189 79.0137C188.797 78.4438 188.511 77.9213 188.14 77.446C187.504 76.629 186.62 75.9518 185.489 75.4145C184.332 74.8649 183.226 74.5907 182.172 74.5918C181.55 74.5924 180.946 74.6887 180.36 74.8808ZM184.155 70.5525C184.778 71.3647 185.673 72.0479 186.84 72.6022C188.001 73.1535 189.082 73.4116 190.084 73.3765C190.351 73.3671 190.612 73.3369 190.868 73.286C192.083 73.0436 192.996 72.2869 193.607 71.0158C193.988 70.2214 194.508 69.6293 195.166 69.2394C195.872 68.833 196.833 68.5479 198.05 68.3843C200.468 68.0889 202.328 67.5672 203.629 66.8193C204.945 66.0396 206.031 64.76 206.886 62.9805C207.61 61.4729 207.879 59.9635 207.693 58.4523C207.593 57.6382 207.361 56.8236 206.997 56.0084C206.901 55.7831 206.792 55.56 206.67 55.3391C206.647 55.2978 206.624 55.2567 206.6 55.2156C205.914 54.0336 204.838 52.9152 203.37 51.8605C202.318 51.1046 201.065 50.3813 199.611 49.6908C197.342 48.6132 195.177 48.0141 193.116 47.8936C191.086 47.7883 189.317 48.0799 187.809 48.7685C186.348 49.4406 185.304 50.428 184.679 51.7309C183.931 53.288 183.799 54.7474 184.283 56.109C184.639 57.0116 185.25 57.7891 186.116 58.4413C186.54 58.7612 187.026 59.0509 187.573 59.3105C188.243 59.629 188.932 59.813 189.639 59.8627C189.649 59.8635 189.66 59.8642 189.671 59.8649C190.335 59.9077 191.016 59.8321 191.713 59.6379C193.21 59.2172 194.531 58.6737 195.675 58.0074C195.744 57.9653 195.813 57.9238 195.881 57.8828C195.889 57.8783 195.896 57.8738 195.904 57.8692C196.539 57.4883 197.137 57.1521 197.698 56.8606C198.277 56.5596 198.951 56.3038 199.72 56.0932C199.785 56.0755 199.85 56.0581 199.917 56.041C199.931 56.036 199.945 56.031 199.96 56.0261C200.029 56.0022 200.098 55.9801 200.167 55.9597C200.659 55.8127 201.116 55.7566 201.536 55.7914C201.715 55.8061 201.887 55.8372 202.052 55.8846C202.689 56.0306 203.122 56.3536 203.353 56.8535C203.455 57.0528 203.51 57.2565 203.519 57.4645C203.521 57.4909 203.521 57.5174 203.521 57.544C203.518 57.7859 203.454 58.0337 203.327 58.2873C203.294 58.3532 203.257 58.4196 203.216 58.4863C202.878 59.0279 202.307 59.4398 201.504 59.722C201.423 59.7555 201.342 59.7883 201.26 59.8204C201.216 59.838 201.171 59.8554 201.126 59.8725C201.063 59.8967 201 59.9205 200.937 59.9438C200.931 59.946 200.925 59.9481 200.919 59.9502C200.916 59.9516 200.912 59.9529 200.908 59.9543C200.463 60.1176 200.01 60.2611 199.55 60.3844C198.85 60.5725 198.132 60.714 197.398 60.8089C197.375 60.8119 197.353 60.8147 197.33 60.8176C196.905 60.8709 196.474 60.9085 196.037 60.9306C194.808 60.9835 193.522 61.1012 192.181 61.2836L192.177 61.2841C191.464 61.3811 190.735 61.4963 189.991 61.6299C188.493 61.9248 187.217 62.4859 186.163 63.3131C185.173 64.0901 184.379 65.102 183.78 66.3487C183.169 67.6198 183.151 68.8014 183.725 69.8937C183.85 70.122 183.994 70.3416 184.155 70.5525ZM115.047 65.39C115.047 65.3947 115.047 65.3994 115.047 65.4041C115.043 65.4024 115.04 65.4006 115.036 65.3989C115.04 65.3959 115.044 65.3929 115.047 65.39Z" fill="#7DBEFF"/>
<path fill-rule="evenodd" clip-rule="evenodd" d="M77.9213 29.5535C76.1803 33.2199 75.3152 37.4108 75.3261 42.1262C75.3368 46.75 76.175 50.8455 77.8406 54.4125C79.5063 57.9796 81.93 60.8125 85.1116 62.9111C88.3393 65.0096 92.2784 66.168 96.9289 66.3863L96.9388 70.6438C96.944 72.9329 97.3633 75.0378 98.1964 76.9587C99.0756 78.8795 100.391 80.3872 102.143 81.4819C103.895 82.6224 106.107 83.1896 108.777 83.1835C110.25 83.1802 111.585 82.9482 112.781 82.4877C114.023 82.027 115.011 81.2465 115.745 80.1461C116.525 79.0456 116.913 77.5797 116.909 75.7485C116.905 73.8715 116.51 72.3846 115.725 71.2876C114.986 70.2364 113.994 69.4832 112.75 69.0283C111.552 68.5732 110.216 68.3474 108.743 68.3507C107.131 68.3544 105.911 68.1741 105.081 67.8097C104.252 67.4454 103.721 66.8057 103.488 65.8906C107.308 65.1494 110.505 63.7 113.078 61.5424C115.697 59.339 117.67 56.5876 118.998 53.2884C120.325 49.9434 120.984 46.1879 120.975 42.0219C120.964 37.3065 120.079 33.1196 118.321 29.4612C116.563 25.8028 113.978 22.9245 110.567 20.8264C107.201 18.7282 103.055 17.6847 98.1285 17.696C93.2022 17.7072 89.0381 18.7697 85.636 20.8834C82.2339 22.9971 79.6623 25.8871 77.9213 29.5535ZM79.5616 29.9839C77.9327 33.3514 77.1051 37.2092 77.0788 41.5573C77.0529 45.821 77.7919 49.6038 79.2957 52.9057C80.7995 56.2075 83.0057 58.8382 85.9145 60.7975C88.8655 62.7572 92.4779 63.8553 96.7515 64.092C98.0531 64.1217 101.082 64.0818 102.786 63.6849C106.303 63.0305 109.253 61.7184 111.635 59.7485C114.06 57.7367 115.895 55.2147 117.141 52.1826C118.387 49.1083 119.022 45.6504 119.045 41.8088C119.072 37.4607 118.291 33.5933 116.703 30.2065C115.115 26.8197 112.761 24.1459 109.64 22.1853C106.562 20.2249 102.759 19.2312 98.2299 19.204C93.7011 19.1769 89.8647 20.1249 86.7207 22.048C83.5768 23.9711 81.1905 26.6164 79.5616 29.9839Z" fill="white"/>
<path d="M77.0788 41.5573C77.1051 37.2092 77.9327 33.3514 79.5616 29.9839C81.1905 26.6164 83.5768 23.9711 86.7207 22.048C89.8647 20.1249 93.7011 19.1769 98.2299 19.204C102.759 19.2312 106.562 20.2249 109.64 22.1853C112.761 24.1459 115.115 26.8197 116.703 30.2065C118.291 33.5933 119.072 37.4607 119.045 41.8088C119.022 45.6504 118.387 49.1083 117.141 52.1826C115.895 55.2147 114.06 57.7367 111.635 59.7485C109.253 61.7184 106.303 63.0305 102.786 63.6849C101.082 64.0818 98.0531 64.1217 96.7515 64.092C92.4779 63.8553 88.8655 62.7572 85.9145 60.7975C83.0057 58.8382 80.7995 56.2075 79.2957 52.9057C77.7919 49.6038 77.0529 45.821 77.0788 41.5573Z" fill="white"/>
<path fill-rule="evenodd" clip-rule="evenodd" d="M101.683 30.6183C96.7695 33.711 90.3907 36.5107 86.8072 37.9198C87.3053 39.9898 87.9765 41.9586 88.705 43.7401C91.5159 41.9008 96.7451 38.8512 102.047 37.0585C101.943 34.6819 101.813 32.476 101.683 30.6183ZM102.152 39.8216C97.1413 41.6339 92.2394 44.5587 89.7929 46.1922C90.9997 48.7119 92.2088 50.649 92.9494 51.6549C95.6918 55.3259 98.4414 56.8192 100.353 57.3375C100.724 57.438 101.029 57.3498 101.291 57.1223C101.579 56.8719 101.825 56.4302 101.88 55.8736C102.33 51.2975 102.329 45.3067 102.152 39.8216ZM101.334 27.6896C102.472 26.9236 104.118 27.604 104.231 29.0678C104.73 35.5002 105.33 47.9287 104.523 56.1308C104.41 57.2827 103.89 58.3714 103.038 59.1114C102.16 59.8744 100.95 60.2367 99.6548 59.8857C97.1013 59.1935 93.8689 57.3164 90.8144 53.2262L90.8093 53.2193C89.1589 50.9791 85.619 44.9136 84.0583 37.8149C83.8613 36.9193 84.3576 36.0303 85.2023 35.7074C88.8122 34.3272 96.2662 31.1006 101.334 27.6896Z" fill="#7DBEFF"/>
<path d="M66.9966 34.5502C65.0733 38.8955 65.2954 43.1939 66.3894 46.5751C66.4888 46.8824 66.1698 47.0508 66.0425 46.7538C64.3558 42.819 64.4813 37.6937 66.6601 34.3286C66.8267 34.0714 67.1205 34.2702 66.9966 34.5502Z" fill="#7DBEFF"/>
<path d="M62.35 35.4194C61.9276 38.3861 62.2719 40.4518 63.1456 42.1417C63.2858 42.413 63.0315 42.6315 62.8551 42.3821C61.4034 40.3304 61.398 37.4074 62.0108 35.315C62.095 35.0275 62.3922 35.123 62.35 35.4194Z" fill="#7DBEFF"/>
<path d="M131.467 2.9075C131.066 2.71973 130.645 2.5483 130.217 2.39283C130.009 2.55067 129.806 2.71073 129.606 2.87267C130.052 3.06562 130.428 3.24656 130.75 3.41769C130.992 3.24026 131.231 3.07009 131.467 2.9075Z" fill="#7DBEFF"/>
<path fill-rule="evenodd" clip-rule="evenodd" d="M133.63 0.218742C132.399 0.859226 131.261 1.59792 130.217 2.39283C128.637 1.8197 126.958 1.4635 125.825 1.30529C124.86 1.19135 125.419 1.37204 126.254 1.6421L126.256 1.64268L126.259 1.64345L126.26 1.64387C126.391 1.68642 126.53 1.73116 126.67 1.77731C127.896 2.18411 128.85 2.54564 129.606 2.87267C128.187 4.02178 126.957 5.26592 125.918 6.48764C124.958 6.29451 124.062 6.14806 123.422 6.05941C122.582 5.92731 121.386 6.19135 123.899 6.62538C124.438 6.71849 124.975 6.84511 125.498 6.99383C123.728 9.17473 122.583 11.2306 122.09 12.4791C122.079 12.5104 122.068 12.5428 122.056 12.5761L122.017 12.6875C121.632 13.7803 121.026 15.5021 123.396 11.312C124.214 9.86603 125.259 8.50753 126.4 7.27543C127.483 7.64289 128.472 8.08185 129.252 8.47851C129.919 8.81783 131.007 8.79004 131.098 8.44251C131.162 8.19605 130.854 8.03121 130.621 7.90641L130.588 7.88886C129.734 7.42987 128.338 7.02526 126.942 6.70681C128.177 5.44701 129.498 4.3353 130.75 3.41769C131.906 4.03265 132.358 4.52107 132.787 4.98544C132.918 5.12736 133.047 5.26703 133.193 5.40739C133.753 5.8447 134.07 5.94326 134.237 5.88C134.48 5.78821 134.372 5.42389 134.258 5.19162C133.801 4.25879 132.735 3.50141 131.467 2.9075C132.401 2.26361 133.278 1.73876 134.027 1.35363C134.448 1.13742 134.985 0.849696 134.93 0.382012C134.907 0.195442 134.764 0.0890444 134.584 0.0341942C134.264 -0.0637108 133.927 0.0644548 133.63 0.218742ZM131.467 2.9075C131.231 3.07009 130.992 3.24026 130.75 3.41769C130.428 3.24656 130.052 3.06562 129.606 2.87267C129.806 2.71073 130.009 2.55067 130.217 2.39283C130.645 2.5483 131.066 2.71973 131.467 2.9075ZM126.942 6.70681C126.76 6.89316 126.579 7.08275 126.4 7.27543C126.106 7.17551 125.804 7.08088 125.498 6.99383C125.635 6.82574 125.775 6.6569 125.918 6.48764C126.254 6.55515 126.598 6.62836 126.942 6.70681Z" fill="#7DBEFF"/>
<path d="M126.4 7.27543C126.579 7.08275 126.76 6.89316 126.942 6.70681C126.598 6.62836 126.254 6.55515 125.918 6.48764C125.775 6.6569 125.635 6.82574 125.498 6.99383C125.804 7.08088 126.106 7.17551 126.4 7.27543Z" fill="#7DBEFF"/>
<path fill-rule="evenodd" clip-rule="evenodd" d="M143.115 19.7992C141.623 18.3435 140.486 17.3569 139.527 16.6164C139.778 16.5169 140.027 16.4219 140.273 16.332C141.265 17.0946 142.182 17.8676 142.939 18.5368C143.757 19.2596 144.009 20.5614 143.178 19.8535C143.156 19.8352 143.135 19.8171 143.115 19.7992ZM139.426 15.6977C140.642 15.1258 141.817 14.6264 142.901 14.2413C143.345 14.1018 143.765 14.0376 144.042 14.1044C144.499 14.2144 144.211 14.8221 143.806 15.0591C143.742 15.0965 143.67 15.1378 143.59 15.1833C143.136 15.4393 142.642 15.6078 142.138 15.7399C141.54 15.8966 140.916 16.0972 140.273 16.332C139.996 16.1189 139.713 15.9067 139.426 15.6977ZM138.733 16.0289C137.937 15.4655 137.244 15.0531 136.521 14.6223L136.52 14.6212C136.179 14.4185 135.832 14.2116 135.464 13.9828C134.401 13.3229 133.523 12.2941 136.076 13.5924C137.183 14.1549 138.333 14.9024 139.426 15.6977C139.196 15.8056 138.965 15.9161 138.733 16.0289ZM135.623 17.6298C136.664 17.0674 137.71 16.5258 138.733 16.0289C138.986 16.2077 139.249 16.4017 139.527 16.6164C138.495 17.0254 137.428 17.5101 136.362 18.0329C136.129 17.8966 135.883 17.7619 135.623 17.6298ZM134.677 18.1471C133.05 17.2717 131.43 16.7029 130.394 16.4312C130.243 16.3915 130.095 16.3431 129.952 16.2788C128.635 15.6841 127.524 14.9885 132.376 16.3742C133.638 16.7345 134.713 17.1664 135.623 17.6298C135.307 17.8005 134.992 17.9732 134.677 18.1471ZM135.361 18.534C135.694 18.364 136.028 18.1966 136.362 18.0329C138.289 19.1597 139.331 20.3974 139.761 21.2191C139.893 21.4706 139.971 21.7495 139.979 22.033C140.006 23.0183 139.14 21.9708 138.653 21.2431C137.763 20.1618 136.583 19.2601 135.361 18.534ZM135.361 18.534C135.134 18.399 134.906 18.2701 134.677 18.1471C132.837 19.1647 131.039 20.2249 129.435 21.1934C127.551 22.332 127.74 22.7579 129.653 21.6677L129.668 21.6593C131.359 20.6954 133.339 19.5671 135.361 18.534Z" fill="#7DBEFF"/>
<path d="M136.362 18.0329C136.129 17.8966 135.883 17.7619 135.623 17.6298C135.307 17.8005 134.992 17.9732 134.677 18.1471C134.906 18.2701 135.134 18.399 135.361 18.534C135.694 18.364 136.028 18.1966 136.362 18.0329Z" fill="#7DBEFF"/>
<path d="M139.527 16.6164C139.778 16.5169 140.027 16.4219 140.273 16.332C139.996 16.1189 139.713 15.9067 139.426 15.6977C139.196 15.8056 138.965 15.9161 138.733 16.0289C138.986 16.2077 139.249 16.4017 139.527 16.6164Z" fill="#7DBEFF"/>
<path d="M84.6395 25.7154C79.3308 26.3318 73.6718 23.7457 71.1457 22.1667C70.8867 22.0048 70.62 21.8533 70.3351 21.7426C67.8002 20.7573 67.0632 21.6223 66.9895 22.532C66.9546 22.9637 67.1879 23.362 67.4974 23.6668C71.1728 27.2864 77.1275 28.1897 79.948 28.4272C80.1937 28.4479 80.279 28.7729 80.0745 28.91C75.5945 31.9139 71.5288 35.8801 69.7915 38.0532C69.3168 38.6471 69.0135 39.3895 69.1331 40.1388C69.4886 42.3667 72.0285 40.8164 73.4171 39.5993C77.0211 35.521 81.6954 31.7731 83.582 30.4089C88.5769 26.5106 86.3682 25.6556 84.6395 25.7154Z" fill="#7DBEFF"/>
<path d="M111.026 12.6491C106.572 17.3416 101.652 20.5358 99.2659 21.6703C97.5737 22.5457 97.6685 23.5049 97.7688 23.9815C98.2641 25.7495 101.711 25.379 103.262 25.3787C109.441 25.56 113.418 26.752 115.734 27.4909C119.451 28.8654 121.179 28.7885 121.745 28.496C123.579 27.2913 121.546 25.7339 120.469 25.224C116.801 23.2894 108.88 22.8183 104.724 22.7189C104.232 22.7072 104.037 22.0862 104.445 21.8133C106.976 20.1193 108.926 19.1856 113.267 15.0627C115.469 12.7631 115.081 11.6884 114.445 11.1947C113.616 10.6887 112.311 11.2958 111.026 12.6491Z" fill="#7DBEFF"/>
<path fill-rule="evenodd" clip-rule="evenodd" d="M84.5592 24.6613L84.6025 24.6598C85.1096 24.6422 85.7195 24.6868 86.2644 24.881C86.8005 25.0721 87.4932 25.5001 87.6726 26.3646C87.8378 27.1611 87.4755 27.9492 86.9506 28.6524C86.4014 29.3882 85.5198 30.2397 84.238 31.2402C84.2328 31.2442 84.2276 31.2482 84.2224 31.2521C84.2172 31.256 84.212 31.2598 84.2068 31.2636C82.3592 32.5995 77.7507 36.296 74.2152 40.2969C74.1854 40.3306 74.1534 40.3624 74.1196 40.3921C73.39 41.0315 72.2712 41.8428 71.2003 42.1708C70.6701 42.3332 69.9593 42.4365 69.2946 42.1169C68.5667 41.767 68.2058 41.0699 68.0836 40.3046C67.902 39.1663 68.3711 38.1323 68.9598 37.396C70.5391 35.4204 73.9045 32.0874 77.7751 29.2349C76.5726 29.0528 75.1732 28.7691 73.7291 28.3248C71.3379 27.5889 68.7534 26.391 66.7496 24.4176C66.3313 24.0056 65.8598 23.3192 65.9304 22.4474C65.9876 21.7415 66.3371 20.8542 67.3383 20.4485C68.2332 20.0859 69.376 20.2357 70.7219 20.7588C71.0989 20.9054 71.4314 21.0977 71.711 21.2725C74.1596 22.803 79.5641 25.2413 84.5162 24.6663L84.5592 24.6613ZM79.0353 28.3367C79.0906 28.343 79.1451 28.3491 79.199 28.355C79.3865 28.3755 79.5653 28.3932 79.7344 28.4087C79.8074 28.4154 79.8787 28.4214 79.948 28.4272C80.1937 28.4479 80.279 28.7729 80.0745 28.91C80.0152 28.9498 79.9558 28.9899 79.8966 29.0301C79.7484 29.1305 79.6007 29.232 79.4536 29.3343C79.408 29.3661 79.3624 29.3979 79.3169 29.4298C75.1409 32.3581 71.4303 36.0033 69.7915 38.0532C69.3168 38.6471 69.0135 39.3895 69.1331 40.1388C69.4886 42.3667 72.0285 40.8164 73.4171 39.5993C77.0211 35.521 81.6954 31.7731 83.582 30.4089C88.5769 26.5106 86.3682 25.6556 84.6395 25.7154C79.3308 26.3318 73.6718 23.7457 71.1457 22.1667C70.8867 22.0048 70.62 21.8533 70.3351 21.7426C67.8002 20.7573 67.0632 21.6223 66.9895 22.532C66.9546 22.9637 67.1879 23.362 67.4974 23.6668C70.8132 26.9323 75.9842 27.9872 79.0353 28.3367ZM98.7913 20.7251L98.8074 20.7174C101.069 19.6418 105.885 16.5269 110.253 11.9241C110.953 11.1868 111.714 10.5915 112.479 10.2574C113.237 9.92685 114.171 9.78867 115.001 10.2943L115.052 10.3254L115.099 10.362C115.668 10.8038 116.139 11.5577 115.97 12.6176C115.82 13.5544 115.186 14.5907 114.037 15.7913L114.019 15.8095L114.001 15.8269C110.478 19.173 108.464 20.4834 106.529 21.7222C108.407 21.802 110.674 21.9538 112.913 22.2353C115.87 22.6073 118.928 23.2219 120.948 24.2806C121.569 24.5786 122.52 25.1922 123.077 26.0048C123.367 26.4292 123.628 27.0238 123.521 27.7104C123.41 28.4195 122.949 28.9716 122.331 29.3778L122.284 29.4082L122.235 29.4337C121.661 29.73 120.823 29.791 119.794 29.6676C118.723 29.5391 117.284 29.19 115.387 28.4898C113.12 27.7673 109.259 26.6137 103.247 26.4354C103.088 26.4358 102.887 26.4414 102.657 26.4478C101.926 26.4681 100.9 26.4966 99.9976 26.3929C99.3829 26.3224 98.712 26.1829 98.1309 25.8849C97.5269 25.5751 96.9687 25.0629 96.7453 24.2652L96.7359 24.232L96.7288 24.1982C96.6609 23.8753 96.5673 23.2621 96.8677 22.5613C97.1676 21.862 97.7843 21.2461 98.7754 20.7333L98.7913 20.7251ZM103.262 25.3787C109.441 25.56 113.418 26.752 115.734 27.4909C119.451 28.8654 121.179 28.7885 121.745 28.496C123.579 27.2913 121.546 25.7339 120.469 25.224C116.801 23.2894 108.88 22.8183 104.724 22.7189C104.232 22.7072 104.037 22.0862 104.445 21.8133C104.925 21.4923 105.383 21.1989 105.841 20.9056C107.801 19.6513 109.749 18.4042 113.267 15.0627C115.469 12.7631 115.081 11.6884 114.445 11.1947C113.616 10.6887 112.311 11.2958 111.026 12.6491C106.572 17.3416 101.652 20.5358 99.2659 21.6703C97.5737 22.5457 97.6685 23.5049 97.7688 23.9815C98.1978 25.5129 100.841 25.4401 102.549 25.3929C102.813 25.3857 103.055 25.3788 103.262 25.3787Z" fill="white"/>
</g>
</svg>
