<svg width="172" height="41" viewBox="0 0 172 41" fill="none" xmlns="http://www.w3.org/2000/svg">
<rect width="172" height="41" fill="#F2F2F2" />

<path d="M31.8002 20.8995C31.8002 20.1904 31.7366 19.5086 31.6184 18.854H22.2002V22.7222H27.582C27.3502 23.9722 26.6457 25.0313 25.5866 25.7404V28.2495H28.8184C30.7093 26.5086 31.8002 23.9449 31.8002 20.8995Z" fill="#4285F4"/>
<path d="M22.1991 30.6728C24.8991 30.6728 27.1627 29.7773 28.8172 28.2501L25.5854 25.741C24.69 26.341 23.5445 26.6955 22.1991 26.6955C19.5945 26.6955 17.39 24.9364 16.6036 22.5728H13.2627V25.1637C14.9082 28.4319 18.29 30.6728 22.1991 30.6728Z" fill="#34A853"/>
<path d="M16.6047 22.573C16.4047 21.973 16.2911 21.3321 16.2911 20.673C16.2911 20.0139 16.4047 19.373 16.6047 18.773V16.1821H13.2638C12.5866 17.5321 12.2002 19.0594 12.2002 20.673C12.2002 22.2866 12.5866 23.8139 13.2638 25.1639L16.6047 22.573Z" fill="#FBBC04"/>
<path d="M22.1991 14.6497C23.6672 14.6497 24.9854 15.1542 26.0218 16.1451L28.89 13.2769C27.1582 11.6633 24.8945 10.6724 22.1991 10.6724C18.29 10.6724 14.9082 12.9133 13.2627 16.1815L16.6036 18.7724C17.39 16.4088 19.5945 14.6497 22.1991 14.6497Z" fill="#E94235"/>
<path d="M82.9688 15.6724C82.9688 16.5682 82.9453 17.3625 82.8984 18.0552C82.8568 18.7479 82.7474 19.5369 82.5703 20.4224H84.6406V21.438H78.9062V27.4692H77.6719V21.438H71.9844V20.4224H81.3281C81.5156 19.5369 81.6328 18.7453 81.6797 18.0474C81.7266 17.3494 81.75 16.5578 81.75 15.6724V15.4692H73.5781V14.4536H82.9688V15.6724ZM96.8594 15.0474C96.8594 15.7192 96.8411 16.3312 96.8047 16.8833C96.7682 17.4354 96.6823 18.0578 96.5469 18.7505H98.5312V19.7349H85.8125V18.7505H95.3125C95.4531 18.063 95.5417 17.4458 95.5781 16.8989C95.6198 16.3468 95.6406 15.7661 95.6406 15.1567H87.4219V14.1567H96.8594V15.0474ZM96.9062 24.6411H88.5781V26.2817H97.2656V27.2817H87.3438V23.6724H95.6875V22.1255H87.3281V21.1411H96.9062V24.6411ZM116.375 25.7192H103.656V24.688H109.375V22.063H105.25V17.7817H113.562V15.5942H105.219V14.5786H114.766V18.7817H106.469V21.0474H115.094V22.063H110.578V24.688H116.375V25.7192ZM128.438 16.4224C128.438 17.2192 128.427 17.9146 128.406 18.5083C128.391 19.1021 128.346 19.7948 128.273 20.5864C128.201 21.3781 128.083 22.2401 127.922 23.1724L126.672 23.0474C126.844 22.1672 126.971 21.339 127.055 20.563C127.138 19.7817 127.188 19.0942 127.203 18.5005C127.224 17.9015 127.234 17.2088 127.234 16.4224V16.0474H118.859V15.0317H128.438V16.4224ZM130.141 25.3911H117.484V24.3755H130.141V25.3911ZM142.781 23.7192H141.562V13.563H142.781V23.7192ZM143.219 27.1411H133.812V22.688H135.031V26.1099H143.219V27.1411ZM135.281 14.5317C135.969 14.5317 136.589 14.6776 137.141 14.9692C137.698 15.2557 138.133 15.6593 138.445 16.1802C138.763 16.6958 138.922 17.2817 138.922 17.938C138.922 18.6047 138.763 19.1984 138.445 19.7192C138.133 20.2349 137.698 20.6385 137.141 20.9302C136.589 21.2166 135.969 21.3599 135.281 21.3599C134.594 21.3599 133.971 21.2166 133.414 20.9302C132.862 20.6385 132.427 20.2349 132.109 19.7192C131.797 19.1984 131.641 18.6047 131.641 17.938C131.641 17.2817 131.797 16.6958 132.109 16.1802C132.427 15.6593 132.862 15.2557 133.414 14.9692C133.971 14.6776 134.594 14.5317 135.281 14.5317ZM135.281 15.6099C134.818 15.6099 134.398 15.7088 134.023 15.9067C133.654 16.1047 133.362 16.3807 133.148 16.7349C132.94 17.089 132.839 17.4901 132.844 17.938C132.839 18.3911 132.94 18.7974 133.148 19.1567C133.362 19.5109 133.654 19.7869 134.023 19.9849C134.398 20.1828 134.818 20.2817 135.281 20.2817C135.734 20.2817 136.146 20.1828 136.516 19.9849C136.891 19.7869 137.185 19.5109 137.398 19.1567C137.612 18.7974 137.719 18.3911 137.719 17.938C137.719 17.4953 137.612 17.0968 137.398 16.7427C137.185 16.3885 136.891 16.1125 136.516 15.9146C136.146 15.7114 135.734 15.6099 135.281 15.6099Z" fill="#333333"/>
</svg>
