<svg width="24" height="24" viewBox="0 0 24 24" fill="none" xmlns="http://www.w3.org/2000/svg">
<g clip-path="url(#clip0_4452_344)">
<path d="M12 9.81836V14.4656H18.4582C18.1746 15.9602 17.3236 17.2257 16.0472 18.0766L19.9417 21.0984C22.2108 19.0039 23.5199 15.9276 23.5199 12.273C23.5199 11.4221 23.4436 10.6039 23.3017 9.81849L12 9.81836Z" fill="#7DBEFF"/>
<path d="M5.27461 14.2832L4.39625 14.9556L1.28711 17.3774C3.26165 21.2937 7.30862 23.9992 11.9995 23.9992C15.2394 23.9992 17.9557 22.9301 19.9412 21.0974L16.0467 18.0756C14.9776 18.7956 13.614 19.232 11.9995 19.232C8.87951 19.232 6.22868 17.1265 5.27952 14.2901L5.27461 14.2832Z" fill="#7DBEFF"/>
<path d="M1.28718 6.62109C0.469042 8.23557 0 10.0574 0 11.9992C0 13.941 0.469042 15.7628 1.28718 17.3773C1.28718 17.3881 5.27997 14.2791 5.27997 14.2791C5.03998 13.5591 4.89812 12.7955 4.89812 11.9991C4.89812 11.2026 5.03998 10.439 5.27997 9.71902L1.28718 6.62109Z" fill="#7DBEFF"/>
<path d="M11.9997 4.77818C13.767 4.77818 15.3379 5.38907 16.5925 6.56727L20.0288 3.13095C17.9452 1.18917 15.2398 0 11.9997 0C7.30887 0 3.26165 2.69454 1.28711 6.62183L5.27978 9.72001C6.22882 6.88362 8.87976 4.77818 11.9997 4.77818Z" fill="#7DBEFF"/>
</g>
<defs>
<clipPath id="clip0_4452_344">
<rect width="24" height="24" fill="white"/>
</clipPath>
</defs>
</svg>
