<svg width="172" height="41" viewBox="0 0 172 41" fill="none" xmlns="http://www.w3.org/2000/svg">
<rect width="172" height="41" fill="#FEE500" />
<path d="M22 11.4443C16.4771 11.4443 12 14.9744 12 19.329C12 22.1442 13.8717 24.6145 16.6873 26.0094C16.5341 26.5377 15.703 29.4079 15.6699 29.6334C15.6699 29.6334 15.65 29.8028 15.7597 29.8674C15.8694 29.932 15.9985 29.8818 15.9985 29.8818C16.3131 29.8379 19.6468 27.4962 20.2238 27.0895C20.8003 27.1712 21.3938 27.2136 22 27.2136C27.5229 27.2136 32 23.6836 32 19.329C32 14.9744 27.5229 11.4443 22 11.4443Z" fill="black"/>
<path d="M72.2734 15.0005C72.2682 16.4432 72.0729 17.7739 71.6875 18.9927C71.3021 20.2062 70.6406 21.339 69.7031 22.3911C68.7656 23.438 67.4974 24.3547 65.8984 25.1411L65.2109 24.2036C66.487 23.589 67.5365 22.8859 68.3594 22.0942C69.1823 21.2974 69.8099 20.4172 70.2422 19.4536L65.4766 19.9067L65.2734 18.8286L70.6172 18.4692C70.8516 17.7088 70.9974 16.8911 71.0547 16.0161H65.9766V15.0005H72.2734ZM75.8203 19.2036H78.0703V20.2349H75.8203V27.438H74.6016V13.5474H75.8203V19.2036ZM86.1016 15.0005C86.0964 16.4432 85.901 17.7739 85.5156 18.9927C85.1302 20.2062 84.4688 21.339 83.5312 22.3911C82.5938 23.438 81.3255 24.3547 79.7266 25.1411L79.0391 24.2036C80.3151 23.589 81.3646 22.8859 82.1875 22.0942C83.0104 21.2974 83.638 20.4172 84.0703 19.4536L79.3047 19.9067L79.1016 18.8286L84.4453 18.4692C84.6797 17.7088 84.8255 16.8911 84.8828 16.0161H79.8047V15.0005H86.1016ZM89.6484 19.2036H91.8984V20.2349H89.6484V27.438H88.4297V13.5474H89.6484V19.2036ZM99.0547 14.4536C100.034 14.4588 100.909 14.6125 101.68 14.9146C102.451 15.2166 103.052 15.6437 103.484 16.1958C103.917 16.7427 104.133 17.3755 104.133 18.0942C104.133 18.7713 103.943 19.3729 103.562 19.8989C103.188 20.425 102.661 20.8442 101.984 21.1567C101.307 21.4692 100.529 21.6541 99.6484 21.7114V24.6255H105.445V25.6567H92.7266V24.6255H98.4453V21.7114C97.5703 21.6541 96.7943 21.4692 96.1172 21.1567C95.4401 20.839 94.9141 20.4198 94.5391 19.8989C94.1641 19.3729 93.9766 18.7713 93.9766 18.0942C93.9766 17.3755 94.1927 16.7427 94.625 16.1958C95.0573 15.6437 95.6589 15.2166 96.4297 14.9146C97.2005 14.6125 98.0755 14.4588 99.0547 14.4536ZM99.0547 15.4692C98.3099 15.4692 97.6406 15.5812 97.0469 15.8052C96.4583 16.0239 95.9974 16.3338 95.6641 16.7349C95.3307 17.1307 95.1641 17.5838 95.1641 18.0942C95.1641 18.6203 95.3307 19.0838 95.6641 19.4849C95.9974 19.8859 96.4583 20.1958 97.0469 20.4146C97.6354 20.6333 98.3047 20.7453 99.0547 20.7505C99.8047 20.7453 100.474 20.6333 101.062 20.4146C101.651 20.1958 102.112 19.8859 102.445 19.4849C102.779 19.0838 102.945 18.6203 102.945 18.0942C102.945 17.5838 102.779 17.1307 102.445 16.7349C102.112 16.3338 101.648 16.0239 101.055 15.8052C100.466 15.5812 99.7995 15.4692 99.0547 15.4692ZM123.289 25.7192H110.57V24.688H116.289V22.063H112.164V17.7817H120.477V15.5942H112.133V14.5786H121.68V18.7817H113.383V21.0474H122.008V22.063H117.492V24.688H123.289V25.7192ZM135.352 16.4224C135.352 17.2192 135.341 17.9146 135.32 18.5083C135.305 19.1021 135.26 19.7948 135.188 20.5864C135.115 21.3781 134.997 22.2401 134.836 23.1724L133.586 23.0474C133.758 22.1672 133.885 21.339 133.969 20.563C134.052 19.7817 134.102 19.0942 134.117 18.5005C134.138 17.9015 134.148 17.2088 134.148 16.4224V16.0474H125.773V15.0317H135.352V16.4224ZM137.055 25.3911H124.398V24.3755H137.055V25.3911ZM149.695 23.7192H148.477V13.563H149.695V23.7192ZM150.133 27.1411H140.727V22.688H141.945V26.1099H150.133V27.1411ZM142.195 14.5317C142.883 14.5317 143.503 14.6776 144.055 14.9692C144.612 15.2557 145.047 15.6593 145.359 16.1802C145.677 16.6958 145.836 17.2817 145.836 17.938C145.836 18.6047 145.677 19.1984 145.359 19.7192C145.047 20.2349 144.612 20.6385 144.055 20.9302C143.503 21.2166 142.883 21.3599 142.195 21.3599C141.508 21.3599 140.885 21.2166 140.328 20.9302C139.776 20.6385 139.341 20.2349 139.023 19.7192C138.711 19.1984 138.555 18.6047 138.555 17.938C138.555 17.2817 138.711 16.6958 139.023 16.1802C139.341 15.6593 139.776 15.2557 140.328 14.9692C140.885 14.6776 141.508 14.5317 142.195 14.5317ZM142.195 15.6099C141.732 15.6099 141.312 15.7088 140.938 15.9067C140.568 16.1047 140.276 16.3807 140.062 16.7349C139.854 17.089 139.753 17.4901 139.758 17.938C139.753 18.3911 139.854 18.7974 140.062 19.1567C140.276 19.5109 140.568 19.7869 140.938 19.9849C141.312 20.1828 141.732 20.2817 142.195 20.2817C142.648 20.2817 143.06 20.1828 143.43 19.9849C143.805 19.7869 144.099 19.5109 144.312 19.1567C144.526 18.7974 144.633 18.3911 144.633 17.938C144.633 17.4953 144.526 17.0968 144.312 16.7427C144.099 16.3885 143.805 16.1125 143.43 15.9146C143.06 15.7114 142.648 15.6099 142.195 15.6099Z" fill="#333333"/>
</svg>
