<svg width="19" height="19" viewBox="0 0 19 19" fill="none" xmlns="http://www.w3.org/2000/svg">
<g id="leader">
<g id="Vector">
<path d="M1.59314 17.0107C1.59314 16.4648 2.0357 16.0222 2.58163 16.0222H16.4204C16.9663 16.0222 17.4089 16.4648 17.4089 17.0107V17.505C17.4089 18.0509 16.9663 18.4935 16.4204 18.4935H2.58163C2.0357 18.4935 1.59314 18.0509 1.59314 17.505V17.0107Z" fill="#FFB526"/>
<path d="M4.70196 5.43314L1.62321 2.86751C0.923744 2.28462 -0.12504 2.87728 0.0134086 3.77719L1.46416 13.2071C1.53834 13.6893 1.95326 14.0452 2.44115 14.0452H16.5608C17.0487 14.0452 17.4636 13.6893 17.5378 13.2071L18.9885 3.77719C19.127 2.87728 18.0782 2.28462 17.3787 2.86751L14.3 5.43314C13.8486 5.80931 13.1707 5.71098 12.8447 5.22207L10.3234 1.44017C9.93218 0.853276 9.06977 0.853276 8.67851 1.44017L6.15724 5.22207C5.8313 5.71098 5.15337 5.80931 4.70196 5.43314Z" fill="#FFB526"/>
<path d="M16.158 12.4058L17.8239 6.15892C17.8536 6.0476 17.6931 5.97772 17.6282 6.07293C14.6873 10.3878 10.1691 12.0507 7.68375 12.7997C7.57272 12.8332 7.59771 12.9997 7.71368 12.9997H15.385C15.7475 12.9997 16.0646 12.756 16.158 12.4058Z" fill="#FFCC69"/>
</g>
</g>
</svg>
