<svg width="870" height="404" viewBox="0 0 870 404" fill="none" xmlns="http://www.w3.org/2000/svg">
<path d="M137.056 382.47C129.099 386.376 121.876 387.494 115.388 385.827C108.9 384.159 102.62 380.609 96.5474 375.178C90.5415 369.553 84.2174 362.952 77.575 355.375L23.984 294.332C19.8571 289.564 17.6834 284.322 17.463 278.607C17.1784 272.762 19.7169 267.553 25.0783 262.98C30.0485 258.6 35.3279 256.494 40.9166 256.662C46.5052 256.831 51.5244 259.462 55.974 264.557L105.215 320.214C109.536 325.048 113.186 328.352 116.164 330.126C119.272 331.835 122.558 331.273 126.022 328.441C129.226 325.736 130.189 322.756 128.912 319.501C127.634 316.246 124.803 312.136 120.417 307.171L84.5318 265.826C79.6313 260.143 77.0708 254.445 76.8503 248.73C76.6962 242.82 79.4624 237.58 85.1488 233.01C90.9016 228.245 96.5358 226.531 102.051 227.868C107.633 229.01 112.552 232.095 116.807 237.124L163.325 291.69C168.162 297.243 172.103 300.646 175.149 301.9C178.326 303.091 181.321 302.43 184.133 299.917C187.272 297.082 188.04 294.198 186.435 291.266C184.766 288.203 182.099 283.932 178.432 278.453C172.771 269.908 168.042 262.928 164.244 257.513C160.577 252.034 157.522 247.468 155.077 243.816C152.763 240.099 150.804 236.612 149.202 233.355C145.613 226.058 144.72 218.813 146.525 211.618C148.266 204.294 152.853 198.807 160.288 195.157C167.854 191.444 174.747 190.972 180.968 193.742C187.124 196.381 192.189 201.74 196.163 209.819C198.727 215.03 200.637 220.887 201.892 227.388C203.277 233.825 204.502 239.937 205.567 245.722L213.166 288.821C214.918 298.637 216.254 307.606 217.173 315.728C218.158 323.655 217.622 330.631 215.565 336.655C213.445 342.549 208.667 347.32 201.232 350.97C192.231 355.387 183.81 356.043 175.966 352.938C168.123 349.832 159.691 342.567 150.67 331.143L149.301 331.815C152.974 345.864 154.036 356.747 152.487 364.462C150.939 372.178 145.795 378.18 137.056 382.47Z" fill="white"/>
<path d="M224.305 306.617C222.513 296.451 222.933 287.157 225.565 278.734C228.327 270.288 233.058 263.221 239.758 257.531C246.587 251.82 255.219 248.046 265.654 246.211C273.769 244.783 281.309 244.983 288.271 246.81C295.363 248.614 301.219 251.696 305.839 256.058C310.437 260.29 313.258 265.366 314.301 271.285C315.39 277.462 314.358 282.154 311.204 285.362C308.051 288.57 302.932 290.797 295.847 292.043L255.268 299.181C255.858 302.526 257.634 305.066 260.596 306.801C263.687 308.512 268.388 308.813 274.7 307.703C277.921 307.136 280.827 306.294 283.419 305.174C286.139 304.033 288.871 302.955 291.615 301.942C294.464 300.777 297.693 299.878 301.299 299.243C306.452 298.337 311.032 299.455 315.039 302.598C319.024 305.612 321.583 310.335 322.717 316.769C324.056 324.361 321.17 330.972 314.061 336.6C307.08 342.206 297.277 346.119 284.653 348.34C275.764 349.903 267.085 349.639 258.614 347.546C250.272 345.432 242.996 341.073 236.785 334.471C230.552 327.74 226.392 318.455 224.305 306.617ZM285.449 287.305C287.381 286.965 287.866 285.951 286.905 284.263C286.072 282.552 284.197 280.958 281.28 279.481C278.364 278.004 274.458 277.696 269.563 278.557C263.894 279.554 259.859 281.524 257.456 284.468C255.182 287.389 254.271 290.136 254.725 292.709L285.449 287.305Z" fill="white"/>
<path d="M514.029 303.835C505.028 302.155 498.336 297.384 493.951 289.521C489.567 281.658 488.464 271.55 490.641 259.196L498.772 214.658C499.805 209.135 502.281 205.144 506.201 202.686C510.273 200.123 515.266 199.393 521.181 200.497C526.838 201.552 531.102 204.01 533.973 207.868C536.868 211.599 537.8 216.225 536.767 221.748L529.236 262.012C527.434 271.645 530.326 277.169 537.913 278.585C541.641 279.281 544.401 278.4 546.191 275.943C548.005 273.357 549.321 269.881 550.138 265.514L557.596 225.635C558.533 220.626 561.05 216.776 565.146 214.085C569.266 211.265 574.091 210.371 579.619 211.402C585.405 212.482 589.517 215.044 591.954 219.088C594.544 223.027 595.371 227.501 594.434 232.51L582.615 295.7C581.462 301.865 579.123 306.546 575.598 309.742C572.225 312.835 567.453 313.805 561.281 312.653C555.238 311.525 550.817 308.839 548.018 304.595C545.371 300.247 544.625 294.99 545.778 288.825L546.39 285.55L542.919 284.902C541.525 292.352 538.194 297.711 532.925 300.981C527.785 304.275 521.486 305.227 514.029 303.835Z" fill="white"/>
<path d="M623.612 174.646C625.334 169.297 628.335 165.526 632.614 163.332C637.057 161.054 642.205 160.855 648.058 162.736C654.284 164.736 658.37 167.833 660.317 172.027C662.389 176.261 662.564 181.053 660.842 186.401C659.16 191.625 656.241 195.354 652.087 197.588C648.097 199.737 642.989 199.812 636.763 197.811C630.662 195.851 626.493 192.796 624.257 188.646C622.185 184.412 621.97 179.745 623.612 174.646ZM603.901 299.867C598.049 297.986 594.211 294.969 592.389 290.815C590.566 286.661 590.436 282.159 591.998 277.308L612.544 213.5C614.266 208.151 617.06 204.382 620.925 202.193C624.79 200.004 629.649 199.849 635.502 201.729C641.354 203.61 645.212 206.565 647.074 210.594C649.062 214.664 649.234 219.249 647.592 224.348L626.926 288.529C625.364 293.38 622.506 296.923 618.351 299.156C614.322 301.43 609.505 301.667 603.901 299.867Z" fill="white"/>
<path d="M634.584 355.872C626.831 353.083 621.241 348.921 617.815 343.383C614.389 337.846 613.873 331.759 616.265 325.12C618.703 318.359 622.242 313.939 626.885 311.859C631.527 309.779 636.145 308.732 640.738 308.717L689.097 308.196L689.363 307.458L651.889 293.98C646.35 291.989 642.267 288.854 639.639 284.575C637.177 280.219 637.032 275.028 639.204 269.005C641.419 262.858 644.843 258.951 649.476 257.285C654.231 255.662 659.378 255.847 664.916 257.839L710.144 274.105C716.051 276.23 720.526 279.436 723.568 283.724C726.733 288.056 727.008 293.849 724.394 301.102C722.4 306.634 718.993 310.686 714.174 313.257C709.477 315.873 703.486 317.259 696.2 317.416L656.34 318.078L656.074 318.816L693.733 332.36C699.763 334.529 704.15 337.981 706.891 342.717C709.633 347.452 709.808 353.139 707.415 359.777C704.978 366.539 701.214 370.809 696.124 372.589C691.033 374.369 685.473 374.174 679.443 372.006L634.584 355.872Z" fill="white"/>
<path d="M766.748 299.299C760.715 296.421 756.455 292.699 753.967 288.133C751.611 283.63 751.685 278.759 754.191 273.519C759.264 262.908 767.761 256.424 779.679 254.066C788.492 252.478 796.763 251.518 804.492 251.183C812.416 250.781 819.894 249.12 826.927 246.201C830.222 245.038 832.564 243.34 833.954 241.107C835.406 238.743 835.593 236.499 834.514 234.376C833.567 232.315 831.788 230.984 829.177 230.381C826.628 229.648 823.707 229.863 820.412 231.026C816.918 231.933 813.883 233.06 811.307 234.405C808.732 235.75 805.965 237.326 803.007 239.132C798.311 241.879 792.891 244.12 786.747 245.854C780.796 247.52 775.133 247.07 769.756 244.505C762.936 241.251 758.436 236.852 756.255 231.307C754.269 225.693 754.81 219.677 757.88 213.258C760.448 207.887 764.73 203.816 770.725 201.046C776.915 198.207 784.174 197.005 792.502 197.439C800.962 197.936 809.848 200.405 819.159 204.848C835.29 212.544 845.393 221.225 849.468 230.892C853.737 240.49 853.585 250.071 849.013 259.634C845.505 266.97 841.049 272.245 835.647 275.459C830.307 278.542 822.675 280.693 812.751 281.911C807.758 282.585 803.814 283.76 800.919 285.436C798.217 287.043 796.084 289.484 794.518 292.759C792.012 297.999 788.266 301.119 783.278 302.118C778.291 303.117 772.781 302.177 766.748 299.299ZM725.237 322.45C728.557 315.507 733.48 310.938 740.006 308.742C746.532 306.547 753.598 307.263 761.204 310.892C768.548 314.396 773.351 319.342 775.611 325.73C777.935 331.987 777.437 338.587 774.117 345.529C770.859 352.341 766.13 356.842 759.929 359.032C753.728 361.222 746.824 360.502 739.218 356.873C731.349 353.119 726.222 348.179 723.836 342.053C721.513 335.796 721.98 329.262 725.237 322.45Z" fill="white"/>
<path fill-rule="evenodd" clip-rule="evenodd" d="M84.7643 388.024L84.6181 387.887C78.1147 381.796 71.3929 374.767 64.4537 366.852L10.8306 305.772L10.7905 305.726C4.37406 298.312 0.446042 289.403 0.0386056 279.363C-0.527672 267.109 5.18963 257.08 13.6445 249.825C21.2628 243.147 30.6716 238.924 41.4422 239.249C48.2595 239.455 54.3205 241.522 59.5688 244.834C60.6023 234.294 66.3786 225.769 74.1147 219.518C82.5577 212.56 93.5415 208.003 105.846 210.863C114.867 212.777 122.418 217.514 128.464 224.005C127.861 218.582 128.199 213.05 129.581 207.488C132.674 194.615 141.047 185.191 152.596 179.522C163.568 174.137 175.94 172.474 187.957 177.781C199.026 182.565 206.661 191.656 211.816 202.135C215.124 208.861 217.47 216.157 218.98 223.9C220.382 230.424 221.63 236.649 222.72 242.572L222.732 242.636L223.789 248.632C225.261 247.111 226.82 245.653 228.462 244.258L228.512 244.216L228.561 244.174C238.143 236.161 249.757 231.318 262.629 229.054C272.843 227.257 282.933 227.408 292.639 229.944C296.961 231.048 301.098 232.55 304.99 234.488C304.522 233.552 304.066 232.606 303.622 231.65C295.553 214.291 291.729 194.847 291.681 173.703C291.631 152.098 295.584 132.199 304 114.395C312.548 96.3127 325.343 81.8302 342.189 71.3165C359.479 60.5258 379.929 55.582 402.657 55.5298C425.354 55.4777 445.767 60.3153 462.958 71.0669C479.83 81.501 492.677 95.9151 501.299 113.942C509.798 131.707 513.842 151.588 513.892 173.193C513.9 176.384 513.821 179.538 513.656 182.654C517.259 182.436 520.867 182.716 524.383 183.372C533.411 185.057 541.883 189.377 547.866 197.336C549.224 199.106 550.356 200.942 551.28 202.825C552.558 201.676 553.94 200.605 555.424 199.62C563.823 193.928 573.423 192.524 582.822 194.278C588.524 195.342 594.11 197.514 598.876 201.145C600.812 197.475 603.336 194.066 606.563 191.173C604.341 183.888 604.73 176.39 607.009 169.312C609.889 160.369 615.56 152.494 624.65 147.834C634.118 142.98 644.221 143.203 653.398 146.151C662.249 148.995 671.315 154.461 676.062 164.533C680.407 173.525 680.247 183.029 677.444 191.735C675.187 198.745 671.21 205.094 665.209 209.768C666.835 216.49 666.247 223.309 664.195 229.683L661.164 239.094C664.447 239.51 667.68 240.317 670.824 241.448L716.052 257.714C723.881 260.53 730.938 265.029 736.272 271.637C736.845 269.721 737.578 267.84 738.453 266.011C741.214 260.236 744.735 255.249 748.93 251.082C745.175 247.383 742.094 242.946 740.022 237.676L739.912 237.396L739.812 237.113C735.989 226.311 737.495 215.467 742.142 205.75C746.654 196.313 754.147 189.512 763.403 185.235L763.425 185.224L763.447 185.214C772.712 180.965 782.891 179.493 793.411 180.042L793.468 180.045L793.526 180.048C804.67 180.702 815.76 183.92 826.676 189.128C844.108 197.445 858.881 208.496 865.474 223.973C871.765 238.228 871.474 253.08 864.75 267.142C860.19 276.677 853.69 285.001 844.571 290.426L844.474 290.485L844.375 290.542C836.162 295.284 825.932 297.836 814.996 299.187C812.485 299.532 811.011 299.968 810.265 300.247C810.262 300.254 810.258 300.261 810.255 300.268C806.409 308.31 800.075 314.829 791.294 317.938C791.546 318.549 791.785 319.17 792.011 319.801C796.172 331.121 794.85 342.59 789.854 353.038C784.925 363.345 776.962 371.495 765.742 375.457C754.043 379.588 742.25 377.626 731.701 372.593C728.69 371.156 725.794 369.498 723.09 367.594C719.348 376.801 712.719 385.244 701.885 389.032C692.333 392.372 682.593 391.655 673.534 388.396L628.676 372.263C618.213 368.5 608.974 362.231 602.979 352.542C596.499 342.07 595.835 330.373 599.856 319.219C600.114 318.503 600.388 317.788 600.678 317.075C599.965 316.884 599.26 316.675 598.561 316.451C597 315.949 595.439 315.361 593.902 314.677C592.141 317.545 589.98 320.224 587.348 322.616C578.56 330.643 567.479 331.532 558.078 329.778C550.128 328.294 542.6 324.78 536.876 318.562C528.571 322.173 519.58 322.593 510.825 320.96C505.873 320.035 501.277 318.453 497.098 316.242C496.604 324.696 494.4 333.032 489.391 340.229C484.378 347.691 477.457 353.17 469.026 356.335C461.877 359.085 454.272 360.323 446.436 360.341C433.06 360.372 420.46 357.522 409.758 350.571C399.67 344.202 392.063 335.362 387.102 324.475L387.03 324.317L386.961 324.157C382.522 313.876 380.401 302.837 380.374 291.266L380.37 289.329C365.41 286.815 351.762 281.784 339.734 273.928L339.686 273.897L339.638 273.865C336.763 271.96 334.014 269.933 331.39 267.786C331.42 267.945 331.449 268.105 331.477 268.264C332.743 275.444 332.475 283.746 328.438 291.136C335.009 297.338 338.437 305.486 339.893 313.748C342.555 328.845 335.981 341.454 324.941 350.215C314.901 358.26 302.002 362.977 287.677 365.497C276.478 367.466 265.34 367.153 254.427 364.458L254.375 364.445L254.323 364.432C244.411 361.919 235.633 357.13 228.11 350.352C223.429 357.577 216.555 362.859 208.923 366.605C196.415 372.745 182.82 374.392 169.539 369.133C169.471 369.106 169.404 369.079 169.336 369.052C166.191 382.702 156.74 392.219 144.747 398.105C134.277 403.244 122.71 405.697 111.041 402.698C101.322 400.199 92.6221 395.052 84.9136 388.157L84.7643 388.024ZM153.126 358.996C153.449 351.951 152.203 343.003 149.388 332.153C149.359 332.04 149.33 331.928 149.301 331.815L150.67 331.143C150.739 331.23 150.808 331.317 150.877 331.404C157.695 340 164.176 346.214 170.321 350.048C172.235 351.242 174.117 352.206 175.966 352.938C183.81 356.043 192.231 355.387 201.232 350.97C208.667 347.32 213.445 342.549 215.565 336.655C215.714 336.22 215.854 335.78 215.987 335.336C217.691 329.619 218.087 323.083 217.173 315.728C216.892 313.244 216.571 310.682 216.213 308.04C215.398 302.042 214.383 295.635 213.166 288.821L205.567 245.722C204.502 239.937 203.277 233.825 201.892 227.388C200.637 220.887 198.727 215.03 196.163 209.819C192.189 201.74 187.124 196.381 180.968 193.742C174.747 190.972 167.854 191.444 160.288 195.157C152.853 198.807 148.266 204.294 146.525 211.618C144.72 218.813 145.613 226.058 149.202 233.355C150.804 236.612 152.763 240.099 155.077 243.816L164.244 257.513C168.042 262.928 172.771 269.908 178.432 278.453C182.099 283.932 184.766 288.203 186.435 291.266C188.04 294.198 187.272 297.082 184.133 299.917C181.321 302.43 178.326 303.091 175.149 301.9C173.991 301.423 172.703 300.635 171.285 299.537C171.276 299.53 171.267 299.523 171.258 299.516C171.156 299.437 171.054 299.356 170.951 299.274C170.945 299.269 170.938 299.264 170.932 299.259C168.706 297.48 166.171 294.957 163.325 291.69L116.807 237.124C112.552 232.095 107.633 229.01 102.051 227.868C96.5358 226.531 90.9016 228.245 85.1488 233.01C79.4624 237.58 76.6962 242.82 76.8503 248.73C77.0708 254.445 79.6313 260.143 84.5318 265.826L120.417 307.171C124.803 312.136 127.634 316.246 128.912 319.501C129.266 320.403 129.447 321.284 129.457 322.145C129.464 322.755 129.384 323.355 129.218 323.944C128.772 325.519 127.708 327.018 126.022 328.441C122.558 331.273 119.272 331.835 116.164 330.126C113.186 328.352 109.536 325.048 105.215 320.214L55.974 264.557C51.5244 259.462 46.5052 256.831 40.9166 256.662C35.3279 256.494 30.0485 258.6 25.0783 262.98C19.7169 267.553 17.1784 272.762 17.463 278.607C17.6834 284.322 19.8571 289.564 23.984 294.332L77.575 355.375C84.2174 362.952 90.5415 369.553 96.5474 375.178C102.62 380.609 108.9 384.159 115.388 385.827C121.876 387.494 129.099 386.376 137.056 382.47C145.795 378.18 150.939 372.178 152.487 364.462C152.823 362.789 153.036 360.967 153.126 358.996ZM223.738 286.938C223.737 286.946 223.736 286.953 223.735 286.961C222.888 293.105 223.078 299.656 224.305 306.617C224.8 309.427 225.412 312.093 226.141 314.616C226.15 314.648 226.16 314.68 226.169 314.712C228.122 321.432 230.906 327.127 234.522 331.798C235.243 332.73 235.998 333.621 236.785 334.471C242.996 341.073 250.272 345.432 258.614 347.546C267.085 349.639 275.764 349.903 284.653 348.34C297.277 346.119 307.08 342.206 314.061 336.6C321.17 330.972 324.056 324.361 322.717 316.769C321.678 310.875 319.443 306.415 316.011 303.391C315.697 303.115 315.373 302.85 315.039 302.598C311.032 299.455 306.452 298.337 301.299 299.243C300.323 299.415 299.374 299.606 298.453 299.817C298.052 299.909 297.657 300.004 297.267 300.103C295.241 300.617 293.357 301.23 291.615 301.942C290.493 302.356 289.372 302.782 288.253 303.218C286.638 303.847 285.027 304.5 283.419 305.174C283.177 305.279 282.933 305.381 282.685 305.48C280.282 306.448 277.621 307.189 274.7 307.703C271.596 308.249 268.881 308.454 266.556 308.317C264.153 308.176 262.167 307.671 260.596 306.801C258.781 305.738 257.411 304.373 256.487 302.705C255.902 301.651 255.496 300.476 255.268 299.181L295.847 292.043C297.269 291.793 298.613 291.503 299.877 291.174C301.527 290.744 303.043 290.247 304.423 289.682C307.25 288.525 309.511 287.085 311.204 285.362C312.014 284.539 312.683 283.618 313.213 282.598C314.748 279.648 315.11 275.877 314.301 271.285C313.258 265.366 310.437 260.29 305.839 256.058C301.219 251.696 295.363 248.614 288.271 246.81C281.309 244.983 273.769 244.783 265.654 246.211C255.219 248.046 246.587 251.82 239.758 257.531C234.741 261.791 230.828 266.823 228.02 272.628C227.077 274.577 226.259 276.612 225.565 278.734C224.738 281.382 224.128 284.117 223.738 286.938ZM254.725 292.709L285.449 287.305C285.503 287.296 285.555 287.286 285.607 287.275C285.798 287.236 285.974 287.19 286.134 287.137C287.255 286.764 287.622 286.04 287.235 284.965C287.156 284.745 287.046 284.512 286.905 284.263C286.422 283.272 285.59 282.321 284.409 281.408C283.55 280.745 282.508 280.103 281.28 279.481C279.458 278.558 277.249 278.092 274.654 278.082C273.748 278.078 272.795 278.13 271.796 278.238C271.076 278.316 270.331 278.422 269.563 278.557C267.673 278.89 265.965 279.33 264.438 279.879C261.385 280.976 259.058 282.506 257.456 284.468C255.182 287.389 254.271 290.136 254.725 292.709ZM397.815 291.226C397.836 300.662 399.557 309.34 402.976 317.258C406.584 325.177 411.983 331.392 419.173 335.905C426.363 340.607 435.438 342.945 446.396 342.92C452.442 342.906 457.919 341.95 462.827 340.051C467.924 338.152 471.979 334.935 474.991 330.398C478.193 325.861 479.785 319.818 479.768 312.269C479.75 304.532 478.13 298.402 474.907 293.88C471.874 289.546 467.805 286.441 462.7 284.566C459.018 283.161 455.02 282.286 450.705 281.941C449.257 281.825 447.774 281.769 446.255 281.772C439.643 281.788 434.634 281.044 431.23 279.542C430.666 279.293 430.136 279.014 429.639 278.703C427.137 277.136 425.489 274.778 424.693 271.631C428.618 270.866 432.382 269.918 435.986 268.786C436.004 268.781 436.022 268.775 436.041 268.769C437.882 268.19 439.681 267.563 441.439 266.889C443.067 266.263 444.66 265.597 446.216 264.89C446.601 264.715 446.984 264.538 447.364 264.358C453.496 261.459 459.056 257.908 464.046 253.705C464.092 253.667 464.137 253.628 464.183 253.589C464.187 253.585 464.191 253.582 464.195 253.578C468.67 249.78 472.683 245.588 476.234 241.003C481.155 234.649 485.191 227.542 488.34 219.679C488.504 219.263 488.666 218.846 488.825 218.428C488.83 218.415 488.835 218.402 488.84 218.389C489.489 216.679 490.097 214.942 490.664 213.181C490.667 213.169 490.671 213.158 490.675 213.147C493.132 205.495 494.805 197.361 495.695 188.742C496.212 183.736 496.464 178.566 496.452 173.233C496.452 172.956 496.45 172.679 496.448 172.402C496.303 153.302 492.675 136.319 485.564 121.452C485.561 121.447 485.558 121.441 485.555 121.435C478.341 106.362 467.736 94.5019 453.74 85.8558C453.69 85.8247 453.64 85.7937 453.591 85.7627C453.579 85.7554 453.567 85.7481 453.556 85.7408C439.88 77.2324 423.078 72.9689 403.151 72.9504C403 72.9503 402.849 72.9504 402.697 72.9507C383.002 72.996 366.275 77.1543 352.516 85.4257C352.152 85.6445 351.79 85.8661 351.431 86.0907C337.836 94.5751 327.473 106.094 320.342 120.647C320.149 121.04 319.959 121.435 319.771 121.833C312.921 136.326 309.374 152.806 309.134 171.275C309.123 172.067 309.119 172.863 309.121 173.663C309.162 191.474 312.168 207.383 318.139 221.391C318.558 222.374 318.992 223.348 319.44 224.313C325.96 238.339 335.31 249.611 347.49 258.13C347.506 258.142 347.523 258.153 347.539 258.165C348.113 258.565 348.693 258.959 349.279 259.348C362.234 267.809 377.981 272.563 396.522 273.609C396.625 273.615 396.728 273.621 396.83 273.626C397.144 273.643 397.459 273.659 397.774 273.674L397.815 291.226ZM501.673 207.102C500.292 209.181 499.325 211.7 498.772 214.658L490.641 259.196C488.464 271.55 489.567 281.658 493.951 289.521C498.336 297.384 505.028 302.155 514.029 303.835C519.598 304.874 524.52 304.607 528.797 303.033C530.247 302.499 531.624 301.816 532.925 300.981C534.994 299.698 536.763 298.092 538.234 296.165C539.942 293.927 541.247 291.255 542.15 288.148C542.451 287.115 542.707 286.033 542.919 284.902L546.39 285.55L545.778 288.825C545.319 291.279 545.161 293.588 545.303 295.754C545.52 299.03 546.424 301.978 548.018 304.595C548.875 305.896 549.885 307.049 551.046 308.057C553.677 310.339 557.089 311.871 561.281 312.653C567.453 313.805 572.225 312.835 575.598 309.742C577.344 308.159 578.799 306.212 579.963 303.9C581.149 301.545 582.033 298.811 582.615 295.7L594.434 232.51C595.332 227.708 594.609 223.397 592.266 219.579C592.165 219.414 592.061 219.25 591.954 219.088C589.517 215.044 585.405 212.482 579.619 211.402C574.091 210.371 569.266 211.265 565.146 214.085C561.05 216.776 558.533 220.626 557.596 225.635L550.138 265.514C549.948 266.526 549.732 267.49 549.489 268.406C548.684 271.444 547.585 273.956 546.191 275.943C545.638 276.703 544.991 277.312 544.252 277.77C542.602 278.794 540.489 279.066 537.913 278.585C531.367 277.364 528.316 273.084 528.759 265.746C528.83 264.579 528.989 263.334 529.236 262.012L536.767 221.748C537.8 216.225 536.868 211.599 533.973 207.868C531.102 204.01 526.838 201.552 521.181 200.497C517.694 199.846 514.527 199.833 511.68 200.456C509.698 200.89 507.872 201.634 506.201 202.686C504.38 203.827 502.871 205.3 501.673 207.102ZM591.998 277.308C590.436 282.159 590.566 286.661 592.389 290.815C593.755 293.928 596.253 296.403 599.882 298.239C601.096 298.853 602.435 299.396 603.901 299.867C606.718 300.772 609.336 301.162 611.755 301.037C614.148 300.914 616.347 300.287 618.351 299.156C619.131 298.737 619.865 298.272 620.554 297.76C621.899 296.761 623.069 295.586 624.065 294.235C624.257 293.975 624.442 293.709 624.62 293.437C624.752 293.236 624.88 293.032 625.004 292.824C625.78 291.529 626.421 290.098 626.926 288.529L647.592 224.348C648.484 221.578 648.84 218.96 648.661 216.494C648.511 214.42 647.982 212.453 647.074 210.594C645.212 206.565 641.354 203.61 635.502 201.729C629.649 199.849 624.79 200.004 620.925 202.193C619.168 203.188 617.632 204.51 616.317 206.159C614.741 208.136 613.483 210.583 612.544 213.5L591.998 277.308ZM656.477 194.191C658.377 192.133 659.832 189.536 660.842 186.401C662.564 181.053 662.389 176.261 660.317 172.027C658.37 167.833 654.284 164.736 648.058 162.736C642.205 160.855 637.057 161.054 632.614 163.332C628.335 165.526 625.334 169.297 623.612 174.646C622.62 177.729 622.305 180.653 622.67 183.42C622.908 185.23 623.437 186.972 624.257 188.646C626.493 192.796 630.662 195.851 636.763 197.811C642.989 199.812 648.097 199.737 652.087 197.588C653.748 196.695 655.211 195.563 656.477 194.191ZM633.604 309.565C631.37 310.088 629.13 310.853 626.885 311.859C626.526 312.019 626.175 312.193 625.83 312.382C625.739 312.431 625.649 312.482 625.56 312.533C623.659 313.621 621.962 315.141 620.467 317.092C618.82 319.244 617.419 321.92 616.265 325.12C613.873 331.759 614.389 337.846 617.815 343.383C621.241 348.921 626.831 353.083 634.584 355.872L679.443 372.006C685.473 374.174 691.033 374.369 696.124 372.589C701.214 370.809 704.978 366.539 707.415 359.777C708.444 356.921 708.998 354.241 709.077 351.736C709.119 350.407 709.027 349.126 708.801 347.896C708.785 347.811 708.769 347.726 708.752 347.642C708.404 345.899 707.784 344.258 706.891 342.717C706.459 341.97 705.986 341.256 705.472 340.573C703.738 338.269 701.538 336.328 698.873 334.75C698.133 334.313 697.359 333.903 696.548 333.522C696.521 333.509 696.494 333.496 696.467 333.484C695.597 333.077 694.686 332.703 693.733 332.36L656.074 318.816L656.34 318.078L696.2 317.416C697.215 317.395 698.204 317.349 699.169 317.279C700.21 317.204 701.222 317.101 702.205 316.97C703.027 316.861 703.829 316.732 704.61 316.584C706.262 316.271 707.822 315.87 709.291 315.383C709.512 315.309 709.732 315.234 709.949 315.156C711.458 314.619 712.866 313.986 714.174 313.257C718.993 310.686 722.4 306.634 724.394 301.102C724.997 299.429 725.446 297.834 725.742 296.316C726.727 291.254 726.003 287.057 723.568 283.724C720.526 279.436 716.051 276.23 710.144 274.105L664.916 257.839C661.698 256.681 658.611 256.134 655.657 256.197C653.528 256.242 651.468 256.605 649.476 257.285C644.843 258.951 641.419 262.858 639.204 269.005C637.032 275.028 637.177 280.219 639.639 284.575C640.963 286.73 642.655 288.595 644.718 290.17C645.204 290.542 645.711 290.897 646.238 291.236C647.914 292.314 649.798 293.229 651.889 293.98L689.363 307.458L689.097 308.196L640.738 308.717C638.367 308.725 635.989 309.007 633.604 309.565ZM740.156 308.692C740.105 308.709 740.056 308.725 740.006 308.742C733.48 310.938 728.557 315.507 725.237 322.45C724.306 324.396 723.603 326.319 723.128 328.22C722.58 330.415 722.335 332.579 722.393 334.714C722.462 337.201 722.943 339.648 723.836 342.053C724.455 343.642 725.258 345.152 726.246 346.581C729.066 350.662 733.391 354.093 739.218 356.873C746.824 360.502 753.728 361.222 759.929 359.032C766.13 356.842 770.859 352.341 774.117 345.529C777.437 338.587 777.935 331.987 775.611 325.73C774.78 323.381 773.605 321.226 772.086 319.267C769.474 315.899 765.848 313.108 761.204 310.892C756.456 308.627 751.918 307.496 747.591 307.501C745.039 307.503 742.561 307.9 740.156 308.692ZM755.731 290.849C758.286 294.197 761.959 297.014 766.748 299.299C771.512 301.572 775.949 302.636 780.061 302.491C781.157 302.452 782.229 302.328 783.278 302.118C788.266 301.119 792.012 297.999 794.518 292.759C796.084 289.484 798.217 287.043 800.919 285.436C803.814 283.76 807.758 282.585 812.751 281.911C822.675 280.693 830.307 278.542 835.647 275.459C841.049 272.245 845.505 266.97 849.013 259.634C851.984 253.419 853.089 247.196 852.326 240.966C851.915 237.61 850.963 234.252 849.468 230.892C849.076 229.963 848.629 229.043 848.126 228.132C848.032 227.962 847.936 227.793 847.839 227.623C845.026 222.751 840.608 218.14 834.585 213.792C830.267 210.676 825.126 207.694 819.159 204.848C809.848 200.405 800.962 197.936 792.502 197.439C784.174 197.005 776.915 198.207 770.725 201.046C764.73 203.816 760.448 207.887 757.88 213.258C754.81 219.677 754.269 225.693 756.255 231.307C757.719 235.027 760.226 238.232 763.778 240.921C765.519 242.24 767.512 243.434 769.756 244.505C772.507 245.817 775.333 246.576 778.235 246.781C778.278 246.784 778.322 246.787 778.365 246.79C781.093 246.967 783.887 246.655 786.747 245.854C792.891 244.12 798.311 241.879 803.007 239.132C803.291 238.959 803.572 238.788 803.852 238.619C803.883 238.6 803.914 238.582 803.945 238.563C806.552 236.993 809.006 235.607 811.307 234.405C813.683 233.164 816.45 232.11 819.607 231.242C819.872 231.168 820.141 231.097 820.412 231.026C820.472 231.005 820.53 230.985 820.589 230.965C820.875 230.866 821.158 230.775 821.438 230.691C823.459 230.085 825.333 229.854 827.059 229.997C827.792 230.058 828.497 230.186 829.177 230.381C831.788 230.984 833.567 232.315 834.514 234.376C834.932 235.197 835.159 236.037 835.198 236.894C835.203 237.003 835.204 237.113 835.203 237.222C835.192 238.22 834.927 239.241 834.409 240.286C834.274 240.558 834.123 240.832 833.954 241.107C832.564 243.34 830.222 245.038 826.927 246.201C826.595 246.339 826.261 246.474 825.926 246.607C825.743 246.679 825.56 246.751 825.376 246.821C825.118 246.921 824.859 247.019 824.599 247.115C824.575 247.124 824.551 247.133 824.527 247.142C824.512 247.147 824.497 247.153 824.482 247.158L824.48 247.159C822.652 247.833 820.796 248.423 818.91 248.932C816.034 249.707 813.089 250.29 810.077 250.682C809.984 250.694 809.892 250.706 809.799 250.717C808.053 250.937 806.284 251.092 804.492 251.183C799.447 251.402 794.172 251.887 788.666 252.639C788.66 252.639 788.656 252.64 788.65 252.641C785.725 253.04 782.735 253.516 779.679 254.066C773.533 255.282 768.297 257.595 763.971 261.005C759.908 264.208 756.648 268.38 754.191 273.519C751.685 278.759 751.611 283.63 753.967 288.133C754.48 289.074 755.068 289.98 755.731 290.849ZM472.129 269.567C472.128 269.586 472.128 269.606 472.128 269.625C472.112 269.618 472.097 269.611 472.081 269.604C472.097 269.591 472.113 269.579 472.129 269.567Z" fill="#2692FF"/>
<path fill-rule="evenodd" clip-rule="evenodd" d="M319.771 121.833C312.627 136.948 309.076 154.224 309.121 173.663C309.165 192.725 312.605 209.608 319.44 224.313C326.276 239.018 336.222 250.696 349.279 259.348C362.524 267.999 378.689 272.774 397.774 273.674L397.815 291.226C397.836 300.662 399.557 309.34 402.976 317.258C406.584 325.177 411.983 331.392 419.173 335.905C426.363 340.607 435.438 342.945 446.396 342.92C452.442 342.906 457.919 341.95 462.827 340.051C467.924 338.152 471.979 334.935 474.991 330.398C478.193 325.861 479.785 319.818 479.768 312.269C479.75 304.532 478.13 298.402 474.907 293.88C471.874 289.546 467.805 286.441 462.7 284.566C457.783 282.69 452.301 281.759 446.255 281.772C439.643 281.788 434.634 281.044 431.23 279.542C427.825 278.04 425.647 275.403 424.693 271.631C440.368 268.575 453.485 262.6 464.046 253.705C474.794 244.622 482.892 233.28 488.34 219.679C493.788 205.889 496.492 190.407 496.452 173.233C496.407 153.794 492.778 136.534 485.564 121.452C478.349 106.371 467.741 94.5051 453.74 85.8558C439.928 77.206 422.913 72.9043 402.697 72.9507C382.481 72.9972 365.392 77.3771 351.431 86.0907C337.469 94.8042 326.916 106.718 319.771 121.833Z" fill="white"/>
<path fill-rule="evenodd" clip-rule="evenodd" d="M417.283 126.222C397.12 138.972 370.943 150.514 356.237 156.322C358.281 164.856 361.036 172.972 364.025 180.316C375.56 172.734 397.02 160.162 418.777 152.772C418.352 142.974 417.819 133.88 417.283 126.222ZM419.208 164.163C398.646 171.634 378.529 183.691 368.49 190.425C373.442 200.812 378.404 208.798 381.443 212.945C392.698 228.078 403.981 234.234 411.828 236.371C413.349 236.785 414.599 236.422 415.674 235.484C416.857 234.451 417.867 232.631 418.091 230.336C419.939 211.471 419.934 186.774 419.208 164.163ZM415.852 114.149C420.522 110.991 427.276 113.796 427.742 119.83C429.79 146.348 432.251 197.584 428.94 231.396C428.475 236.145 426.341 240.633 422.845 243.684C419.24 246.829 414.275 248.323 408.961 246.876C398.482 244.022 385.217 236.284 372.682 219.422L372.661 219.394C365.888 210.159 351.361 185.154 344.956 155.89C344.148 152.198 346.185 148.533 349.651 147.202C364.465 141.512 395.055 128.211 415.852 114.149Z" fill="#2692FF"/>
<path d="M274.939 142.431C267.046 160.345 267.957 178.065 272.447 192.004C272.855 193.27 271.546 193.964 271.024 192.74C264.102 176.519 264.617 155.39 273.558 141.518C274.242 140.457 275.447 141.277 274.939 142.431Z" fill="#2692FF"/>
<path d="M255.87 146.015C254.137 158.245 255.55 166.76 259.135 173.727C259.711 174.845 258.667 175.746 257.943 174.718C251.986 166.26 251.963 154.21 254.478 145.584C254.824 144.399 256.044 144.793 255.87 146.015Z" fill="#2692FF"/>
<path d="M539.512 11.986C537.867 11.212 536.138 10.5052 534.38 9.86433C533.529 10.515 532.693 11.1748 531.873 11.8425C533.702 12.6379 535.247 13.3838 536.568 14.0893C537.561 13.3578 538.544 12.6563 539.512 11.986Z" fill="#2692FF"/>
<path fill-rule="evenodd" clip-rule="evenodd" d="M548.389 0.901755C543.338 3.54211 538.665 6.58735 534.38 9.86433C527.898 7.50161 521.008 6.03321 516.355 5.38098C512.398 4.91126 514.692 5.65615 518.12 6.76948L518.122 6.77034L518.127 6.77186L518.137 6.77505L518.142 6.77678C518.682 6.95217 519.25 7.13663 519.826 7.32688C524.855 9.00387 528.773 10.4943 531.873 11.8425C526.052 16.5796 521.001 21.7085 516.741 26.745C512.797 25.9488 509.124 25.345 506.498 24.9796C503.047 24.435 498.142 25.5235 508.454 27.3128C510.667 27.6967 512.869 28.2186 515.016 28.8317C507.752 37.8224 503.051 46.2975 501.03 51.4443C500.985 51.5735 500.939 51.7072 500.891 51.8445L500.73 52.3037C499.151 56.8088 496.663 63.9065 506.39 46.6331C509.747 40.6722 514.034 35.0719 518.718 29.9926C523.162 31.5074 527.219 33.317 530.42 34.9522C533.159 36.3511 537.623 36.2365 537.996 34.8038C538.261 33.7878 536.996 33.1083 536.038 32.5938L535.903 32.5214C532.399 30.6293 526.672 28.9613 520.942 27.6485C526.011 22.455 531.43 17.872 536.568 14.0893C541.314 16.6244 543.166 18.6379 544.927 20.5522C545.465 21.1373 545.994 21.7131 546.596 22.2917C548.892 24.0945 550.191 24.5008 550.878 24.24C551.875 23.8616 551.432 22.3597 550.966 21.4022C549.091 17.5566 544.716 14.4344 539.512 11.986C543.345 9.3316 546.941 7.16794 550.017 5.58025C551.744 4.68896 553.95 3.50283 553.721 1.57482C553.629 0.8057 553.039 0.367081 552.304 0.140964C550.991 -0.262645 549.606 0.265712 548.389 0.901755ZM539.512 11.986C538.544 12.6563 537.561 13.3578 536.568 14.0893C535.247 13.3838 533.702 12.6379 531.873 11.8425C532.693 11.1748 533.529 10.515 534.38 9.86433C536.138 10.5052 537.867 11.212 539.512 11.986ZM520.942 27.6485C520.192 28.4167 519.45 29.1983 518.718 29.9926C517.509 29.5807 516.272 29.1906 515.016 28.8317C515.576 28.1388 516.151 27.4427 516.741 26.745C518.12 27.0233 519.531 27.3251 520.942 27.6485Z" fill="#2692FF"/>
<path d="M518.718 29.9926C519.45 29.1983 520.192 28.4167 520.942 27.6485C519.531 27.3251 518.12 27.0233 516.741 26.745C516.151 27.4427 515.576 28.1388 515.016 28.8317C516.272 29.1906 517.509 29.5807 518.718 29.9926Z" fill="#2692FF"/>
<path fill-rule="evenodd" clip-rule="evenodd" d="M587.313 81.621C581.187 75.6201 576.523 71.5531 572.587 68.5004C573.616 68.0903 574.638 67.6986 575.648 67.3277C579.72 70.4718 583.484 73.6584 586.591 76.4168C589.948 79.3967 590.979 84.7635 587.568 81.8451C587.48 81.7697 587.395 81.6948 587.313 81.621ZM572.171 64.713C577.164 62.3552 581.983 60.2966 586.434 58.709C588.256 58.1341 589.977 57.8694 591.116 58.1447C592.992 58.5983 591.811 61.1033 590.147 62.0805C589.884 62.2347 589.59 62.4046 589.259 62.5923C587.4 63.6479 585.372 64.3424 583.304 64.8869C580.85 65.5329 578.285 66.3597 575.648 67.3277C574.511 66.4494 573.349 65.5744 572.171 64.713ZM569.328 66.0785C566.061 63.7559 563.223 62.0575 560.257 60.2819L560.256 60.2812L560.253 60.2798L560.246 60.2752C558.85 59.4397 557.425 58.5868 555.913 57.6435C551.553 54.9228 547.947 50.6816 558.427 56.034C562.967 58.3529 567.688 61.4345 572.171 64.713C571.229 65.1579 570.281 65.6134 569.328 66.0785ZM556.567 72.6779C560.839 70.3596 565.131 68.1269 569.328 66.0785C570.365 66.8155 571.445 67.6153 572.587 68.5004C568.353 70.1862 563.975 72.1844 559.599 74.3395C558.642 73.7777 557.632 73.2225 556.567 72.6779ZM552.684 74.8107C546.006 71.2017 539.359 68.8568 535.108 67.7368C534.487 67.5732 533.88 67.3737 533.296 67.1086C527.888 64.657 523.33 61.7894 543.241 67.5017C548.419 68.9871 552.832 70.7678 556.567 72.6779C555.27 73.3819 553.975 74.0937 552.684 74.8107ZM555.492 76.4056C556.858 75.7047 558.228 75.0144 559.599 74.3395C567.508 78.9848 571.782 84.0871 573.547 87.4747C574.088 88.5115 574.408 89.6614 574.441 90.8297C574.554 94.8918 570.997 90.5735 569.001 87.5736C565.348 83.1159 560.506 79.3989 555.492 76.4056ZM555.492 76.4056C554.56 75.8489 553.622 75.3174 552.684 74.8107C545.134 79.0055 537.753 83.376 531.174 87.3689C523.44 92.0625 524.214 93.8185 532.066 89.3242L532.127 89.2892C539.069 85.3156 547.194 80.6644 555.492 76.4056Z" fill="#2692FF"/>
<path d="M559.599 74.3395C558.642 73.7777 557.632 73.2225 556.567 72.6779C555.27 73.3819 553.975 74.0937 552.684 74.8107C553.622 75.3174 554.56 75.8489 555.492 76.4056C556.858 75.7047 558.228 75.0144 559.599 74.3395Z" fill="#2692FF"/>
<path d="M572.587 68.5004C573.616 68.0903 574.638 67.6986 575.648 67.3277C574.511 66.4494 573.349 65.5744 572.171 64.713C571.229 65.1579 570.281 65.6134 569.328 66.0785C570.365 66.8155 571.445 67.6153 572.587 68.5004Z" fill="#2692FF"/>
<path d="M347.341 106.011C325.556 108.552 302.332 97.8904 291.966 91.3811C290.903 90.7137 289.809 90.0893 288.64 89.6327C278.237 85.5708 275.212 89.1369 274.91 92.887C274.766 94.6665 275.724 96.3088 276.994 97.565C292.077 112.487 316.514 116.211 328.089 117.19C329.097 117.275 329.447 118.615 328.608 119.18C310.223 131.564 293.538 147.914 286.409 156.872C284.46 159.321 283.216 162.381 283.706 165.47C285.165 174.655 295.589 168.263 301.287 163.246C316.077 146.433 335.259 130.983 343.002 125.359C363.5 109.288 354.436 105.764 347.341 106.011Z" fill="#2692FF"/>
<path d="M455.626 52.1451C437.349 71.4899 417.155 84.6579 407.365 89.3348C400.42 92.9437 400.809 96.8978 401.221 98.8626C403.254 106.151 417.399 104.624 423.764 104.623C449.121 105.37 465.441 110.284 474.946 113.33C490.201 118.996 497.291 118.679 499.615 117.473C507.142 112.507 498.796 106.087 494.379 103.985C479.323 96.0092 446.821 94.0674 429.762 93.6576C427.745 93.6091 426.944 91.0491 428.618 89.924C439.007 82.9406 447.008 79.0915 464.823 62.095C473.857 52.6152 472.268 48.1847 469.657 46.1497C466.252 44.0636 460.897 46.5663 455.626 52.1451Z" fill="#2692FF"/>
<path fill-rule="evenodd" clip-rule="evenodd" d="M347.012 101.665L347.189 101.659C349.271 101.586 351.773 101.77 354.01 102.571C356.21 103.359 359.052 105.123 359.788 108.687C360.467 111.97 358.98 115.219 356.826 118.118C354.572 121.151 350.954 124.662 345.694 128.786C345.672 128.803 345.651 128.819 345.629 128.835C345.608 128.851 345.587 128.867 345.566 128.883C337.984 134.39 319.071 149.628 304.562 166.122C304.44 166.261 304.309 166.392 304.17 166.514C301.176 169.15 296.585 172.495 292.19 173.847C290.014 174.516 287.097 174.942 284.37 173.625C281.382 172.182 279.901 169.309 279.4 166.154C278.654 161.461 280.58 157.198 282.995 154.163C289.477 146.019 303.287 132.279 319.171 120.519C314.237 119.769 308.494 118.599 302.567 116.767C292.755 113.734 282.148 108.795 273.925 100.66C272.208 98.9617 270.274 96.1322 270.563 92.5383C270.798 89.6284 272.233 85.9706 276.341 84.298C280.014 82.803 284.703 83.4206 290.227 85.5772C291.774 86.1814 293.138 86.9741 294.286 87.6946C304.334 94.0042 326.513 104.056 346.835 101.685L347.012 101.665ZM324.343 116.817C324.57 116.843 324.794 116.868 325.015 116.892C325.784 116.976 326.518 117.05 327.212 117.113C327.511 117.141 327.804 117.166 328.089 117.19C329.097 117.275 329.447 118.615 328.608 119.18C328.364 119.344 328.121 119.51 327.878 119.675C327.27 120.089 326.663 120.507 326.06 120.929C325.872 121.06 325.685 121.191 325.499 121.323C308.361 133.394 293.134 148.422 286.409 156.872C284.46 159.321 283.216 162.381 283.706 165.47C285.165 174.655 295.589 168.263 301.287 163.246C316.077 146.433 335.259 130.983 343.002 125.359C363.5 109.288 354.436 105.764 347.341 106.011C325.556 108.552 302.332 97.8904 291.966 91.3811C290.903 90.7137 289.809 90.0893 288.64 89.6327C278.237 85.5708 275.212 89.1369 274.91 92.887C274.766 94.6665 275.724 96.3088 276.994 97.565C290.601 111.027 311.822 115.376 324.343 116.817ZM405.417 85.4382L405.483 85.4066C414.765 80.9725 434.527 68.1315 452.455 49.1567C455.327 46.117 458.447 43.6629 461.589 42.2858C464.698 40.9229 468.534 40.3533 471.937 42.4379L472.146 42.5661L472.339 42.717C474.676 44.5382 476.609 47.646 475.913 52.0155C475.298 55.8773 472.698 60.1494 467.981 65.0987L467.91 65.1738L467.834 65.2454C453.375 79.0396 445.111 84.4418 437.17 89.5485C444.877 89.8778 454.18 90.5034 463.368 91.664C475.505 93.1973 488.052 95.7309 496.341 100.095C498.891 101.324 502.794 103.853 505.079 107.203C506.272 108.953 507.341 111.404 506.901 114.235C506.447 117.158 504.555 119.434 502.017 121.108L501.827 121.234L501.624 121.339C499.271 122.56 495.829 122.812 491.607 122.303C487.211 121.774 481.308 120.334 473.52 117.448C464.219 114.469 448.374 109.714 423.702 108.979C423.051 108.98 422.226 109.003 421.28 109.03C418.282 109.113 414.072 109.231 410.368 108.804C407.845 108.513 405.092 107.938 402.707 106.709C400.228 105.432 397.938 103.321 397.021 100.032L396.982 99.895L396.953 99.7557C396.674 98.4247 396.29 95.8967 397.523 93.008C398.754 90.1249 401.284 87.5859 405.352 85.472L405.417 85.4382ZM423.764 104.623C449.121 105.37 465.441 110.284 474.946 113.33C490.201 118.996 497.291 118.679 499.615 117.473C507.142 112.507 498.796 106.087 494.379 103.985C479.323 96.0092 446.821 94.0674 429.762 93.6576C427.745 93.6091 426.944 91.0491 428.618 89.924C430.586 88.601 432.469 87.3912 434.348 86.1824L434.35 86.1815C442.392 81.0104 450.384 75.8706 464.823 62.095C473.857 52.6152 472.268 48.1847 469.657 46.1497C466.252 44.0636 460.897 46.5663 455.626 52.1451C437.349 71.4899 417.155 84.6579 407.365 89.3348C400.42 92.9437 400.809 96.8978 401.221 98.8626C402.982 105.176 413.829 104.876 420.838 104.681C421.921 104.651 422.913 104.623 423.764 104.623Z" fill="white"/>
</svg>
