<svg width="24" height="24" viewBox="0 0 24 24" fill="none" xmlns="http://www.w3.org/2000/svg">
<g id="Group_fill">
<circle id="Ellipse 46" cx="12" cy="9" r="4" fill="#2692FF"/>
<circle id="Ellipse 47" cx="17" cy="9" r="3" fill="#2692FF"/>
<circle id="Ellipse 48" cx="7" cy="9" r="3" fill="#2692FF"/>
<path id="Subtract" fill-rule="evenodd" clip-rule="evenodd" d="M17.5683 18H19.8949C20.4865 18 20.9402 17.4901 20.7965 16.9162C20.4282 15.4458 19.4478 13 16.9999 13C16.1138 13 15.42 13.3205 14.8779 13.7991C16.3857 14.7773 17.1653 16.4902 17.5683 18Z" fill="#2692FF"/>
<path id="Subtract_2" fill-rule="evenodd" clip-rule="evenodd" d="M9.1221 13.7991C8.58001 13.3205 7.88621 13 7.00012 13C4.5522 13 3.57178 15.4458 3.20355 16.9162C3.05983 17.4901 3.51348 18 4.1051 18H6.43167C6.83476 16.4902 7.61435 14.7773 9.1221 13.7991Z" fill="#2692FF"/>
<path id="Rectangle 4160" d="M12 14C15.7087 14 16.6665 17.301 16.9139 19.0061C16.9932 19.5526 16.5523 20 16 20H8C7.44772 20 7.00684 19.5526 7.08614 19.0061C7.33351 17.301 8.29134 14 12 14Z" fill="#2692FF"/>
</g>
</svg>
