<svg width="48" height="48" viewBox="0 0 48 48" fill="none" xmlns="http://www.w3.org/2000/svg">
<g id="person">
<g id="Vector">
<path d="M48 24C48 37.2548 37.2548 48 24 48C10.7452 48 0 37.2548 0 24C0 10.7452 10.7452 0 24 0C37.2548 0 48 10.7452 48 24Z" fill="#F8FCFF"/>
<path d="M32.4 16.4C32.4 21.0392 28.6392 24.8 24 24.8C19.3608 24.8 15.6 21.0392 15.6 16.4C15.6 11.7608 19.3608 8 24 8C28.6392 8 32.4 11.7608 32.4 16.4Z" fill="#51A8FF"/>
<path d="M7.01797 40.9594C9.05417 33.4908 15.8857 28 23.9997 28C32.1137 28 38.9453 33.4908 40.9815 40.9594C36.6375 45.3091 30.6331 48 24 48C17.3669 48 11.362 45.3091 7.01797 40.9594Z" fill="#51A8FF"/>
</g>
</g>
</svg>
