<svg width="36" height="36" viewBox="0 0 36 36" fill="none" xmlns="http://www.w3.org/2000/svg">
<path d="M18 18C16.35 18 14.9375 17.4125 13.7625 16.2375C12.5875 15.0625 12 13.65 12 12C12 10.35 12.5875 8.9375 13.7625 7.7625C14.9375 6.5875 16.35 6 18 6C19.65 6 21.0625 6.5875 22.2375 7.7625C23.4125 8.9375 24 10.35 24 12C24 13.65 23.4125 15.0625 22.2375 16.2375C21.0625 17.4125 19.65 18 18 18ZM6 27V25.8C6 24.95 6.21875 24.1688 6.65625 23.4563C7.09375 22.7438 7.675 22.2 8.4 21.825C9.95 21.05 11.525 20.4688 13.125 20.0813C14.725 19.6938 16.35 19.5 18 19.5C19.65 19.5 21.275 19.6938 22.875 20.0813C24.475 20.4688 26.05 21.05 27.6 21.825C28.325 22.2 28.9062 22.7438 29.3438 23.4563C29.7813 24.1688 30 24.95 30 25.8V27C30 27.825 29.7063 28.5312 29.1188 29.1188C28.5312 29.7063 27.825 30 27 30H9C8.175 30 7.46875 29.7063 6.88125 29.1188C6.29375 28.5312 6 27.825 6 27ZM9 27H27V25.8C27 25.525 26.9313 25.275 26.7938 25.05C26.6562 24.825 26.475 24.65 26.25 24.525C24.9 23.85 23.5375 23.3438 22.1625 23.0063C20.7875 22.6688 19.4 22.5 18 22.5C16.6 22.5 15.2125 22.6688 13.8375 23.0063C12.4625 23.3438 11.1 23.85 9.75 24.525C9.525 24.65 9.34375 24.825 9.20625 25.05C9.06875 25.275 9 25.525 9 25.8V27ZM18 15C18.825 15 19.5313 14.7063 20.1188 14.1188C20.7063 13.5313 21 12.825 21 12C21 11.175 20.7063 10.4688 20.1188 9.88125C19.5313 9.29375 18.825 9 18 9C17.175 9 16.4688 9.29375 15.8813 9.88125C15.2938 10.4688 15 11.175 15 12C15 12.825 15.2938 13.5313 15.8813 14.1188C16.4688 14.7063 17.175 15 18 15Z" fill="black"/>
</svg>
