<svg width="72" height="72" viewBox="0 0 73 72" fill="none" xmlns="http://www.w3.org/2000/svg">
<path d="M36.5 66C32.4 66 28.525 65.2125 24.875 63.6375C21.225 62.0625 18.0375 59.9125 15.3125 57.1875C12.5875 54.4625 10.4375 51.275 8.8625 47.625C7.2875 43.975 6.5 40.1 6.5 36C6.5 31.85 7.2875 27.9625 8.8625 24.3375C10.4375 20.7125 12.5875 17.5375 15.3125 14.8125C18.0375 12.0875 21.225 9.9375 24.875 8.3625C28.525 6.7875 32.4 6 36.5 6C37.35 6 38.0625 6.2875 38.6375 6.8625C39.2125 7.4375 39.5 8.15 39.5 9C39.5 9.85 39.2125 10.5625 38.6375 11.1375C38.0625 11.7125 37.35 12 36.5 12C29.85 12 24.1875 14.3375 19.5125 19.0125C14.8375 23.6875 12.5 29.35 12.5 36C12.5 42.65 14.8375 48.3125 19.5125 52.9875C24.1875 57.6625 29.85 60 36.5 60C43.15 60 48.8125 57.6625 53.4875 52.9875C58.1625 48.3125 60.5 42.65 60.5 36C60.5 35.15 60.7875 34.4375 61.3625 33.8625C61.9375 33.2875 62.65 33 63.5 33C64.35 33 65.0625 33.2875 65.6375 33.8625C66.2125 34.4375 66.5 35.15 66.5 36C66.5 40.1 65.7125 43.975 64.1375 47.625C62.5625 51.275 60.4125 54.4625 57.6875 57.1875C54.9625 59.9125 51.7875 62.0625 48.1625 63.6375C44.5375 65.2125 40.65 66 36.5 66Z" fill="#FFF"/>
</svg>
