<svg width="48" height="48" viewBox="0 0 48 48" fill="none" xmlns="http://www.w3.org/2000/svg">
<path fill-rule="evenodd" clip-rule="evenodd" d="M19.8793 25.2936L15.3848 23.7954L15.3848 23.7954L15.3848 23.7954C10.6784 22.2266 8.3252 21.4422 8.3252 20.0007C8.3252 18.5592 10.6784 17.7748 15.3848 16.2059L32.4112 10.5305C35.7228 9.42664 37.3785 8.87471 38.2526 9.74874C39.1266 10.6228 38.5747 12.2786 37.4708 15.5901L31.7954 32.6165L31.7954 32.6165C30.2266 37.3229 29.4422 39.6761 28.0006 39.6761C26.5591 39.6761 25.7747 37.3229 24.2059 32.6165L22.7077 28.122L31.4149 19.4149C32.1959 18.6338 32.1959 17.3675 31.4149 16.5865C30.6338 15.8054 29.3675 15.8054 28.5864 16.5865L19.8793 25.2936Z" fill="#2692FF"/>
</svg>
