<svg xmlns="http://www.w3.org/2000/svg" fill="none" viewBox="1 1 18 18">
<path d="M13.9453 5.02734L6.06094 8.96953M6.06094 11.0305L13.9203 14.9602M6.25 10C6.25 11.2426 5.24264 12.25 4 12.25C2.75736 12.25 1.75 11.2426 1.75 10C1.75 8.75736 2.75736 7.75 4 7.75C5.24264 7.75 6.25 8.75736 6.25 10ZM18.25 4C18.25 5.24264 17.2426 6.25 16 6.25C14.7574 6.25 13.75 5.24264 13.75 4C13.75 2.75736 14.7574 1.75 16 1.75C17.2426 1.75 18.25 2.75736 18.25 4ZM18.25 16C18.25 17.2426 17.2426 18.25 16 18.25C14.7574 18.25 13.75 17.2426 13.75 16C13.75 14.7574 14.7574 13.75 16 13.75C17.2426 13.75 18.25 14.7574 18.25 16Z" stroke="white" stroke-width="1.5" stroke-linecap="round" stroke-linejoin="round"/>
</svg>