<svg width="24" height="24" viewBox="0 0 24 24" fill="none" xmlns="http://www.w3.org/2000/svg">
<g id="Tumer_fill">
<path id="Subtract" fill-rule="evenodd" clip-rule="evenodd" d="M20.5 13.918C20.5 18.6124 16.6944 22.418 12 22.418C7.30558 22.418 3.5 18.6124 3.5 13.918C3.5 9.22355 7.30558 5.41797 12 5.41797C16.6944 5.41797 20.5 9.22355 20.5 13.918ZM11.9995 18.6397C14.6076 18.6397 16.7218 16.5255 16.7218 13.9175C16.7218 11.3095 14.6076 9.19529 11.9995 9.19529C9.39153 9.19529 7.27732 11.3095 7.27732 13.9175C7.27732 16.5255 9.39153 18.6397 11.9995 18.6397ZM11.9995 20.5286C15.6508 20.5286 18.6107 17.5687 18.6107 13.9175C18.6107 10.2663 15.6508 7.3064 11.9995 7.3064C8.34832 7.3064 5.38843 10.2663 5.38843 13.9175C5.38843 17.5687 8.34832 20.5286 11.9995 20.5286ZM12.9444 11.0853C12.9444 10.5637 12.5216 10.1409 12 10.1409C11.4784 10.1409 11.0556 10.5637 11.0556 11.0853L11.0556 13.9187C11.0556 14.4403 11.4784 14.8631 12 14.8631C12.5216 14.8631 12.9444 14.4403 12.9444 13.9187V11.0853Z" fill="#51A8FF"/>
<path id="Vector 65" d="M17.1934 7.778L18.61 6.36133" stroke="#51A8FF" stroke-width="1.88889" stroke-linecap="round"/>
<path id="Ellipse 45" d="M10.1753 2.93203C10.2829 2.83162 10.52 2.7429 10.8499 2.67961C11.1798 2.61633 11.584 2.58203 11.9998 2.58203C12.4156 2.58203 12.8198 2.61633 13.1497 2.67961C13.4795 2.7429 13.7167 2.83162 13.8243 2.93203" stroke="#51A8FF" stroke-width="1.88889" stroke-linecap="round"/>
</g>
</svg>
