<svg width="48" height="48" viewBox="0 0 48 48" fill="none" xmlns="http://www.w3.org/2000/svg">
<path d="M22 29.65V36C22 36.5667 22.1917 37.0417 22.575 37.425C22.9583 37.8083 23.4333 38 24 38C24.5667 38 25.0417 37.8083 25.425 37.425C25.8083 37.0417 26 36.5667 26 36V29.65L27.8 31.45C28 31.65 28.225 31.8 28.475 31.9C28.725 32 28.975 32.0417 29.225 32.025C29.475 32.0083 29.7167 31.95 29.95 31.85C30.1833 31.75 30.4 31.6 30.6 31.4C30.9667 31 31.1583 30.5333 31.175 30C31.1917 29.4667 31 29 30.6 28.6L25.4 23.4C25.2 23.2 24.9833 23.0583 24.75 22.975C24.5167 22.8917 24.2667 22.85 24 22.85C23.7333 22.85 23.4833 22.8917 23.25 22.975C23.0167 23.0583 22.8 23.2 22.6 23.4L17.4 28.6C17 29 16.8083 29.4667 16.825 30C16.8417 30.5333 17.05 31 17.45 31.4C17.85 31.7667 18.3167 31.9583 18.85 31.975C19.3833 31.9917 19.85 31.8 20.25 31.4L22 29.65ZM12 44C10.9 44 9.95833 43.6083 9.175 42.825C8.39167 42.0417 8 41.1 8 40V8C8 6.9 8.39167 5.95833 9.175 5.175C9.95833 4.39167 10.9 4 12 4H26.35C26.8833 4 27.3917 4.1 27.875 4.3C28.3583 4.5 28.7833 4.78333 29.15 5.15L38.85 14.85C39.2167 15.2167 39.5 15.6417 39.7 16.125C39.9 16.6083 40 17.1167 40 17.65V40C40 41.1 39.6083 42.0417 38.825 42.825C38.0417 43.6083 37.1 44 36 44H12ZM26 16V8H12V40H36V18H28C27.4333 18 26.9583 17.8083 26.575 17.425C26.1917 17.0417 26 16.5667 26 16Z" fill="#FFA800"/>
</svg>
