<svg width="18" height="14" viewBox="0 0 18 14" fill="none" xmlns="http://www.w3.org/2000/svg">
<path d="M12.25 3.75C14.25 4.75 14.25 9.25 12.25 10.25M14.25 0.75C18.25 3.75 18.25 10.25 14.25 13.25M8.25 0.75V13.25L5.8778 11.0603C5.579 10.7845 5.42961 10.6466 5.26126 10.5436C5.06049 10.4209 4.83964 10.3345 4.60886 10.2886C4.41535 10.25 4.21203 10.25 3.80539 10.25C2.82147 10.25 2.32951 10.25 1.94462 10.0807C1.48664 9.87919 1.12081 9.51336 0.919325 9.05538C0.75 8.67049 0.75 8.17853 0.75 7.19461V6.80539C0.75 5.82147 0.75 5.32951 0.919325 4.94462C1.12081 4.48664 1.48664 4.12081 1.94462 3.91933C2.32951 3.75 2.82147 3.75 3.80539 3.75C4.21203 3.75 4.41535 3.75 4.60886 3.71144C4.83964 3.66546 5.06049 3.57911 5.26126 3.45636C5.42961 3.35344 5.579 3.21553 5.8778 2.93972L8.25 0.75Z" stroke="#51A8FF" stroke-width="1.5" stroke-linecap="round" stroke-linejoin="round"/>
</svg>
