<svg xmlns="http://www.w3.org/2000/svg" width="25" height="24" viewBox="0 0 25 24" fill="none">
<path id='check-svg-path' d="M12.5 22C11.1167 22 9.81667 21.7375 8.6 21.2125C7.38333 20.6875 6.325 19.975 5.425 19.075C4.525 18.175 3.8125 17.1167 3.2875 15.9C2.7625 14.6833 2.5 13.3833 2.5 12C2.5 10.6167 2.7625 9.31667 3.2875 8.1C3.8125 6.88333 4.525 5.825 5.425 4.925C6.325 4.025 7.38333 3.3125 8.6 2.7875C9.81667 2.2625 11.1167 2 12.5 2C13.3 2 14.0792 2.09167 14.8375 2.275C15.5958 2.45833 16.325 2.725 17.025 3.075C17.275 3.20833 17.4375 3.40833 17.5125 3.675C17.5875 3.94167 17.5417 4.19167 17.375 4.425C17.2083 4.65833 16.9875 4.80833 16.7125 4.875C16.4375 4.94167 16.1667 4.90833 15.9 4.775C15.3667 4.525 14.8125 4.33333 14.2375 4.2C13.6625 4.06667 13.0833 4 12.5 4C10.2833 4 8.39583 4.77917 6.8375 6.3375C5.27917 7.89583 4.5 9.78333 4.5 12C4.5 14.2167 5.27917 16.1042 6.8375 17.6625C8.39583 19.2208 10.2833 20 12.5 20C14.7167 20 16.6042 19.2208 18.1625 17.6625C19.7208 16.1042 20.5 14.2167 20.5 12C20.5 11.8667 20.4958 11.7375 20.4875 11.6125C20.4792 11.4875 20.4667 11.3583 20.45 11.225C20.4167 10.9417 20.4708 10.6708 20.6125 10.4125C20.7542 10.1542 20.9667 9.98333 21.25 9.9C21.5167 9.81667 21.7667 9.84167 22 9.975C22.2333 10.1083 22.3667 10.3083 22.4 10.575C22.4333 10.8083 22.4583 11.0417 22.475 11.275C22.4917 11.5083 22.5 11.75 22.5 12C22.5 13.3833 22.2375 14.6833 21.7125 15.9C21.1875 17.1167 20.475 18.175 19.575 19.075C18.675 19.975 17.6167 20.6875 16.4 21.2125C15.1833 21.7375 13.8833 22 12.5 22ZM11.1 13.8L20.4 4.475C20.5833 4.29167 20.8125 4.19583 21.0875 4.1875C21.3625 4.17917 21.6 4.275 21.8 4.475C21.9833 4.65833 22.075 4.89167 22.075 5.175C22.075 5.45833 21.9833 5.69167 21.8 5.875L11.8 15.9C11.6 16.1 11.3667 16.2 11.1 16.2C10.8333 16.2 10.6 16.1 10.4 15.9L7.55 13.05C7.36667 12.8667 7.275 12.6333 7.275 12.35C7.275 12.0667 7.36667 11.8333 7.55 11.65C7.73333 11.4667 7.96667 11.375 8.25 11.375C8.53333 11.375 8.76667 11.4667 8.95 11.65L11.1 13.8Z" fill="currentColor"/>
</svg>